<svg width="65" height="64" viewBox="0 0 65 64" fill="none" xmlns="http://www.w3.org/2000/svg">
<path d="M58.4997 31.9998C58.4997 25.1042 55.7604 18.4911 50.8845 13.6152C46.0086 8.73923 39.3954 5.99997 32.4998 5.99997C25.6042 5.99997 18.9911 8.73923 14.1152 13.6152C9.23923 18.4911 6.49997 25.1042 6.49997 31.9998C6.49997 38.8954 9.23923 45.5086 14.1152 50.3845C18.9911 55.2604 25.6042 57.9997 32.4998 57.9997C39.3954 57.9997 46.0086 55.2604 50.8845 50.3845C55.7604 45.5086 58.4997 38.8954 58.4997 31.9998ZM0.5 31.9998C0.5 23.5129 3.8714 15.3737 9.87253 9.37253C15.8737 3.3714 24.0129 0 32.4998 0C40.9867 0 49.126 3.3714 55.1271 9.37253C61.1283 15.3737 64.4997 23.5129 64.4997 31.9998C64.4997 40.4867 61.1283 48.626 55.1271 54.6271C49.126 60.6283 40.9867 63.9997 32.4998 63.9997C24.0129 63.9997 15.8737 60.6283 9.87253 54.6271C3.8714 48.626 0.5 40.4867 0.5 31.9998ZM41.7623 14.4499C42.4873 15.0374 42.7123 16.0624 42.2873 16.8999L35.7373 29.9998H44.4998C45.3498 29.9998 46.1123 30.5373 46.3873 31.3373C46.6623 32.1373 46.4123 33.0248 45.7498 33.5623L25.7499 49.5622C25.0124 50.1497 23.9749 50.1497 23.2374 49.5497C22.4999 48.9497 22.2874 47.9372 22.6999 47.0998L29.2623 33.9998H20.4999C19.6499 33.9998 18.8999 33.4623 18.6124 32.6623C18.3249 31.8623 18.5874 30.9748 19.2499 30.4373L39.2498 14.4374C39.9873 13.8499 41.0248 13.8499 41.7623 14.4499Z" fill="#0061EF"/>
</svg>
