<svg width="508" height="160" viewBox="0 0 508 160" fill="none" xmlns="http://www.w3.org/2000/svg">
<path d="M416.621 100.842V90.6701L442.125 50.4897H450.895V64.5693H445.705L429.627 90.0139V90.4912H465.87V100.842H416.621ZM445.944 111.581V97.7397L446.182 93.2355V50.4897H458.293V111.581H445.944Z" fill="black"/>
<path d="M410.607 79.5072C410.607 72.5958 407.862 65.9675 402.975 61.0804C398.087 56.1933 391.459 53.4478 384.548 53.4478C377.636 53.4478 371.008 56.1933 366.121 61.0804C361.234 65.9675 358.488 72.5958 358.488 79.5072C358.488 86.4186 361.234 93.0469 366.121 97.934C371.008 102.821 377.636 105.567 384.548 105.567C391.459 105.567 398.087 102.821 402.975 97.934C407.862 93.0469 410.607 86.4186 410.607 79.5072ZM352.475 79.5072C352.475 71.0009 355.854 62.843 361.869 56.8281C367.883 50.8132 376.041 47.4341 384.548 47.4341C393.054 47.4341 401.212 50.8132 407.227 56.8281C413.242 62.843 416.621 71.0009 416.621 79.5072C416.621 88.0135 413.242 96.1714 407.227 102.186C401.212 108.201 393.054 111.58 384.548 111.58C376.041 111.58 367.883 108.201 361.869 102.186C355.854 96.1714 352.475 88.0135 352.475 79.5072ZM393.831 61.9171C394.558 62.5059 394.784 63.5333 394.358 64.3727L387.793 77.5026H396.575C397.427 77.5026 398.191 78.0414 398.467 78.8432C398.743 79.645 398.492 80.5345 397.828 81.0733L377.782 97.1098C377.043 97.6987 376.003 97.6987 375.264 97.0973C374.525 96.4959 374.312 95.4811 374.725 94.6417L381.303 81.5118H372.52C371.668 81.5118 370.917 80.973 370.628 80.1712C370.34 79.3694 370.603 78.4799 371.267 77.9411L391.313 61.9046C392.052 61.3157 393.092 61.3157 393.831 61.9171Z" fill="black"/>
<path d="M301.859 100.842V90.6701L327.364 50.4897H336.134V64.5693H330.943L314.865 90.0139V90.4912H351.108V100.842H301.859ZM331.182 111.581V97.7397L331.42 93.2355V50.4897H343.531V111.581H331.182Z" fill="black"/>
<path d="M272.089 112.475C267.456 112.475 263.449 111.491 260.068 109.522C256.707 107.533 254.112 104.769 252.282 101.229C250.453 97.6698 249.538 93.5434 249.538 88.8502C249.538 84.1172 250.453 79.9809 252.282 76.4411C254.112 72.8814 256.707 70.1172 260.068 68.1485C263.449 66.1598 267.456 65.1655 272.089 65.1655C276.723 65.1655 280.72 66.1598 284.081 68.1485C287.461 70.1172 290.066 72.8814 291.896 76.4411C293.726 79.9809 294.64 84.1172 294.64 88.8502C294.64 93.5434 293.726 97.6698 291.896 101.229C290.066 104.769 287.461 107.533 284.081 109.522C280.72 111.491 276.723 112.475 272.089 112.475ZM272.149 102.631C274.257 102.631 276.017 102.035 277.429 100.842C278.841 99.6286 279.905 97.978 280.62 95.89C281.356 93.8019 281.724 91.4255 281.724 88.7607C281.724 86.0959 281.356 83.7195 280.62 81.6314C279.905 79.5434 278.841 77.8928 277.429 76.6797C276.017 75.4667 274.257 74.8601 272.149 74.8601C270.021 74.8601 268.231 75.4667 266.78 76.6797C265.348 77.8928 264.264 79.5434 263.528 81.6314C262.812 83.7195 262.454 86.0959 262.454 88.7607C262.454 91.4255 262.812 93.8019 263.528 95.89C264.264 97.978 265.348 99.6286 266.78 100.842C268.231 102.035 270.021 102.631 272.149 102.631Z" fill="black"/>
<path d="M228.501 111.58V65.7623H241.208V111.58H228.501ZM234.884 59.856C232.995 59.856 231.374 59.2296 230.022 57.9768C228.69 56.7041 228.023 55.1828 228.023 53.4129C228.023 51.6629 228.69 50.1614 230.022 48.9086C231.374 47.6359 232.995 46.9995 234.884 46.9995C236.773 46.9995 238.384 47.6359 239.717 48.9086C241.069 50.1614 241.745 51.6629 241.745 53.4129C241.745 55.1828 241.069 56.7041 239.717 57.9768C238.384 59.2296 236.773 59.856 234.884 59.856Z" fill="black"/>
<path d="M191.982 112.326C188.502 112.326 185.35 111.432 182.526 109.642C179.722 107.832 177.495 105.177 175.844 101.677C174.214 98.1574 173.398 93.842 173.398 88.7312C173.398 83.4812 174.244 79.1162 175.934 75.6361C177.624 72.1361 179.871 69.521 182.675 67.7909C185.499 66.0409 188.592 65.1659 191.952 65.1659C194.518 65.1659 196.656 65.6034 198.366 66.4784C200.096 67.3335 201.488 68.4074 202.542 69.7C203.616 70.9727 204.431 72.2255 204.988 73.4585H205.376V50.4897H218.053V111.581H205.525V104.243H204.988C204.391 105.515 203.546 106.778 202.452 108.031C201.379 109.264 199.977 110.288 198.246 111.103C196.536 111.919 194.448 112.326 191.982 112.326ZM196.009 102.214C198.058 102.214 199.788 101.657 201.2 100.544C202.631 99.4102 203.725 97.8292 204.481 95.8008C205.256 93.7724 205.644 91.396 205.644 88.6716C205.644 85.9471 205.266 83.5807 204.511 81.5721C203.755 79.5636 202.661 78.0125 201.229 76.9187C199.798 75.825 198.058 75.2781 196.009 75.2781C193.921 75.2781 192.161 75.8449 190.729 76.9784C189.298 78.1119 188.214 79.6829 187.478 81.6915C186.742 83.7 186.374 86.0267 186.374 88.6716C186.374 91.3363 186.742 93.6929 187.478 95.7412C188.234 97.7696 189.317 99.3605 190.729 100.514C192.161 101.647 193.921 102.214 196.009 102.214Z" fill="black"/>
<path d="M152.227 92.0719V65.7622H164.934V111.58H152.734V103.258H152.257C151.223 105.943 149.502 108.1 147.096 109.731C144.71 111.362 141.796 112.177 138.356 112.177C135.294 112.177 132.599 111.481 130.272 110.089C127.946 108.697 126.126 106.718 124.813 104.153C123.521 101.587 122.865 98.515 122.845 94.9355V65.7622H135.552V92.6685C135.572 95.373 136.298 97.5108 137.73 99.0818C139.161 100.653 141.081 101.438 143.487 101.438C145.018 101.438 146.45 101.09 147.782 100.394C149.115 99.6784 150.188 98.6244 151.004 97.2324C151.839 95.8403 152.247 94.1202 152.227 92.0719Z" fill="black"/>
<path d="M114.567 65.7624V75.3079H86.9746V65.7624H114.567ZM93.2388 54.7852H105.946V97.5011C105.946 98.6744 106.125 99.5891 106.483 100.245C106.841 100.882 107.338 101.329 107.975 101.588C108.631 101.846 109.387 101.976 110.242 101.976C110.838 101.976 111.435 101.926 112.031 101.826C112.628 101.707 113.085 101.618 113.404 101.558L115.402 111.014C114.766 111.213 113.871 111.441 112.718 111.7C111.564 111.978 110.162 112.147 108.512 112.207C105.449 112.326 102.764 111.919 100.458 110.984C98.1706 110.049 96.3908 108.598 95.1181 106.629C93.8453 104.66 93.2189 102.174 93.2388 99.1715V54.7852Z" fill="black"/>
<path d="M81.1506 78.8275L69.517 79.5434C69.3182 78.549 68.8906 77.6542 68.2344 76.8587C67.5781 76.0434 66.7131 75.3971 65.6392 74.9198C64.5852 74.4226 63.3224 74.174 61.8509 74.174C59.8821 74.174 58.2216 74.5917 56.8693 75.4269C55.517 76.2422 54.8409 77.336 54.8409 78.7081C54.8409 79.8019 55.2784 80.7266 56.1534 81.4823C57.0284 82.238 58.5298 82.8445 60.6577 83.3019L68.9503 84.9723C73.4048 85.8871 76.7259 87.3587 78.9134 89.3871C81.1009 91.4155 82.1946 94.0803 82.1946 97.3814C82.1946 100.384 81.3097 103.019 79.5398 105.286C77.7898 107.553 75.3835 109.323 72.321 110.596C69.2784 111.849 65.7685 112.475 61.7912 112.475C55.7259 112.475 50.8935 111.212 47.294 108.687C43.7145 106.141 41.6165 102.681 41 98.3062L53.4986 97.6499C53.8764 99.4993 54.7912 100.911 56.2429 101.886C57.6946 102.84 59.554 103.318 61.821 103.318C64.0483 103.318 65.8381 102.89 67.1903 102.035C68.5625 101.16 69.2585 100.036 69.2784 98.6641C69.2585 97.5107 68.7713 96.5661 67.8168 95.8303C66.8622 95.0746 65.3906 94.4979 63.402 94.1002L55.4673 92.5192C50.9929 91.6243 47.6619 90.0732 45.4744 87.8658C43.3068 85.6584 42.223 82.8445 42.223 79.424C42.223 76.4809 43.0185 73.9454 44.6094 71.8175C46.2202 69.6897 48.4773 68.049 51.3807 66.8956C54.304 65.7422 57.7244 65.1655 61.642 65.1655C67.429 65.1655 71.983 66.3885 75.304 68.8346C78.6449 71.2806 80.5938 74.6115 81.1506 78.8275Z" fill="black"/>
</svg>
