<svg width="508" height="160" viewBox="0 0 508 160" fill="none" xmlns="http://www.w3.org/2000/svg">
<path d="M416.621 100.843V90.6706L442.125 50.4902H450.895V64.5698H445.705L429.627 90.0144V90.4917H465.87V100.843H416.621ZM445.944 111.581V97.7402L446.182 93.236V50.4902H458.293V111.581H445.944Z" fill="#0061EF"/>
<path d="M410.607 79.5077C410.607 72.5963 407.862 65.968 402.975 61.0809C398.087 56.1938 391.459 53.4483 384.548 53.4483C377.636 53.4483 371.008 56.1938 366.121 61.0809C361.234 65.968 358.488 72.5963 358.488 79.5077C358.488 86.4191 361.234 93.0474 366.121 97.9345C371.008 102.822 377.636 105.567 384.548 105.567C391.459 105.567 398.087 102.822 402.975 97.9345C407.862 93.0474 410.607 86.4191 410.607 79.5077ZM352.475 79.5077C352.475 71.0014 355.854 62.8434 361.869 56.8286C367.883 50.8137 376.041 47.4346 384.548 47.4346C393.054 47.4346 401.212 50.8137 407.227 56.8286C413.242 62.8434 416.621 71.0014 416.621 79.5077C416.621 88.014 413.242 96.1719 407.227 102.187C401.212 108.202 393.054 111.581 384.548 111.581C376.041 111.581 367.883 108.202 361.869 102.187C355.854 96.1719 352.475 88.014 352.475 79.5077ZM393.831 61.9176C394.558 62.5064 394.784 63.5338 394.358 64.3732L387.793 77.5031H396.575C397.427 77.5031 398.191 78.0418 398.467 78.8437C398.743 79.6455 398.492 80.535 397.828 81.0738L377.782 97.1103C377.043 97.6992 376.003 97.6992 375.264 97.0978C374.525 96.4964 374.312 95.4816 374.725 94.6422L381.303 81.5123H372.52C371.668 81.5123 370.917 80.9735 370.628 80.1717C370.34 79.3699 370.603 78.4803 371.267 77.9416L391.313 61.9051C392.052 61.3162 393.092 61.3162 393.831 61.9176Z" fill="#0061EF"/>
<path d="M301.859 100.843V90.6706L327.364 50.4902H336.134V64.5698H330.943L314.865 90.0144V90.4917H351.108V100.843H301.859ZM331.182 111.581V97.7402L331.42 93.236V50.4902H343.531V111.581H331.182Z" fill="#0061EF"/>
<path d="M272.089 112.476C267.456 112.476 263.449 111.491 260.068 109.523C256.707 107.534 254.112 104.77 252.282 101.23C250.453 97.6703 249.538 93.5439 249.538 88.8507C249.538 84.1177 250.453 79.9814 252.282 76.4416C254.112 72.8819 256.707 70.1177 260.068 68.149C263.449 66.1603 267.456 65.166 272.089 65.166C276.723 65.166 280.72 66.1603 284.081 68.149C287.461 70.1177 290.066 72.8819 291.896 76.4416C293.726 79.9814 294.64 84.1177 294.64 88.8507C294.64 93.5439 293.726 97.6703 291.896 101.23C290.066 104.77 287.461 107.534 284.081 109.523C280.72 111.491 276.723 112.476 272.089 112.476ZM272.149 102.632C274.257 102.632 276.017 102.035 277.429 100.842C278.841 99.6291 279.905 97.9785 280.62 95.8904C281.356 93.8024 281.724 91.426 281.724 88.7612C281.724 86.0964 281.356 83.72 280.62 81.6319C279.905 79.5439 278.841 77.8933 277.429 76.6802C276.017 75.4671 274.257 74.8606 272.149 74.8606C270.021 74.8606 268.231 75.4671 266.78 76.6802C265.348 77.8933 264.264 79.5439 263.528 81.6319C262.812 83.72 262.454 86.0964 262.454 88.7612C262.454 91.426 262.812 93.8024 263.528 95.8904C264.264 97.9785 265.348 99.6291 266.78 100.842C268.231 102.035 270.021 102.632 272.149 102.632Z" fill="white"/>
<path d="M228.501 111.581V65.7628H241.208V111.581H228.501ZM234.884 59.8565C232.995 59.8565 231.374 59.2301 230.022 57.9773C228.69 56.7045 228.023 55.1832 228.023 53.4134C228.023 51.6634 228.69 50.1619 230.022 48.9091C231.374 47.6364 232.995 47 234.884 47C236.773 47 238.384 47.6364 239.717 48.9091C241.069 50.1619 241.745 51.6634 241.745 53.4134C241.745 55.1832 241.069 56.7045 239.717 57.9773C238.384 59.2301 236.773 59.8565 234.884 59.8565Z" fill="white"/>
<path d="M191.982 112.327C188.502 112.327 185.35 111.432 182.526 109.642C179.722 107.833 177.495 105.178 175.844 101.678C174.214 98.1578 173.398 93.8425 173.398 88.7317C173.398 83.4817 174.244 79.1167 175.934 75.6365C177.624 72.1365 179.871 69.5215 182.675 67.7914C185.499 66.0414 188.592 65.1664 191.952 65.1664C194.518 65.1664 196.656 65.6039 198.366 66.4789C200.096 67.334 201.488 68.4078 202.542 69.7005C203.616 70.9732 204.431 72.226 204.988 73.459H205.376V50.4902H218.053V111.581H205.525V104.243H204.988C204.391 105.516 203.546 106.779 202.452 108.031C201.379 109.264 199.977 110.289 198.246 111.104C196.536 111.919 194.448 112.327 191.982 112.327ZM196.009 102.215C198.058 102.215 199.788 101.658 201.2 100.544C202.631 99.4107 203.725 97.8297 204.481 95.8013C205.256 93.7729 205.644 91.3965 205.644 88.6721C205.644 85.9476 205.266 83.5811 204.511 81.5726C203.755 79.5641 202.661 78.013 201.229 76.9192C199.798 75.8255 198.058 75.2786 196.009 75.2786C193.921 75.2786 192.161 75.8453 190.729 76.9789C189.298 78.1124 188.214 79.6834 187.478 81.6919C186.742 83.7005 186.374 86.0272 186.374 88.6721C186.374 91.3368 186.742 93.6934 187.478 95.7417C188.234 97.7701 189.317 99.361 190.729 100.514C192.161 101.648 193.921 102.215 196.009 102.215Z" fill="white"/>
<path d="M152.227 92.0724V65.7627H164.934V111.581H152.734V103.258H152.257C151.223 105.943 149.502 108.101 147.096 109.731C144.71 111.362 141.796 112.177 138.356 112.177C135.294 112.177 132.599 111.481 130.272 110.089C127.946 108.697 126.126 106.719 124.813 104.153C123.521 101.588 122.865 98.5155 122.845 94.936V65.7627H135.552V92.6689C135.572 95.3735 136.298 97.5113 137.73 99.0823C139.161 100.653 141.081 101.439 143.487 101.439C145.018 101.439 146.45 101.091 147.782 100.395C149.115 99.6789 150.188 98.6249 151.004 97.2329C151.839 95.8408 152.247 94.1207 152.227 92.0724Z" fill="white"/>
<path d="M114.567 65.7629V75.3084H86.9746V65.7629H114.567ZM93.2388 54.7856H105.946V97.5016C105.946 98.6749 106.125 99.5896 106.483 100.246C106.841 100.882 107.338 101.33 107.975 101.588C108.631 101.847 109.387 101.976 110.242 101.976C110.838 101.976 111.435 101.926 112.031 101.827C112.628 101.708 113.085 101.618 113.404 101.558L115.402 111.014C114.766 111.213 113.871 111.442 112.718 111.7C111.564 111.979 110.162 112.148 108.512 112.208C105.449 112.327 102.764 111.919 100.458 110.985C98.1706 110.05 96.3908 108.598 95.1181 106.629C93.8453 104.661 93.2189 102.175 93.2388 99.172V54.7856Z" fill="white"/>
<path d="M81.1506 78.8279L69.517 79.5439C69.3182 78.5495 68.8906 77.6546 68.2344 76.8592C67.5781 76.0439 66.7131 75.3975 65.6392 74.9203C64.5852 74.4231 63.3224 74.1745 61.8509 74.1745C59.8821 74.1745 58.2216 74.5921 56.8693 75.4274C55.517 76.2427 54.8409 77.3365 54.8409 78.7086C54.8409 79.8024 55.2784 80.7271 56.1534 81.4828C57.0284 82.2385 58.5298 82.845 60.6577 83.3024L68.9503 84.9728C73.4048 85.8876 76.7259 87.3592 78.9134 89.3876C81.1009 91.416 82.1946 94.0808 82.1946 97.3819C82.1946 100.385 81.3097 103.02 79.5398 105.287C77.7898 107.554 75.3835 109.324 72.321 110.596C69.2784 111.849 65.7685 112.476 61.7912 112.476C55.7259 112.476 50.8935 111.213 47.294 108.687C43.7145 106.142 41.6165 102.682 41 98.3066L53.4986 97.6504C53.8764 99.4998 54.7912 100.912 56.2429 101.886C57.6946 102.841 59.554 103.318 61.821 103.318C64.0483 103.318 65.8381 102.89 67.1903 102.035C68.5625 101.16 69.2585 100.037 69.2784 98.6646C69.2585 97.5112 68.7713 96.5666 67.8168 95.8308C66.8622 95.0751 65.3906 94.4984 63.402 94.1007L55.4673 92.5197C50.9929 91.6248 47.6619 90.0737 45.4744 87.8663C43.3068 85.6589 42.223 82.845 42.223 79.4245C42.223 76.4814 43.0185 73.9458 44.6094 71.818C46.2202 69.6902 48.4773 68.0495 51.3807 66.8961C54.304 65.7427 57.7244 65.166 61.642 65.166C67.429 65.166 71.983 66.389 75.304 68.835C78.6449 71.2811 80.5938 74.612 81.1506 78.8279Z" fill="white"/>
</svg>
