<svg width="856" height="163" viewBox="0 0 856 163" fill="none" xmlns="http://www.w3.org/2000/svg">
<path d="M416.815 102.724V92.552L442.32 52.3716H451.09V66.4511H445.899L429.821 91.8957V92.373H466.064V102.724H416.815ZM446.138 113.462V99.6216L446.377 95.1173V52.3716H458.487V113.462H446.138Z" fill="#0061EF"/>
<path d="M410.801 81.389C410.801 74.4777 408.056 67.8493 403.169 62.9623C398.282 58.0752 391.653 55.3296 384.742 55.3296C377.831 55.3296 371.202 58.0752 366.315 62.9623C361.428 67.8493 358.683 74.4777 358.683 81.389C358.683 88.3004 361.428 94.9287 366.315 99.8158C371.202 104.703 377.831 107.448 384.742 107.448C391.653 107.448 398.282 104.703 403.169 99.8158C408.056 94.9287 410.801 88.3004 410.801 81.389ZM352.669 81.389C352.669 72.8827 356.048 64.7248 362.063 58.7099C368.078 52.695 376.236 49.3159 384.742 49.3159C393.248 49.3159 401.406 52.695 407.421 58.7099C413.436 64.7248 416.815 72.8827 416.815 81.389C416.815 89.8954 413.436 98.0533 407.421 104.068C401.406 110.083 393.248 113.462 384.742 113.462C376.236 113.462 368.078 110.083 362.063 104.068C356.048 98.0533 352.669 89.8954 352.669 81.389ZM394.026 63.7989C394.752 64.3878 394.978 65.4151 394.552 66.2545L387.987 79.3845H396.769C397.621 79.3845 398.386 79.9232 398.661 80.725C398.937 81.5269 398.686 82.4164 398.022 82.9551L377.977 98.9917C377.237 99.5805 376.198 99.5805 375.458 98.9791C374.719 98.3778 374.506 97.363 374.92 96.5235L381.497 83.3936H372.715C371.863 83.3936 371.111 82.8549 370.823 82.0531C370.535 81.2512 370.798 80.3617 371.462 79.823L391.507 63.7864C392.247 63.1976 393.287 63.1976 394.026 63.7989Z" fill="#0061EF"/>
<path d="M302.054 102.724V92.552L327.558 52.3716H336.328V66.4511H331.138L315.059 91.8957V92.373H351.302V102.724H302.054ZM331.376 113.462V99.6216L331.615 95.1173V52.3716H343.726V113.462H331.376Z" fill="#0061EF"/>
<path d="M272.284 114.357C267.65 114.357 263.643 113.373 260.262 111.404C256.901 109.415 254.306 106.651 252.477 103.111C250.647 99.5516 249.732 95.4252 249.732 90.732C249.732 85.9991 250.647 81.8627 252.477 78.3229C254.306 74.7633 256.901 71.9991 260.262 70.0303C263.643 68.0417 267.65 67.0474 272.284 67.0474C276.917 67.0474 280.914 68.0417 284.275 70.0303C287.656 71.9991 290.261 74.7633 292.09 78.3229C293.92 81.8627 294.835 85.9991 294.835 90.732C294.835 95.4252 293.92 99.5516 292.09 103.111C290.261 106.651 287.656 109.415 284.275 111.404C280.914 113.373 276.917 114.357 272.284 114.357ZM272.343 104.513C274.451 104.513 276.211 103.917 277.623 102.723C279.035 101.51 280.099 99.8599 280.815 97.7718C281.551 95.6837 281.919 93.3073 281.919 90.6425C281.919 87.9778 281.551 85.6013 280.815 83.5133C280.099 81.4252 279.035 79.7746 277.623 78.5616C276.211 77.3485 274.451 76.742 272.343 76.742C270.215 76.742 268.426 77.3485 266.974 78.5616C265.542 79.7746 264.458 81.4252 263.722 83.5133C263.007 85.6013 262.649 87.9778 262.649 90.6425C262.649 93.3073 263.007 95.6837 263.722 97.7718C264.458 99.8599 265.542 101.51 266.974 102.723C268.426 103.917 270.215 104.513 272.343 104.513Z" fill="black"/>
<path d="M228.695 113.462V67.6441H241.402V113.462H228.695ZM235.079 61.7379C233.189 61.7379 231.569 61.1115 230.216 59.8586C228.884 58.5859 228.218 57.0646 228.218 55.2947C228.218 53.5447 228.884 52.0433 230.216 50.7904C231.569 49.5177 233.189 48.8813 235.079 48.8813C236.968 48.8813 238.579 49.5177 239.911 50.7904C241.263 52.0433 241.939 53.5447 241.939 55.2947C241.939 57.0646 241.263 58.5859 239.911 59.8586C238.579 61.1115 236.968 61.7379 235.079 61.7379Z" fill="black"/>
<path d="M192.177 114.208C188.696 114.208 185.544 113.313 182.721 111.524C179.917 109.714 177.689 107.059 176.039 103.559C174.408 100.039 173.593 95.7239 173.593 90.6131C173.593 85.3631 174.438 80.998 176.128 77.5179C177.819 74.0179 180.066 71.4028 182.87 69.6727C185.694 67.9227 188.786 67.0477 192.147 67.0477C194.712 67.0477 196.85 67.4852 198.56 68.3602C200.29 69.2153 201.682 70.2892 202.736 71.5818C203.81 72.8545 204.625 74.1074 205.182 75.3403H205.57V52.3716H218.248V113.462H205.719V106.124H205.182C204.586 107.397 203.74 108.66 202.647 109.913C201.573 111.146 200.171 112.17 198.441 112.985C196.731 113.801 194.642 114.208 192.177 114.208ZM196.204 104.096C198.252 104.096 199.982 103.539 201.394 102.426C202.826 101.292 203.919 99.7111 204.675 97.6827C205.451 95.6543 205.839 93.2778 205.839 90.5534C205.839 87.829 205.461 85.4625 204.705 83.454C203.949 81.4454 202.856 79.8943 201.424 78.8006C199.992 77.7068 198.252 77.1599 196.204 77.1599C194.115 77.1599 192.356 77.7267 190.924 78.8602C189.492 79.9937 188.408 81.5648 187.672 83.5733C186.937 85.5818 186.569 87.9085 186.569 90.5534C186.569 93.2182 186.937 95.5747 187.672 97.623C188.428 99.6514 189.512 101.242 190.924 102.396C192.356 103.529 194.115 104.096 196.204 104.096Z" fill="black"/>
<path d="M152.421 93.9537V67.644H165.129V113.462H152.928V105.14H152.451C151.417 107.824 149.697 109.982 147.29 111.613C144.904 113.243 141.991 114.059 138.55 114.059C135.488 114.059 132.793 113.363 130.467 111.971C128.14 110.579 126.32 108.6 125.008 106.035C123.715 103.469 123.059 100.397 123.039 96.8173V67.644H135.746V94.5503C135.766 97.2548 136.492 99.3926 137.924 100.964C139.356 102.535 141.275 103.32 143.681 103.32C145.212 103.32 146.644 102.972 147.977 102.276C149.309 101.56 150.383 100.506 151.198 99.1142C152.033 97.7222 152.441 96.002 152.421 93.9537Z" fill="black"/>
<path d="M114.761 67.6443V77.1897H87.1689V67.6443H114.761ZM93.4332 56.667H106.141V99.3829C106.141 100.556 106.32 101.471 106.677 102.127C107.035 102.764 107.533 103.211 108.169 103.47C108.825 103.728 109.581 103.857 110.436 103.857C111.033 103.857 111.629 103.808 112.226 103.708C112.822 103.589 113.28 103.499 113.598 103.44L115.597 112.896C114.96 113.095 114.065 113.323 112.912 113.582C111.758 113.86 110.356 114.029 108.706 114.089C105.643 114.208 102.959 113.801 100.652 112.866C98.365 111.931 96.5851 110.479 95.3124 108.511C94.0397 106.542 93.4133 104.056 93.4332 101.053V56.667Z" fill="black"/>
<path d="M81.3449 80.7093L69.7114 81.4252C69.5125 80.4309 69.085 79.536 68.4287 78.7405C67.7725 77.9252 66.9074 77.2789 65.8335 76.8016C64.7796 76.3045 63.5168 76.0559 62.0452 76.0559C60.0764 76.0559 58.4159 76.4735 57.0637 77.3087C55.7114 78.1241 55.0352 79.2178 55.0352 80.59C55.0352 81.6837 55.4727 82.6084 56.3477 83.3641C57.2227 84.1198 58.7242 84.7263 60.852 85.1837L69.1446 86.8542C73.5992 87.769 76.9202 89.2405 79.1077 91.269C81.2952 93.2974 82.3889 95.9621 82.3889 99.2633C82.3889 102.266 81.504 104.901 79.7341 107.168C77.9841 109.435 75.5779 111.205 72.5154 112.478C69.4727 113.731 65.9628 114.357 61.9855 114.357C55.9202 114.357 51.0878 113.094 47.4884 110.569C43.9088 108.023 41.8108 104.563 41.1943 100.188L53.6929 99.5317C54.0708 101.381 54.9855 102.793 56.4372 103.768C57.8889 104.722 59.7483 105.199 62.0154 105.199C64.2426 105.199 66.0324 104.772 67.3847 103.917C68.7568 103.042 69.4529 101.918 69.4727 100.546C69.4529 99.3925 68.9656 98.4479 68.0111 97.7121C67.0566 96.9565 65.585 96.3798 63.5963 95.982L55.6617 94.4011C51.1872 93.5062 47.8563 91.955 45.6688 89.7476C43.5012 87.5403 42.4173 84.7263 42.4173 81.3059C42.4173 78.3627 43.2128 75.8272 44.8037 73.6993C46.4145 71.5715 48.6716 69.9309 51.575 68.7775C54.4983 67.6241 57.9188 67.0474 61.8364 67.0474C67.6233 67.0474 72.1773 68.2704 75.4983 70.7164C78.8392 73.1624 80.7881 76.4934 81.3449 80.7093Z" fill="black"/>
<path d="M547.877 113.462V105.885L570.309 78.1137V77.7856H548.652V67.6436H585.611V75.9063L564.552 102.992V103.32H586.387V113.462H547.877Z" fill="black"/>
<path d="M519.517 114.357C514.824 114.357 510.787 113.363 507.406 111.374C504.045 109.366 501.46 106.581 499.65 103.022C497.861 99.4621 496.966 95.3655 496.966 90.732C496.966 86.0388 497.871 81.9224 499.68 78.3826C501.51 74.8229 504.105 72.0488 507.466 70.0601C510.827 68.0516 514.824 67.0474 519.457 67.0474C523.454 67.0474 526.954 67.7732 529.957 69.2249C532.96 70.6766 535.337 72.715 537.087 75.34C538.837 77.965 539.801 81.0474 539.98 84.5871H527.989C527.65 82.3002 526.756 80.4607 525.304 79.0687C523.872 77.6567 521.993 76.9508 519.666 76.9508C517.697 76.9508 515.977 77.4877 514.506 78.5616C513.054 79.6155 511.92 81.1567 511.105 83.1851C510.29 85.2136 509.882 87.6695 509.882 90.553C509.882 93.4763 510.28 95.9621 511.075 98.0104C511.891 100.059 513.034 101.62 514.506 102.694C515.977 103.768 517.697 104.304 519.666 104.304C521.118 104.304 522.42 104.006 523.574 103.41C524.747 102.813 525.712 101.948 526.467 100.814C527.243 99.661 527.75 98.2789 527.989 96.6681H539.98C539.781 100.168 538.827 103.25 537.116 105.915C535.426 108.56 533.089 110.628 530.106 112.12C527.123 113.611 523.594 114.357 519.517 114.357Z" fill="black"/>
<path d="M481.224 114.238C479.255 114.238 477.564 113.542 476.153 112.149C474.76 110.738 474.064 109.047 474.064 107.078C474.064 105.13 474.76 103.459 476.153 102.067C477.564 100.675 479.255 99.979 481.224 99.979C483.133 99.979 484.803 100.675 486.235 102.067C487.667 103.459 488.383 105.13 488.383 107.078C488.383 108.391 488.045 109.594 487.368 110.688C486.712 111.762 485.847 112.627 484.773 113.283C483.699 113.919 482.516 114.238 481.224 114.238Z" fill="black"/>
<line x1="612.887" y1="53.6191" x2="612.887" y2="109.619" stroke="black" stroke-width="3"/>
<path d="M640.722 74.6191L638.614 59.3464H641.08L642.432 71.0396H642.591L647.801 59.3464H650.307L651.58 70.9998H651.739L656.989 59.3464H659.455L652.256 74.6191H649.949L648.557 62.8862H648.319L643.029 74.6191H640.722ZM665.856 74.9373C664.391 74.9373 663.181 74.6125 662.227 73.9629C661.272 73.3066 660.606 72.3919 660.228 71.2186C659.85 70.0386 659.79 68.6665 660.049 67.1021C660.308 65.5377 660.821 64.1589 661.59 62.9657C662.359 61.7659 663.317 60.8313 664.464 60.1618C665.611 59.4856 666.87 59.1475 668.242 59.1475C669.038 59.1475 669.803 59.2801 670.539 59.5453C671.275 59.8104 671.911 60.2413 672.448 60.8379C672.985 61.4279 673.36 62.21 673.572 63.1845C673.784 64.1589 673.771 65.3587 673.532 66.7839L673.373 67.7782H661.6L661.918 65.7498H671.305C671.457 64.8881 671.417 64.1191 671.185 63.443C670.96 62.7669 670.566 62.2332 670.002 61.8422C669.445 61.4511 668.739 61.2555 667.884 61.2555C667.003 61.2555 666.181 61.4941 665.418 61.9714C664.656 62.4421 664.02 63.0386 663.509 63.7612C662.999 64.4771 662.681 65.2063 662.555 65.9487L662.276 67.6987C662.077 68.9648 662.107 69.9724 662.366 70.7214C662.631 71.4705 663.092 72.0107 663.748 72.3422C664.404 72.667 665.226 72.8294 666.214 72.8294C666.844 72.8294 667.424 72.7432 667.954 72.5708C668.484 72.3919 668.958 72.1267 669.376 71.7754C669.793 71.4174 670.145 70.9733 670.43 70.443L672.577 71.0794C672.213 71.8483 671.699 72.5244 671.036 73.1078C670.38 73.6845 669.611 74.1352 668.729 74.46C667.854 74.7782 666.897 74.9373 665.856 74.9373ZM676.162 74.6191L679.543 54.2555H681.889L680.656 61.7725H680.855C681.067 61.5074 681.362 61.1693 681.74 60.7583C682.118 60.3407 682.625 59.9695 683.261 59.6447C683.898 59.3133 684.713 59.1475 685.707 59.1475C686.993 59.1475 688.071 59.469 688.939 60.112C689.814 60.755 690.427 61.6665 690.778 62.8464C691.136 64.0263 691.183 65.4184 690.918 67.0225C690.652 68.64 690.145 70.042 689.396 71.2285C688.654 72.4084 687.739 73.3232 686.652 73.9728C685.571 74.6158 684.395 74.9373 683.122 74.9373C682.141 74.9373 681.382 74.7749 680.845 74.4501C680.315 74.1187 679.924 73.7441 679.672 73.3265C679.427 72.9023 679.238 72.551 679.105 72.2725H678.827L678.429 74.6191H676.162ZM679.741 66.9828C679.556 68.1362 679.559 69.1537 679.751 70.0353C679.944 70.9103 680.325 71.5964 680.895 72.0936C681.465 72.5841 682.221 72.8294 683.162 72.8294C684.143 72.8294 685.005 72.5708 685.747 72.0538C686.49 71.5301 687.099 70.8275 687.577 69.9458C688.054 69.0576 688.385 68.0699 688.571 66.9828C688.743 65.9089 688.737 64.9411 688.551 64.0794C688.372 63.211 687.994 62.5249 687.418 62.0211C686.848 61.5107 686.065 61.2555 685.071 61.2555C684.116 61.2555 683.271 61.4975 682.536 61.9814C681.806 62.4586 681.203 63.1281 680.726 63.9899C680.255 64.845 679.927 65.8426 679.741 66.9828ZM698.982 74.9373C697.702 74.9373 696.628 74.6158 695.76 73.9728C694.892 73.3232 694.278 72.4084 693.92 71.2285C693.569 70.042 693.526 68.64 693.791 67.0225C694.063 65.4184 694.57 64.0263 695.312 62.8464C696.062 61.6665 696.98 60.755 698.067 60.112C699.154 59.469 700.34 59.1475 701.626 59.1475C702.621 59.1475 703.38 59.3133 703.903 59.6447C704.434 59.9695 704.818 60.3407 705.057 60.7583C705.295 61.1693 705.478 61.5074 705.604 61.7725H705.803L707.055 54.2555H709.402L706.021 74.6191H703.754L704.152 72.2725H703.874C703.655 72.551 703.35 72.9023 702.959 73.3265C702.568 73.7441 702.051 74.1187 701.408 74.4501C700.771 74.7749 699.963 74.9373 698.982 74.9373ZM699.558 72.8294C700.5 72.8294 701.341 72.5841 702.084 72.0936C702.833 71.5964 703.456 70.9103 703.953 70.0353C704.45 69.1537 704.795 68.1362 704.987 66.9828C705.179 65.8426 705.173 64.845 704.967 63.9899C704.762 63.1281 704.367 62.4586 703.784 61.9814C703.201 61.4975 702.429 61.2555 701.467 61.2555C700.48 61.2555 699.621 61.5107 698.892 62.0211C698.163 62.5249 697.57 63.211 697.112 64.0794C696.655 64.9411 696.337 65.9089 696.158 66.9828C695.979 68.0699 695.975 69.0576 696.148 69.9458C696.32 70.8275 696.685 71.5301 697.241 72.0538C697.805 72.5708 698.577 72.8294 699.558 72.8294ZM716.989 74.9373C715.524 74.9373 714.314 74.6125 713.359 73.9629C712.405 73.3066 711.739 72.3919 711.361 71.2186C710.983 70.0386 710.923 68.6665 711.182 67.1021C711.44 65.5377 711.954 64.1589 712.723 62.9657C713.492 61.7659 714.45 60.8313 715.597 60.1618C716.743 59.4856 718.003 59.1475 719.375 59.1475C720.17 59.1475 720.936 59.2801 721.672 59.5453C722.408 59.8104 723.044 60.2413 723.581 60.8379C724.118 61.4279 724.492 62.21 724.705 63.1845C724.917 64.1589 724.903 65.3587 724.665 66.7839L724.506 67.7782H712.733L713.051 65.7498H722.438C722.59 64.8881 722.55 64.1191 722.318 63.443C722.093 62.7669 721.698 62.2332 721.135 61.8422C720.578 61.4511 719.872 61.2555 719.017 61.2555C718.135 61.2555 717.313 61.4941 716.551 61.9714C715.789 62.4421 715.152 63.0386 714.642 63.7612C714.132 64.4771 713.813 65.2063 713.688 65.9487L713.409 67.6987C713.21 68.9648 713.24 69.9724 713.499 70.7214C713.764 71.4705 714.224 72.0107 714.881 72.3422C715.537 72.667 716.359 72.8294 717.347 72.8294C717.976 72.8294 718.556 72.7432 719.087 72.5708C719.617 72.3919 720.091 72.1267 720.509 71.7754C720.926 71.4174 721.277 70.9733 721.562 70.443L723.71 71.0794C723.346 71.8483 722.832 72.5244 722.169 73.1078C721.513 73.6845 720.744 74.1352 719.862 74.46C718.987 74.7782 718.029 74.9373 716.989 74.9373ZM739.783 62.7669L737.556 63.3635C737.477 63.0055 737.337 62.6608 737.138 62.3294C736.946 61.9913 736.648 61.7162 736.244 61.5041C735.846 61.2853 735.302 61.176 734.613 61.176C733.678 61.176 732.866 61.3914 732.177 61.8223C731.487 62.2465 731.093 62.7868 730.994 63.443C730.894 64.0197 731.027 64.4804 731.391 64.8251C731.756 65.1698 732.366 65.4515 733.221 65.6703L735.408 66.2271C736.721 66.5652 737.656 67.0723 738.212 67.7484C738.776 68.4179 738.968 69.2896 738.789 70.3635C738.643 71.2385 738.262 72.0207 737.646 72.71C737.029 73.3994 736.24 73.943 735.279 74.3407C734.318 74.7385 733.247 74.9373 732.067 74.9373C730.496 74.9373 729.257 74.5993 728.349 73.9231C727.441 73.2404 726.957 72.2527 726.897 70.96L729.244 70.4032C729.303 71.2186 729.595 71.835 730.119 72.2527C730.649 72.6636 731.391 72.8691 732.346 72.8691C733.44 72.8691 734.351 72.6371 735.08 72.1731C735.809 71.7025 736.224 71.139 736.323 70.4828C736.423 69.9458 736.317 69.4984 736.005 69.1404C735.7 68.7825 735.17 68.514 734.414 68.335L731.988 67.7385C730.636 67.4004 729.688 66.8833 729.144 66.1873C728.607 65.4913 728.428 64.6163 728.607 63.5623C728.753 62.7006 729.124 61.9383 729.721 61.2754C730.324 60.6125 731.08 60.0922 731.988 59.7143C732.903 59.3365 733.897 59.1475 734.971 59.1475C736.482 59.1475 737.612 59.479 738.362 60.1419C739.111 60.7981 739.585 61.6731 739.783 62.7669ZM741.605 74.6191L744.151 59.3464H746.498L743.952 74.6191H741.605ZM746.04 56.7612C745.583 56.7612 745.188 56.6054 744.857 56.2939C744.532 55.9823 744.37 55.6078 744.37 55.1703C744.37 54.7328 744.532 54.3582 744.857 54.0467C745.188 53.7351 745.583 53.5794 746.04 53.5794C746.498 53.5794 746.889 53.7351 747.213 54.0467C747.545 54.3582 747.711 54.7328 747.711 55.1703C747.711 55.6078 747.545 55.9823 747.213 56.2939C746.889 56.6054 746.498 56.7612 746.04 56.7612ZM753.46 80.6646C752.32 80.6646 751.366 80.5188 750.597 80.2271C749.828 79.9421 749.211 79.5642 748.747 79.0936C748.283 78.6296 747.932 78.1324 747.693 77.6021L749.801 76.2896C749.96 76.568 750.166 76.8862 750.418 77.2441C750.67 77.6087 751.051 77.9236 751.561 78.1887C752.078 78.4605 752.804 78.5964 753.739 78.5964C754.965 78.5964 756.039 78.2981 756.96 77.7015C757.882 77.1049 758.452 76.1703 758.67 74.8975L759.148 71.7953H758.949C758.737 72.0737 758.442 72.4184 758.064 72.8294C757.686 73.2337 757.179 73.595 756.543 73.9132C755.906 74.2247 755.091 74.3805 754.097 74.3805C752.857 74.3805 751.796 74.0888 750.915 73.5055C750.033 72.9222 749.4 72.0737 749.016 70.96C748.638 69.8464 748.581 68.4941 748.847 66.9032C749.105 65.3388 749.602 63.9766 750.338 62.8166C751.08 61.6499 751.995 60.7484 753.082 60.112C754.17 59.469 755.356 59.1475 756.642 59.1475C757.636 59.1475 758.399 59.3133 758.929 59.6447C759.466 59.9695 759.857 60.3407 760.102 60.7583C760.348 61.1693 760.533 61.5074 760.659 61.7725H760.898L761.295 59.3464H763.562L760.977 75.0566C760.759 76.3691 760.285 77.4364 759.555 78.2583C758.826 79.0869 757.931 79.6935 756.871 80.0779C755.81 80.469 754.673 80.6646 753.46 80.6646ZM754.693 72.2725C755.628 72.2725 756.46 72.0571 757.189 71.6262C757.925 71.1954 758.535 70.5756 759.018 69.7669C759.502 68.9582 759.837 67.9904 760.023 66.8635C760.208 65.7631 760.195 64.792 759.983 63.9501C759.771 63.1083 759.37 62.4487 758.78 61.9714C758.196 61.4941 757.431 61.2555 756.483 61.2555C755.482 61.2555 754.617 61.5074 753.888 62.0112C753.165 62.515 752.579 63.1911 752.128 64.0396C751.677 64.8881 751.366 65.8294 751.193 66.8635C751.021 67.9241 751.027 68.862 751.213 69.6774C751.399 70.4861 751.777 71.1225 752.347 71.5865C752.923 72.0439 753.705 72.2725 754.693 72.2725ZM769.17 65.4316L767.659 74.6191H765.312L767.858 59.3464H770.125L769.727 61.7328H769.926C770.403 60.9572 771.05 60.3341 771.865 59.8635C772.68 59.3862 773.665 59.1475 774.818 59.1475C775.839 59.1475 776.701 59.3597 777.403 59.7839C778.113 60.2015 778.613 60.8379 778.905 61.693C779.203 62.5415 779.246 63.6154 779.034 64.9146L777.403 74.6191H775.057L776.648 65.0737C776.847 63.8805 776.691 62.9458 776.18 62.2697C775.677 61.5936 774.878 61.2555 773.784 61.2555C773.028 61.2555 772.329 61.4179 771.686 61.7427C771.05 62.0675 770.509 62.5415 770.065 63.1646C769.628 63.7877 769.33 64.5434 769.17 65.4316ZM643.426 108.937C641.988 108.937 640.808 108.599 639.887 107.923C638.972 107.247 638.336 106.316 637.978 105.129C637.62 103.943 637.567 102.587 637.819 101.062C638.07 99.5112 638.581 98.1423 639.35 96.9558C640.119 95.7626 641.077 94.8313 642.223 94.1618C643.37 93.4856 644.633 93.1475 646.012 93.1475C647.086 93.1475 648.02 93.3464 648.816 93.7441C649.611 94.1419 650.224 94.6987 650.655 95.4146C651.086 96.1305 651.288 96.9657 651.262 97.9203H648.915C648.849 97.2243 648.551 96.6078 648.02 96.0708C647.497 95.5273 646.721 95.2555 645.694 95.2555C644.779 95.2555 643.937 95.4941 643.168 95.9714C642.399 96.4421 641.753 97.1082 641.229 97.97C640.705 98.8251 640.351 99.8294 640.165 100.983C639.966 102.163 639.983 103.19 640.215 104.065C640.447 104.94 640.868 105.62 641.478 106.104C642.087 106.587 642.856 106.829 643.784 106.829C644.394 106.829 644.964 106.723 645.495 106.511C646.025 106.299 646.496 105.994 646.907 105.596C647.318 105.199 647.642 104.721 647.881 104.165H650.228C649.936 105.066 649.469 105.878 648.826 106.601C648.183 107.317 647.404 107.887 646.489 108.311C645.574 108.729 644.553 108.937 643.426 108.937ZM652.902 108.619L655.448 93.3464H657.715L657.317 95.7328H657.516C657.973 94.9174 658.593 94.2844 659.375 93.8336C660.164 93.3762 661.056 93.1475 662.05 93.1475C663.044 93.1475 663.843 93.3762 664.446 93.8336C665.05 94.2844 665.471 94.9174 665.709 95.7328H665.868C666.385 94.9373 667.075 94.3076 667.936 93.8436C668.805 93.3796 669.786 93.1475 670.88 93.1475C672.232 93.1475 673.273 93.5751 674.002 94.4302C674.738 95.2853 674.956 96.6078 674.658 98.3975L672.948 108.619H670.601L672.311 98.3975C672.49 97.264 672.311 96.4586 671.775 95.9814C671.244 95.4975 670.561 95.2555 669.726 95.2555C668.652 95.2555 667.767 95.577 667.071 96.22C666.375 96.863 665.948 97.6816 665.789 98.676L664.118 108.619H661.732L663.482 98.1589C663.621 97.2839 663.455 96.5813 662.985 96.051C662.514 95.5207 661.831 95.2555 660.936 95.2555C660.327 95.2555 659.73 95.4212 659.147 95.7527C658.563 96.0775 658.063 96.5282 657.645 97.1049C657.228 97.675 656.959 98.3313 656.84 99.0737L655.249 108.619H652.902ZM690.045 96.7669L687.818 97.3635C687.738 97.0055 687.599 96.6608 687.4 96.3294C687.208 95.9913 686.91 95.7162 686.505 95.5041C686.108 95.2853 685.564 95.176 684.875 95.176C683.94 95.176 683.128 95.3914 682.439 95.8223C681.749 96.2465 681.355 96.7868 681.255 97.443C681.156 98.0197 681.288 98.4804 681.653 98.8251C682.018 99.1698 682.627 99.4515 683.483 99.6703L685.67 100.227C686.983 100.565 687.917 101.072 688.474 101.748C689.038 102.418 689.23 103.29 689.051 104.363C688.905 105.238 688.524 106.021 687.907 106.71C687.291 107.399 686.502 107.943 685.541 108.341C684.58 108.738 683.509 108.937 682.329 108.937C680.758 108.937 679.519 108.599 678.61 107.923C677.702 107.24 677.218 106.253 677.159 104.96L679.505 104.403C679.565 105.219 679.857 105.835 680.38 106.253C680.911 106.664 681.653 106.869 682.608 106.869C683.701 106.869 684.613 106.637 685.342 106.173C686.071 105.702 686.485 105.139 686.585 104.483C686.684 103.946 686.578 103.498 686.267 103.14C685.962 102.782 685.431 102.514 684.676 102.335L682.25 101.738C680.897 101.4 679.949 100.883 679.406 100.187C678.869 99.4913 678.69 98.6163 678.869 97.5623C679.015 96.7006 679.386 95.9383 679.983 95.2754C680.586 94.6125 681.342 94.0922 682.25 93.7143C683.164 93.3365 684.159 93.1475 685.233 93.1475C686.744 93.1475 687.874 93.479 688.623 94.1419C689.372 94.7981 689.846 95.6731 690.045 96.7669ZM695.844 105.835L695.487 106.909C695.248 107.665 694.943 108.473 694.572 109.335C694.201 110.197 693.833 111.009 693.468 111.771C693.103 112.533 692.808 113.14 692.583 113.591H690.793C690.939 113.166 691.138 112.606 691.39 111.91C691.642 111.214 691.91 110.439 692.195 109.584C692.48 108.729 692.742 107.85 692.981 106.949L693.299 105.835H695.844ZM712.044 108.977C711.077 108.977 710.228 108.795 709.499 108.43C708.77 108.059 708.23 107.525 707.878 106.829C707.527 106.127 707.431 105.278 707.59 104.284C707.742 103.409 708.037 102.7 708.475 102.156C708.912 101.606 709.443 101.175 710.066 100.863C710.695 100.545 711.372 100.31 712.094 100.157C712.823 99.9984 713.549 99.8758 714.272 99.7896C715.213 99.6703 715.979 99.5775 716.569 99.5112C717.158 99.4449 717.603 99.3355 717.901 99.1831C718.199 99.0306 718.382 98.7688 718.448 98.3975V98.318C718.607 97.3436 718.478 96.5846 718.06 96.041C717.642 95.4908 716.897 95.2157 715.823 95.2157C714.709 95.2157 713.778 95.461 713.029 95.9515C712.28 96.4421 711.726 96.9657 711.368 97.5225L709.3 96.7271C709.844 95.7991 710.493 95.0765 711.249 94.5595C712.005 94.0358 712.797 93.6712 713.625 93.4657C714.454 93.2536 715.253 93.1475 716.022 93.1475C716.512 93.1475 717.066 93.2072 717.682 93.3265C718.299 93.4392 718.875 93.6745 719.412 94.0325C719.956 94.3904 720.364 94.9307 720.635 95.6532C720.914 96.3758 720.953 97.3436 720.755 98.5566L719.084 108.619H716.738L717.096 106.551H716.976C716.764 106.882 716.439 107.237 716.002 107.615C715.571 107.993 715.024 108.314 714.361 108.579C713.705 108.845 712.933 108.977 712.044 108.977ZM712.721 106.869C713.649 106.869 714.461 106.687 715.157 106.322C715.859 105.958 716.423 105.487 716.847 104.91C717.278 104.334 717.546 103.727 717.652 103.091L718.01 100.943C717.891 101.062 717.656 101.172 717.304 101.271C716.953 101.364 716.555 101.447 716.111 101.52C715.674 101.586 715.246 101.646 714.828 101.699C714.417 101.745 714.086 101.785 713.834 101.818C713.211 101.898 712.618 102.027 712.054 102.206C711.498 102.378 711.027 102.64 710.642 102.991C710.265 103.336 710.029 103.807 709.936 104.403C709.797 105.219 709.993 105.835 710.523 106.253C711.053 106.664 711.786 106.869 712.721 106.869ZM722.413 114.346L725.933 93.3464H728.2L727.802 95.7725H728.08C728.292 95.5074 728.584 95.1693 728.955 94.7583C729.333 94.3407 729.84 93.9695 730.477 93.6447C731.12 93.3133 731.938 93.1475 732.933 93.1475C734.219 93.1475 735.296 93.469 736.164 94.112C737.032 94.755 737.646 95.6665 738.004 96.8464C738.362 98.0263 738.408 99.4184 738.143 101.023C737.878 102.64 737.371 104.042 736.621 105.229C735.872 106.408 734.958 107.323 733.877 107.973C732.797 108.616 731.62 108.937 730.347 108.937C729.366 108.937 728.607 108.775 728.07 108.45C727.533 108.119 727.142 107.744 726.897 107.327C726.652 106.902 726.463 106.551 726.33 106.273H726.131L724.779 114.346H722.413ZM726.967 100.983C726.781 102.136 726.781 103.154 726.967 104.035C727.159 104.91 727.54 105.596 728.11 106.094C728.687 106.584 729.446 106.829 730.387 106.829C731.368 106.829 732.227 106.571 732.962 106.054C733.705 105.53 734.315 104.827 734.792 103.946C735.276 103.058 735.611 102.07 735.796 100.983C735.969 99.9089 735.962 98.9411 735.776 98.0794C735.591 97.211 735.213 96.5249 734.643 96.0211C734.073 95.5107 733.29 95.2555 732.296 95.2555C731.342 95.2555 730.496 95.4975 729.761 95.9814C729.031 96.4586 728.428 97.1281 727.951 97.9899C727.48 98.845 727.152 99.8426 726.967 100.983ZM746.184 88.2555L742.804 108.619H740.457L743.838 88.2555H746.184ZM747.102 108.619L749.647 93.3464H751.994L749.448 108.619H747.102ZM751.536 90.7612C751.079 90.7612 750.684 90.6054 750.353 90.2939C750.028 89.9823 749.866 89.6078 749.866 89.1703C749.866 88.7328 750.028 88.3582 750.353 88.0467C750.684 87.7351 751.079 87.5794 751.536 87.5794C751.994 87.5794 752.385 87.7351 752.71 88.0467C753.041 88.3582 753.207 88.7328 753.207 89.1703C753.207 89.6078 753.041 89.9823 752.71 90.2939C752.385 90.6054 751.994 90.7612 751.536 90.7612ZM756.848 103.051L757.286 100.148H757.763L765.598 93.3464H768.502L760.189 100.545H759.99L756.848 103.051ZM753.746 108.619L757.127 88.2555H759.473L756.093 108.619H753.746ZM763.451 108.619L758.757 101.062L760.667 99.4316L766.434 108.619H763.451ZM773.431 108.977C772.463 108.977 771.615 108.795 770.886 108.43C770.156 108.059 769.616 107.525 769.265 106.829C768.914 106.127 768.817 105.278 768.977 104.284C769.129 103.409 769.424 102.7 769.862 102.156C770.299 101.606 770.829 101.175 771.452 100.863C772.082 100.545 772.758 100.31 773.481 100.157C774.21 99.9984 774.936 99.8758 775.658 99.7896C776.6 99.6703 777.365 99.5775 777.955 99.5112C778.545 99.4449 778.989 99.3355 779.288 99.1831C779.586 99.0306 779.768 98.7688 779.835 98.3975V98.318C779.994 97.3436 779.864 96.5846 779.447 96.041C779.029 95.4908 778.283 95.2157 777.21 95.2157C776.096 95.2157 775.165 95.461 774.415 95.9515C773.666 96.4421 773.113 96.9657 772.755 97.5225L770.687 96.7271C771.23 95.7991 771.88 95.0765 772.636 94.5595C773.391 94.0358 774.183 93.6712 775.012 93.4657C775.841 93.2536 776.639 93.1475 777.408 93.1475C777.899 93.1475 778.452 93.2072 779.069 93.3265C779.685 93.4392 780.262 93.6745 780.799 94.0325C781.343 94.3904 781.75 94.9307 782.022 95.6532C782.3 96.3758 782.34 97.3436 782.141 98.5566L780.471 108.619H778.124L778.482 106.551H778.363C778.151 106.882 777.826 107.237 777.388 107.615C776.958 107.993 776.411 108.314 775.748 108.579C775.092 108.845 774.319 108.977 773.431 108.977ZM774.107 106.869C775.035 106.869 775.847 106.687 776.543 106.322C777.246 105.958 777.809 105.487 778.234 104.91C778.665 104.334 778.933 103.727 779.039 103.091L779.397 100.943C779.278 101.062 779.042 101.172 778.691 101.271C778.34 101.364 777.942 101.447 777.498 101.52C777.06 101.586 776.633 101.646 776.215 101.699C775.804 101.745 775.473 101.785 775.221 101.818C774.598 101.898 774.004 102.027 773.441 102.206C772.884 102.378 772.414 102.64 772.029 102.991C771.651 103.336 771.416 103.807 771.323 104.403C771.184 105.219 771.379 105.835 771.91 106.253C772.44 106.664 773.173 106.869 774.107 106.869ZM790.919 108.937C789.48 108.937 788.3 108.599 787.379 107.923C786.464 107.247 785.828 106.316 785.47 105.129C785.112 103.943 785.059 102.587 785.311 101.062C785.563 99.5112 786.073 98.1423 786.842 96.9558C787.611 95.7626 788.569 94.8313 789.716 94.1618C790.862 93.4856 792.125 93.1475 793.504 93.1475C794.578 93.1475 795.512 93.3464 796.308 93.7441C797.103 94.1419 797.717 94.6987 798.147 95.4146C798.578 96.1305 798.78 96.9657 798.754 97.9203H796.407C796.341 97.2243 796.043 96.6078 795.512 96.0708C794.989 95.5273 794.213 95.2555 793.186 95.2555C792.271 95.2555 791.429 95.4941 790.66 95.9714C789.891 96.4421 789.245 97.1082 788.721 97.97C788.198 98.8251 787.843 99.8294 787.657 100.983C787.458 102.163 787.475 103.19 787.707 104.065C787.939 104.94 788.36 105.62 788.97 106.104C789.58 106.587 790.349 106.829 791.277 106.829C791.886 106.829 792.457 106.723 792.987 106.511C793.517 106.299 793.988 105.994 794.399 105.596C794.81 105.199 795.135 104.721 795.373 104.165H797.72C797.428 105.066 796.961 105.878 796.318 106.601C795.675 107.317 794.896 107.887 793.981 108.311C793.066 108.729 792.046 108.937 790.919 108.937ZM806.758 108.937C805.293 108.937 804.083 108.613 803.129 107.963C802.174 107.307 801.508 106.392 801.13 105.219C800.752 104.039 800.693 102.666 800.951 101.102C801.21 99.5377 801.724 98.1589 802.493 96.9657C803.261 95.7659 804.219 94.8313 805.366 94.1618C806.513 93.4856 807.772 93.1475 809.145 93.1475C809.94 93.1475 810.706 93.2801 811.441 93.5453C812.177 93.8104 812.814 94.2413 813.35 94.8379C813.887 95.4279 814.262 96.21 814.474 97.1845C814.686 98.1589 814.673 99.3587 814.434 100.784L814.275 101.778H802.502L802.821 99.7498H812.207C812.359 98.8881 812.32 98.1191 812.088 97.443C811.862 96.7669 811.468 96.2332 810.904 95.8422C810.348 95.4511 809.642 95.2555 808.787 95.2555C807.905 95.2555 807.083 95.4941 806.321 95.9714C805.558 96.4421 804.922 97.0386 804.412 97.7612C803.901 98.4771 803.583 99.2063 803.457 99.9487L803.179 101.699C802.98 102.965 803.01 103.972 803.268 104.721C803.533 105.47 803.994 106.011 804.65 106.342C805.306 106.667 806.128 106.829 807.116 106.829C807.746 106.829 808.326 106.743 808.856 106.571C809.386 106.392 809.86 106.127 810.278 105.775C810.696 105.417 811.047 104.973 811.332 104.443L813.48 105.079C813.115 105.848 812.601 106.524 811.939 107.108C811.282 107.684 810.513 108.135 809.632 108.46C808.757 108.778 807.799 108.937 806.758 108.937Z" fill="black"/>
</svg>
