<svg width="627" height="225" viewBox="0 0 627 225" fill="none" xmlns="http://www.w3.org/2000/svg">
<path d="M416.718 99.407V89.2351L442.222 49.0547H450.992V63.1342H445.802L429.723 88.5788V89.0561H465.966V99.407H416.718ZM446.04 110.146V96.3047L446.279 91.8004V49.0547H458.39V110.146H446.04Z" fill="#0061EF"/>
<path d="M410.704 78.0721C410.704 71.1608 407.958 64.5324 403.071 59.6454C398.184 54.7583 391.556 52.0127 384.644 52.0127C377.733 52.0127 371.105 54.7583 366.218 59.6454C361.331 64.5324 358.585 71.1608 358.585 78.0721C358.585 84.9835 361.331 91.6118 366.218 96.4989C371.105 101.386 377.733 104.132 384.644 104.132C391.556 104.132 398.184 101.386 403.071 96.4989C407.958 91.6118 410.704 84.9835 410.704 78.0721ZM352.571 78.0721C352.571 69.5658 355.95 61.4079 361.965 55.393C367.98 49.3781 376.138 45.999 384.644 45.999C393.151 45.999 401.309 49.3781 407.324 55.393C413.338 61.4079 416.718 69.5658 416.718 78.0721C416.718 86.5785 413.338 94.7364 407.324 100.751C401.309 106.766 393.151 110.145 384.644 110.145C376.138 110.145 367.98 106.766 361.965 100.751C355.95 94.7364 352.571 86.5785 352.571 78.0721ZM393.928 60.482C394.655 61.0709 394.88 62.0982 394.454 62.9376L387.889 76.0676H396.672C397.524 76.0676 398.288 76.6063 398.564 77.4081C398.839 78.21 398.589 79.0995 397.925 79.6382L377.879 95.6748C377.14 96.2636 376.1 96.2636 375.361 95.6622C374.622 95.0609 374.409 94.0461 374.822 93.2066L381.4 80.0767H372.617C371.765 80.0767 371.013 79.538 370.725 78.7362C370.437 77.9343 370.7 77.0448 371.364 76.5061L391.41 60.4695C392.149 59.8807 393.189 59.8807 393.928 60.482Z" fill="#0061EF"/>
<path d="M301.956 99.407V89.2351L327.46 49.0547H336.23V63.1342H331.04L314.962 88.5788V89.0561H351.205V99.407H301.956ZM331.279 110.146V96.3047L331.517 91.8004V49.0547H343.628V110.146H331.279Z" fill="#0061EF"/>
<path d="M272.186 111.04C267.552 111.04 263.545 110.056 260.165 108.087C256.804 106.098 254.209 103.334 252.379 99.7944C250.55 96.2347 249.635 92.1083 249.635 87.4151C249.635 82.6822 250.55 78.5458 252.379 75.006C254.209 71.4464 256.804 68.6822 260.165 66.7134C263.545 64.7248 267.552 63.7305 272.186 63.7305C276.819 63.7305 280.817 64.7248 284.177 66.7134C287.558 68.6822 290.163 71.4464 291.993 75.006C293.822 78.5458 294.737 82.6822 294.737 87.4151C294.737 92.1083 293.822 96.2347 291.993 99.7944C290.163 103.334 287.558 106.098 284.177 108.087C280.817 110.056 276.819 111.04 272.186 111.04ZM272.246 101.196C274.354 101.196 276.113 100.6 277.525 99.4066C278.937 98.1935 280.001 96.543 280.717 94.4549C281.453 92.3668 281.821 89.9904 281.821 87.3256C281.821 84.6609 281.453 82.2844 280.717 80.1964C280.001 78.1083 278.937 76.4577 277.525 75.2447C276.113 74.0316 274.354 73.4251 272.246 73.4251C270.118 73.4251 268.328 74.0316 266.876 75.2447C265.444 76.4577 264.361 78.1083 263.625 80.1964C262.909 82.2844 262.551 84.6609 262.551 87.3256C262.551 89.9904 262.909 92.3668 263.625 94.4549C264.361 96.543 265.444 98.1935 266.876 99.4066C268.328 100.6 270.118 101.196 272.246 101.196Z" fill="black"/>
<path d="M228.597 110.145V64.3272H241.305V110.145H228.597ZM234.981 58.421C233.092 58.421 231.471 57.7946 230.119 56.5417C228.786 55.269 228.12 53.7477 228.12 51.9778C228.12 50.2278 228.786 48.7264 230.119 47.4735C231.471 46.2008 233.092 45.5645 234.981 45.5645C236.87 45.5645 238.481 46.2008 239.813 47.4735C241.166 48.7264 241.842 50.2278 241.842 51.9778C241.842 53.7477 241.166 55.269 239.813 56.5417C238.481 57.7946 236.87 58.421 234.981 58.421Z" fill="black"/>
<path d="M192.079 110.891C188.599 110.891 185.447 109.996 182.623 108.207C179.819 106.397 177.592 103.742 175.941 100.242C174.31 96.7223 173.495 92.407 173.495 87.2962C173.495 82.0462 174.34 77.6811 176.031 74.201C177.721 70.701 179.968 68.0859 182.772 66.3558C185.596 64.6058 188.688 63.7308 192.049 63.7308C194.614 63.7308 196.752 64.1683 198.462 65.0433C200.193 65.8984 201.585 66.9723 202.639 68.2649C203.712 69.5376 204.528 70.7905 205.085 72.0234H205.472V49.0547H218.15V110.146H205.622V102.808H205.085C204.488 104.08 203.643 105.343 202.549 106.596C201.475 107.829 200.073 108.853 198.343 109.668C196.633 110.484 194.545 110.891 192.079 110.891ZM196.106 100.779C198.154 100.779 199.884 100.222 201.296 99.1087C202.728 97.9751 203.822 96.3942 204.577 94.3658C205.353 92.3374 205.741 89.9609 205.741 87.2365C205.741 84.5121 205.363 82.1456 204.607 80.1371C203.852 78.1286 202.758 76.5774 201.326 75.4837C199.894 74.3899 198.154 73.843 196.106 73.843C194.018 73.843 192.258 74.4098 190.826 75.5433C189.394 76.6768 188.31 78.2479 187.575 80.2564C186.839 82.2649 186.471 84.5916 186.471 87.2365C186.471 89.9013 186.839 92.2578 187.575 94.3061C188.33 96.3345 189.414 97.9254 190.826 99.0788C192.258 100.212 194.018 100.779 196.106 100.779Z" fill="black"/>
<path d="M152.324 90.6368V64.3271H165.031V110.145H152.831V101.823H152.353C151.319 104.508 149.599 106.665 147.193 108.296C144.806 109.927 141.893 110.742 138.453 110.742C135.39 110.742 132.696 110.046 130.369 108.654C128.042 107.262 126.223 105.283 124.91 102.718C123.618 100.152 122.961 97.08 122.941 93.5004V64.3271H135.649V91.2334C135.669 93.9379 136.395 96.0757 137.826 97.6468C139.258 99.2178 141.177 100.003 143.583 100.003C145.115 100.003 146.547 99.6553 147.879 98.9593C149.211 98.2433 150.285 97.1894 151.1 95.7973C151.936 94.4053 152.343 92.6851 152.324 90.6368Z" fill="black"/>
<path d="M114.664 64.3274V73.8728H87.0713V64.3274H114.664ZM93.3355 53.3501H106.043V96.066C106.043 97.2393 106.222 98.1541 106.58 98.8103C106.938 99.4467 107.435 99.8941 108.071 100.153C108.728 100.411 109.483 100.54 110.338 100.54C110.935 100.54 111.532 100.491 112.128 100.391C112.725 100.272 113.182 100.182 113.5 100.123L115.499 109.579C114.862 109.778 113.968 110.006 112.814 110.265C111.661 110.543 110.259 110.712 108.608 110.772C105.546 110.891 102.861 110.484 100.554 109.549C98.2673 108.614 96.4875 107.163 95.2148 105.194C93.942 103.225 93.3156 100.739 93.3355 97.7365V53.3501Z" fill="black"/>
<path d="M81.2472 77.3924L69.6137 78.1083C69.4149 77.114 68.9873 76.2191 68.3311 75.4236C67.6748 74.6083 66.8097 73.962 65.7359 73.4847C64.6819 72.9876 63.4191 72.739 61.9475 72.739C59.9788 72.739 58.3183 73.1566 56.966 73.9918C55.6137 74.8072 54.9376 75.9009 54.9376 77.2731C54.9376 78.3668 55.3751 79.2915 56.2501 80.0472C57.1251 80.8029 58.6265 81.4094 60.7544 81.8668L69.047 83.5373C73.5015 84.4521 76.8225 85.9236 79.01 87.9521C81.1975 89.9805 82.2913 92.6452 82.2913 95.9464C82.2913 98.9492 81.4063 101.584 79.6365 103.851C77.8865 106.118 75.4802 107.888 72.4177 109.161C69.3751 110.414 65.8651 111.04 61.8879 111.04C55.8225 111.04 50.9901 109.777 47.3907 107.252C43.8112 104.706 41.7132 101.246 41.0967 96.8711L53.5953 96.2148C53.9731 98.0643 54.8879 99.4762 56.3396 100.451C57.7913 101.405 59.6507 101.882 61.9177 101.882C64.145 101.882 65.9347 101.455 67.287 100.6C68.6592 99.7248 69.3552 98.6012 69.3751 97.229C69.3552 96.0756 68.868 95.131 67.9134 94.3952C66.9589 93.6396 65.4873 93.0629 63.4987 92.6651L55.564 91.0842C51.0896 90.1893 47.7586 88.6381 45.5711 86.4308C43.4035 84.2234 42.3197 81.4094 42.3197 77.989C42.3197 75.0458 43.1151 72.5103 44.7061 70.3825C46.3169 68.2546 48.574 66.614 51.4774 65.4606C54.4007 64.3072 57.8211 63.7305 61.7387 63.7305C67.5257 63.7305 72.0796 64.9535 75.4007 67.3995C78.7416 69.8455 80.6904 73.1765 81.2472 77.3924Z" fill="black"/>
<path d="M547.779 110.145V102.568L570.211 74.7968V74.4687H548.555V64.3267H585.514V72.5894L564.454 99.6747V100.003H586.289V110.145H547.779Z" fill="black"/>
<path d="M519.419 111.04C514.726 111.04 510.689 110.046 507.309 108.057C503.948 106.049 501.362 103.265 499.553 99.7049C497.763 96.1452 496.868 92.0486 496.868 87.4151C496.868 82.7219 497.773 78.6055 499.583 75.0657C501.412 71.506 504.007 68.7319 507.368 66.7432C510.729 64.7347 514.726 63.7305 519.36 63.7305C523.357 63.7305 526.857 64.4563 529.86 65.908C532.862 67.3597 535.239 69.3981 536.989 72.0231C538.739 74.6481 539.703 77.7305 539.882 81.2702H527.891C527.553 78.9833 526.658 77.1438 525.206 75.7518C523.774 74.3398 521.895 73.6339 519.568 73.6339C517.6 73.6339 515.88 74.1708 514.408 75.2447C512.956 76.2986 511.823 77.8398 511.007 79.8683C510.192 81.8967 509.784 84.3526 509.784 87.2361C509.784 90.1594 510.182 92.6452 510.978 94.6935C511.793 96.7418 512.936 98.3029 514.408 99.3768C515.88 100.451 517.6 100.988 519.568 100.988C521.02 100.988 522.323 100.689 523.476 100.093C524.649 99.4961 525.614 98.631 526.37 97.4975C527.145 96.3441 527.652 94.962 527.891 93.3512H539.882C539.684 96.8512 538.729 99.9336 537.019 102.598C535.328 105.243 532.992 107.311 530.009 108.803C527.026 110.294 523.496 111.04 519.419 111.04Z" fill="black"/>
<path d="M481.126 110.921C479.157 110.921 477.467 110.225 476.055 108.833C474.663 107.421 473.967 105.73 473.967 103.762C473.967 101.813 474.663 100.142 476.055 98.7502C477.467 97.3581 479.157 96.6621 481.126 96.6621C483.035 96.6621 484.705 97.3581 486.137 98.7502C487.569 100.142 488.285 101.813 488.285 103.762C488.285 105.074 487.947 106.277 487.271 107.371C486.615 108.445 485.749 109.31 484.676 109.966C483.602 110.602 482.418 110.921 481.126 110.921Z" fill="black"/>
<line x1="41.0967" y1="118.54" x2="586.289" y2="118.54" stroke="black" stroke-width="3"/>
<path d="M47.4447 169.04L44.358 146.676H47.9688L49.949 163.799H50.1819L57.8112 146.676H61.4802L63.3438 163.74H63.5768L71.2643 146.676H74.8751L64.3339 169.04H60.9561L58.9177 151.86H58.5683L50.8225 169.04H47.4447ZM84.2479 169.506C82.1027 169.506 80.3313 169.03 78.9336 168.079C77.5359 167.118 76.5604 165.779 76.0071 164.061C75.4538 162.333 75.3665 160.324 75.745 158.033C76.1236 155.742 76.8758 153.723 78.0018 151.976C79.1277 150.219 80.5303 148.851 82.2095 147.87C83.8887 146.88 85.733 146.385 87.7422 146.385C88.907 146.385 90.0281 146.579 91.1055 146.968C92.1829 147.356 93.1147 147.987 93.9009 148.86C94.6871 149.724 95.2356 150.87 95.5462 152.296C95.8568 153.723 95.8374 155.48 95.4879 157.567L95.255 159.023H78.0163L78.4822 156.053H92.2266C92.4498 154.791 92.3916 153.665 92.0518 152.675C91.7218 151.685 91.1443 150.904 90.3192 150.331C89.5039 149.758 88.4702 149.472 87.218 149.472C85.9271 149.472 84.7235 149.821 83.6072 150.52C82.491 151.209 81.5592 152.083 80.8118 153.141C80.0644 154.189 79.5985 155.257 79.4141 156.344L79.0064 158.907C78.7152 160.76 78.7589 162.236 79.1374 163.333C79.5257 164.429 80.2003 165.221 81.1612 165.706C82.1222 166.181 83.3258 166.419 84.772 166.419C85.6941 166.419 86.5434 166.293 87.32 166.041C88.0965 165.779 88.7905 165.39 89.402 164.876C90.0135 164.352 90.5279 163.701 90.9453 162.925L94.0902 163.857C93.5563 164.983 92.8041 165.973 91.8335 166.827C90.8725 167.671 89.7466 168.331 88.4556 168.807C87.1744 169.273 85.7718 169.506 84.2479 169.506ZM99.339 169.04L104.289 139.222H107.725L105.92 150.229H106.211C106.522 149.841 106.954 149.346 107.507 148.744C108.06 148.132 108.803 147.589 109.735 147.113C110.666 146.628 111.86 146.385 113.316 146.385C115.199 146.385 116.777 146.856 118.048 147.797C119.329 148.739 120.227 150.074 120.742 151.801C121.266 153.529 121.334 155.568 120.945 157.916C120.557 160.285 119.815 162.338 118.718 164.075C117.631 165.803 116.291 167.142 114.699 168.094C113.117 169.035 111.394 169.506 109.531 169.506C108.094 169.506 106.983 169.268 106.197 168.793C105.42 168.307 104.847 167.759 104.479 167.147C104.119 166.526 103.843 166.012 103.649 165.604H103.241L102.659 169.04H99.339ZM104.58 157.858C104.309 159.547 104.314 161.037 104.595 162.328C104.876 163.609 105.435 164.614 106.269 165.342C107.104 166.06 108.211 166.419 109.589 166.419C111.026 166.419 112.287 166.041 113.374 165.284C114.462 164.517 115.355 163.488 116.053 162.197C116.752 160.896 117.238 159.45 117.509 157.858C117.762 156.286 117.752 154.869 117.48 153.607C117.218 152.335 116.665 151.331 115.82 150.593C114.986 149.846 113.84 149.472 112.384 149.472C110.987 149.472 109.749 149.826 108.672 150.535C107.604 151.234 106.721 152.214 106.022 153.476C105.333 154.728 104.852 156.189 104.58 157.858ZM132.753 169.506C130.88 169.506 129.308 169.035 128.036 168.094C126.765 167.142 125.867 165.803 125.343 164.075C124.828 162.338 124.765 160.285 125.153 157.916C125.551 155.568 126.294 153.529 127.381 151.801C128.478 150.074 129.822 148.739 131.414 147.797C133.006 146.856 134.743 146.385 136.626 146.385C138.082 146.385 139.194 146.628 139.96 147.113C140.737 147.589 141.3 148.132 141.649 148.744C141.999 149.346 142.266 149.841 142.45 150.229H142.741L144.576 139.222H148.012L143.062 169.04H139.742L140.324 165.604H139.917C139.596 166.012 139.15 166.526 138.577 167.147C138.005 167.759 137.247 168.307 136.306 168.793C135.374 169.268 134.19 169.506 132.753 169.506ZM133.598 166.419C134.976 166.419 136.209 166.06 137.296 165.342C138.393 164.614 139.305 163.609 140.033 162.328C140.761 161.037 141.266 159.547 141.547 157.858C141.829 156.189 141.819 154.728 141.518 153.476C141.217 152.214 140.64 151.234 139.786 150.535C138.932 149.826 137.801 149.472 136.393 149.472C134.947 149.472 133.69 149.846 132.622 150.593C131.555 151.331 130.686 152.335 130.016 153.607C129.346 154.869 128.881 156.286 128.618 157.858C128.356 159.45 128.352 160.896 128.604 162.197C128.856 163.488 129.39 164.517 130.205 165.284C131.03 166.041 132.161 166.419 133.598 166.419ZM159.121 169.506C156.976 169.506 155.204 169.03 153.807 168.079C152.409 167.118 151.433 165.779 150.88 164.061C150.327 162.333 150.24 160.324 150.618 158.033C150.997 155.742 151.749 153.723 152.875 151.976C154.001 150.219 155.403 148.851 157.083 147.87C158.762 146.88 160.606 146.385 162.615 146.385C163.78 146.385 164.901 146.579 165.979 146.968C167.056 147.356 167.988 147.987 168.774 148.86C169.56 149.724 170.109 150.87 170.419 152.296C170.73 153.723 170.71 155.48 170.361 157.567L170.128 159.023H152.889L153.355 156.053H167.1C167.323 154.791 167.265 153.665 166.925 152.675C166.595 151.685 166.017 150.904 165.192 150.331C164.377 149.758 163.343 149.472 162.091 149.472C160.8 149.472 159.597 149.821 158.48 150.52C157.364 151.209 156.432 152.083 155.685 153.141C154.937 154.189 154.472 155.257 154.287 156.344L153.879 158.907C153.588 160.76 153.632 162.236 154.01 163.333C154.399 164.429 155.073 165.221 156.034 165.706C156.995 166.181 158.199 166.419 159.645 166.419C160.567 166.419 161.416 166.293 162.193 166.041C162.97 165.779 163.664 165.39 164.275 164.876C164.887 164.352 165.401 163.701 165.818 162.925L168.963 163.857C168.429 164.983 167.677 165.973 166.706 166.827C165.746 167.671 164.62 168.331 163.329 168.807C162.047 169.273 160.645 169.506 159.121 169.506ZM192.499 151.685L189.238 152.559C189.121 152.034 188.917 151.53 188.626 151.044C188.345 150.549 187.908 150.146 187.316 149.836C186.733 149.516 185.937 149.355 184.928 149.355C183.559 149.355 182.37 149.671 181.361 150.302C180.351 150.923 179.774 151.714 179.628 152.675C179.483 153.519 179.677 154.194 180.211 154.699C180.744 155.204 181.637 155.616 182.89 155.936L186.093 156.752C188.015 157.247 189.383 157.989 190.199 158.979C191.024 159.96 191.305 161.236 191.043 162.809C190.829 164.09 190.271 165.235 189.369 166.245C188.466 167.254 187.311 168.05 185.903 168.632C184.496 169.215 182.928 169.506 181.201 169.506C178.9 169.506 177.085 169.011 175.755 168.021C174.426 167.021 173.717 165.575 173.63 163.682L177.066 162.867C177.153 164.061 177.58 164.963 178.347 165.575C179.123 166.177 180.211 166.478 181.608 166.478C183.21 166.478 184.545 166.138 185.612 165.458C186.68 164.769 187.287 163.944 187.432 162.983C187.578 162.197 187.422 161.542 186.966 161.018C186.52 160.494 185.743 160.1 184.637 159.838L181.084 158.965C179.104 158.47 177.716 157.713 176.92 156.693C176.134 155.674 175.872 154.393 176.134 152.85C176.347 151.588 176.891 150.472 177.765 149.501C178.648 148.53 179.754 147.768 181.084 147.215C182.424 146.662 183.88 146.385 185.452 146.385C187.665 146.385 189.32 146.871 190.417 147.841C191.514 148.802 192.208 150.083 192.499 151.685ZM195.167 169.04L198.894 146.676H202.33L198.603 169.04H195.167ZM201.661 142.891C200.991 142.891 200.413 142.663 199.928 142.207C199.452 141.75 199.215 141.202 199.215 140.561C199.215 139.921 199.452 139.372 199.928 138.916C200.413 138.46 200.991 138.232 201.661 138.232C202.33 138.232 202.903 138.46 203.379 138.916C203.864 139.372 204.107 139.921 204.107 140.561C204.107 141.202 203.864 141.75 203.379 142.207C202.903 142.663 202.33 142.891 201.661 142.891ZM212.526 177.892C210.856 177.892 209.459 177.679 208.333 177.252C207.207 176.834 206.304 176.281 205.624 175.592C204.945 174.912 204.431 174.184 204.081 173.408L207.168 171.486C207.401 171.894 207.702 172.36 208.07 172.884C208.439 173.418 208.997 173.879 209.745 174.267C210.502 174.665 211.565 174.864 212.933 174.864C214.729 174.864 216.302 174.427 217.651 173.554C219 172.68 219.835 171.311 220.155 169.448L220.854 164.905H220.563C220.252 165.313 219.82 165.818 219.267 166.419C218.714 167.011 217.971 167.54 217.039 168.006C216.107 168.463 214.914 168.691 213.458 168.691C211.642 168.691 210.089 168.264 208.798 167.409C207.508 166.555 206.581 165.313 206.018 163.682C205.464 162.051 205.382 160.071 205.77 157.742C206.149 155.451 206.877 153.456 207.954 151.758C209.041 150.049 210.381 148.729 211.972 147.797C213.564 146.856 215.302 146.385 217.185 146.385C218.641 146.385 219.757 146.628 220.534 147.113C221.32 147.589 221.892 148.132 222.252 148.744C222.611 149.346 222.883 149.841 223.067 150.229H223.416L223.999 146.676H227.318L223.533 169.681C223.213 171.603 222.519 173.165 221.451 174.369C220.383 175.582 219.073 176.47 217.52 177.033C215.967 177.606 214.302 177.892 212.526 177.892ZM214.331 165.604C215.7 165.604 216.918 165.289 217.986 164.658C219.063 164.027 219.956 163.119 220.665 161.935C221.373 160.751 221.863 159.334 222.135 157.684C222.407 156.072 222.387 154.65 222.077 153.418C221.766 152.185 221.179 151.219 220.315 150.52C219.461 149.821 218.34 149.472 216.952 149.472C215.486 149.472 214.22 149.841 213.152 150.578C212.094 151.316 211.235 152.306 210.575 153.549C209.915 154.791 209.459 156.169 209.206 157.684C208.954 159.237 208.963 160.61 209.235 161.804C209.507 162.988 210.06 163.92 210.895 164.599C211.74 165.269 212.885 165.604 214.331 165.604ZM235.53 155.587L233.317 169.04H229.881L233.608 146.676H236.928L236.345 150.171H236.637C237.335 149.035 238.282 148.123 239.476 147.434C240.67 146.735 242.111 146.385 243.8 146.385C245.295 146.385 246.557 146.696 247.585 147.317C248.624 147.929 249.357 148.86 249.784 150.112C250.221 151.355 250.284 152.927 249.973 154.83L247.585 169.04H244.149L246.479 155.063C246.77 153.316 246.542 151.947 245.795 150.957C245.057 149.967 243.887 149.472 242.286 149.472C241.179 149.472 240.155 149.71 239.214 150.185C238.282 150.661 237.491 151.355 236.84 152.267C236.2 153.18 235.763 154.286 235.53 155.587ZM309.016 169.506C306.91 169.506 305.182 169.011 303.833 168.021C302.494 167.031 301.562 165.667 301.038 163.93C300.513 162.192 300.436 160.207 300.805 157.975C301.173 155.703 301.921 153.699 303.047 151.962C304.173 150.214 305.575 148.851 307.255 147.87C308.934 146.88 310.783 146.385 312.802 146.385C314.374 146.385 315.743 146.676 316.908 147.259C318.072 147.841 318.97 148.657 319.601 149.705C320.232 150.753 320.528 151.976 320.489 153.374H317.053C316.956 152.355 316.519 151.452 315.743 150.666C314.976 149.87 313.84 149.472 312.336 149.472C310.996 149.472 309.764 149.821 308.638 150.52C307.512 151.209 306.565 152.185 305.799 153.447C305.032 154.699 304.512 156.169 304.241 157.858C303.949 159.586 303.974 161.09 304.313 162.372C304.653 163.653 305.27 164.648 306.163 165.356C307.056 166.065 308.181 166.419 309.54 166.419C310.433 166.419 311.268 166.264 312.045 165.953C312.821 165.643 313.51 165.196 314.112 164.614C314.714 164.032 315.19 163.333 315.539 162.517H318.975C318.548 163.837 317.864 165.026 316.922 166.084C315.981 167.133 314.84 167.967 313.501 168.589C312.161 169.2 310.666 169.506 309.016 169.506ZM322.892 169.04L326.619 146.676H329.938L329.356 150.171H329.647C330.317 148.977 331.225 148.05 332.37 147.39C333.525 146.72 334.831 146.385 336.286 146.385C337.742 146.385 338.912 146.72 339.795 147.39C340.679 148.05 341.295 148.977 341.644 150.171H341.877C342.634 149.006 343.644 148.084 344.906 147.404C346.177 146.725 347.614 146.385 349.215 146.385C351.196 146.385 352.719 147.011 353.787 148.263C354.865 149.516 355.185 151.452 354.748 154.073L352.244 169.04H348.808L351.312 154.073C351.574 152.413 351.312 151.234 350.526 150.535C349.749 149.826 348.75 149.472 347.527 149.472C345.954 149.472 344.658 149.943 343.639 150.884C342.62 151.826 341.994 153.024 341.761 154.48L339.315 169.04H335.821L338.383 153.723C338.587 152.442 338.344 151.413 337.655 150.637C336.966 149.86 335.966 149.472 334.656 149.472C333.763 149.472 332.889 149.715 332.035 150.2C331.181 150.675 330.448 151.335 329.837 152.18C329.225 153.015 328.832 153.976 328.657 155.063L326.328 169.04H322.892ZM377.279 151.685L374.018 152.559C373.901 152.034 373.698 151.53 373.406 151.044C373.125 150.549 372.688 150.146 372.096 149.836C371.514 149.516 370.718 149.355 369.708 149.355C368.34 149.355 367.151 149.671 366.141 150.302C365.132 150.923 364.554 151.714 364.408 152.675C364.263 153.519 364.457 154.194 364.991 154.699C365.525 155.204 366.418 155.616 367.67 155.936L370.873 156.752C372.795 157.247 374.163 157.989 374.979 158.979C375.804 159.96 376.085 161.236 375.823 162.809C375.61 164.09 375.052 165.235 374.149 166.245C373.246 167.254 372.091 168.05 370.684 168.632C369.276 169.215 367.709 169.506 365.981 169.506C363.68 169.506 361.865 169.011 360.536 168.021C359.206 167.021 358.497 165.575 358.41 163.682L361.846 162.867C361.933 164.061 362.36 164.963 363.127 165.575C363.904 166.177 364.991 166.478 366.389 166.478C367.99 166.478 369.325 166.138 370.392 165.458C371.46 164.769 372.067 163.944 372.212 162.983C372.358 162.197 372.203 161.542 371.747 161.018C371.3 160.494 370.524 160.1 369.417 159.838L365.864 158.965C363.884 158.47 362.496 157.713 361.7 156.693C360.914 155.674 360.652 154.393 360.914 152.85C361.128 151.588 361.671 150.472 362.545 149.501C363.428 148.53 364.535 147.768 365.864 147.215C367.204 146.662 368.66 146.385 370.232 146.385C372.445 146.385 374.1 146.871 375.197 147.841C376.294 148.802 376.988 150.083 377.279 151.685ZM432.595 169.564C431.178 169.564 429.935 169.297 428.868 168.763C427.8 168.22 427.009 167.438 426.494 166.419C425.98 165.39 425.839 164.148 426.072 162.692C426.296 161.411 426.727 160.372 427.368 159.576C428.009 158.771 428.785 158.14 429.698 157.684C430.62 157.218 431.61 156.873 432.668 156.65C433.735 156.417 434.798 156.237 435.856 156.111C437.235 155.936 438.356 155.8 439.22 155.703C440.084 155.606 440.734 155.446 441.171 155.223C441.607 155 441.874 154.616 441.971 154.073V153.956C442.204 152.529 442.015 151.418 441.404 150.622C440.792 149.816 439.7 149.414 438.128 149.414C436.497 149.414 435.133 149.773 434.036 150.491C432.94 151.209 432.129 151.976 431.605 152.791L428.577 151.627C429.372 150.268 430.324 149.21 431.43 148.453C432.537 147.686 433.697 147.152 434.91 146.851C436.123 146.541 437.293 146.385 438.419 146.385C439.137 146.385 439.948 146.473 440.85 146.647C441.753 146.812 442.597 147.157 443.384 147.681C444.18 148.205 444.777 148.996 445.175 150.054C445.582 151.112 445.64 152.529 445.349 154.306L442.903 169.04H439.467L439.991 166.012H439.817C439.506 166.497 439.03 167.016 438.39 167.57C437.759 168.123 436.958 168.594 435.987 168.982C435.026 169.37 433.896 169.564 432.595 169.564ZM433.585 166.478C434.944 166.478 436.133 166.211 437.152 165.677C438.181 165.143 439.006 164.454 439.627 163.609C440.258 162.765 440.651 161.877 440.807 160.945L441.331 157.8C441.156 157.975 440.811 158.135 440.297 158.28C439.783 158.416 439.2 158.538 438.55 158.644C437.909 158.742 437.283 158.829 436.672 158.907C436.07 158.974 435.585 159.033 435.216 159.081C434.303 159.198 433.435 159.387 432.61 159.649C431.794 159.901 431.105 160.285 430.542 160.799C429.989 161.304 429.644 161.993 429.508 162.867C429.305 164.061 429.591 164.963 430.367 165.575C431.144 166.177 432.216 166.478 433.585 166.478ZM447.777 177.426L452.931 146.676H456.251L455.668 150.229H456.076C456.387 149.841 456.814 149.346 457.357 148.744C457.911 148.132 458.653 147.589 459.585 147.113C460.526 146.628 461.725 146.385 463.181 146.385C465.064 146.385 466.642 146.856 467.913 147.797C469.185 148.739 470.082 150.074 470.607 151.801C471.131 153.529 471.199 155.568 470.81 157.916C470.422 160.285 469.68 162.338 468.583 164.075C467.486 165.803 466.147 167.142 464.564 168.094C462.982 169.035 461.259 169.506 459.396 169.506C457.959 169.506 456.848 169.268 456.062 168.793C455.275 168.307 454.703 167.759 454.343 167.147C453.984 166.526 453.708 166.012 453.514 165.604H453.222L451.242 177.426H447.777ZM454.445 157.858C454.174 159.547 454.174 161.037 454.445 162.328C454.727 163.609 455.285 164.614 456.12 165.342C456.964 166.06 458.076 166.419 459.454 166.419C460.89 166.419 462.147 166.041 463.225 165.284C464.312 164.517 465.205 163.488 465.904 162.197C466.612 160.896 467.103 159.45 467.374 157.858C467.627 156.286 467.617 154.869 467.345 153.607C467.073 152.335 466.52 151.331 465.685 150.593C464.851 149.846 463.705 149.472 462.249 149.472C460.852 149.472 459.614 149.826 458.537 150.535C457.469 151.234 456.586 152.214 455.887 153.476C455.198 154.728 454.717 156.189 454.445 157.858ZM482.586 139.222L477.635 169.04H474.199L479.15 139.222H482.586ZM483.929 169.04L487.656 146.676H491.092L487.365 169.04H483.929ZM490.422 142.891C489.753 142.891 489.175 142.663 488.69 142.207C488.214 141.75 487.976 141.202 487.976 140.561C487.976 139.921 488.214 139.372 488.69 138.916C489.175 138.46 489.753 138.232 490.422 138.232C491.092 138.232 491.665 138.46 492.14 138.916C492.626 139.372 492.868 139.921 492.868 140.561C492.868 141.202 492.626 141.75 492.14 142.207C491.665 142.663 491.092 142.891 490.422 142.891ZM498.201 160.887L498.841 156.635H499.54L511.013 146.676H515.265L503.093 157.218H502.802L498.201 160.887ZM493.658 169.04L498.608 139.222H502.045L497.094 169.04H493.658ZM507.868 169.04L500.996 157.975L503.792 155.587L512.236 169.04H507.868ZM522.483 169.564C521.066 169.564 519.823 169.297 518.755 168.763C517.688 168.22 516.897 167.438 516.382 166.419C515.868 165.39 515.727 164.148 515.96 162.692C516.183 161.411 516.615 160.372 517.256 159.576C517.896 158.771 518.673 158.14 519.585 157.684C520.507 157.218 521.497 156.873 522.555 156.65C523.623 156.417 524.686 156.237 525.744 156.111C527.122 155.936 528.243 155.8 529.107 155.703C529.971 155.606 530.622 155.446 531.058 155.223C531.495 155 531.762 154.616 531.859 154.073V153.956C532.092 152.529 531.903 151.418 531.291 150.622C530.68 149.816 529.588 149.414 528.015 149.414C526.385 149.414 525.021 149.773 523.924 150.491C522.827 151.209 522.017 151.976 521.493 152.791L518.464 151.627C519.26 150.268 520.211 149.21 521.318 148.453C522.424 147.686 523.584 147.152 524.798 146.851C526.011 146.541 527.181 146.385 528.307 146.385C529.025 146.385 529.835 146.473 530.738 146.647C531.641 146.812 532.485 147.157 533.271 147.681C534.067 148.205 534.664 148.996 535.062 150.054C535.47 151.112 535.528 152.529 535.237 154.306L532.791 169.04H529.355L529.879 166.012H529.704C529.394 166.497 528.918 167.016 528.277 167.57C527.647 168.123 526.846 168.594 525.875 168.982C524.914 169.37 523.783 169.564 522.483 169.564ZM523.473 166.478C524.832 166.478 526.021 166.211 527.04 165.677C528.069 165.143 528.894 164.454 529.515 163.609C530.146 162.765 530.539 161.877 530.694 160.945L531.218 157.8C531.044 157.975 530.699 158.135 530.185 158.28C529.67 158.416 529.088 158.538 528.438 158.644C527.797 158.742 527.171 158.829 526.559 158.907C525.958 158.974 525.472 159.033 525.103 159.081C524.191 159.198 523.322 159.387 522.497 159.649C521.682 159.901 520.993 160.285 520.43 160.799C519.877 161.304 519.532 161.993 519.396 162.867C519.192 164.061 519.479 164.963 520.255 165.575C521.032 166.177 522.104 166.478 523.473 166.478ZM548.089 169.506C545.983 169.506 544.255 169.011 542.906 168.021C541.567 167.031 540.635 165.667 540.111 163.93C539.587 162.192 539.509 160.207 539.878 157.975C540.247 155.703 540.994 153.699 542.12 151.962C543.246 150.214 544.649 148.851 546.328 147.87C548.007 146.88 549.856 146.385 551.875 146.385C553.447 146.385 554.816 146.676 555.981 147.259C557.146 147.841 558.043 148.657 558.674 149.705C559.305 150.753 559.601 151.976 559.562 153.374H556.126C556.029 152.355 555.593 151.452 554.816 150.666C554.049 149.87 552.914 149.472 551.409 149.472C550.07 149.472 548.837 149.821 547.711 150.52C546.585 151.209 545.639 152.185 544.872 153.447C544.105 154.699 543.586 156.169 543.314 157.858C543.023 159.586 543.047 161.09 543.387 162.372C543.726 163.653 544.343 164.648 545.236 165.356C546.129 166.065 547.255 166.419 548.614 166.419C549.507 166.419 550.341 166.264 551.118 165.953C551.894 165.643 552.584 165.196 553.185 164.614C553.787 164.032 554.263 163.333 554.612 162.517H558.048C557.621 163.837 556.937 165.026 555.995 166.084C555.054 167.133 553.913 167.967 552.574 168.589C551.234 169.2 549.74 169.506 548.089 169.506ZM571.283 169.506C569.138 169.506 567.366 169.03 565.969 168.079C564.571 167.118 563.596 165.779 563.042 164.061C562.489 162.333 562.402 160.324 562.78 158.033C563.159 155.742 563.911 153.723 565.037 151.976C566.163 150.219 567.565 148.851 569.245 147.87C570.924 146.88 572.768 146.385 574.777 146.385C575.942 146.385 577.063 146.579 578.141 146.968C579.218 147.356 580.15 147.987 580.936 148.86C581.722 149.724 582.271 150.87 582.581 152.296C582.892 153.723 582.873 155.48 582.523 157.567L582.29 159.023H565.051L565.517 156.053H579.262C579.485 154.791 579.427 153.665 579.087 152.675C578.757 151.685 578.179 150.904 577.354 150.331C576.539 149.758 575.505 149.472 574.253 149.472C572.962 149.472 571.759 149.821 570.642 150.52C569.526 151.209 568.594 152.083 567.847 153.141C567.1 154.189 566.634 155.257 566.449 156.344L566.042 158.907C565.75 160.76 565.794 162.236 566.173 163.333C566.561 164.429 567.235 165.221 568.196 165.706C569.157 166.181 570.361 166.419 571.807 166.419C572.729 166.419 573.579 166.293 574.355 166.041C575.132 165.779 575.826 165.39 576.437 164.876C577.049 164.352 577.563 163.701 577.98 162.925L581.125 163.857C580.592 164.983 579.839 165.973 578.869 166.827C577.908 167.671 576.782 168.331 575.491 168.807C574.21 169.273 572.807 169.506 571.283 169.506Z" fill="black"/>
</svg>
