<svg width="857" height="163" viewBox="0 0 857 163" fill="none" xmlns="http://www.w3.org/2000/svg">
<path d="M417.621 102.724V92.552L443.125 52.3716H451.895V66.4511H446.705L430.627 91.8957V92.373H466.87V102.724H417.621ZM446.944 113.462V99.6216L447.182 95.1173V52.3716H459.293V113.462H446.944Z" fill="black"/>
<path d="M411.607 81.389C411.607 74.4777 408.862 67.8493 403.975 62.9623C399.087 58.0752 392.459 55.3296 385.548 55.3296C378.636 55.3296 372.008 58.0752 367.121 62.9623C362.234 67.8493 359.488 74.4777 359.488 81.389C359.488 88.3004 362.234 94.9287 367.121 99.8158C372.008 104.703 378.636 107.448 385.548 107.448C392.459 107.448 399.087 104.703 403.975 99.8158C408.862 94.9287 411.607 88.3004 411.607 81.389ZM353.475 81.389C353.475 72.8827 356.854 64.7248 362.869 58.7099C368.883 52.695 377.041 49.3159 385.548 49.3159C394.054 49.3159 402.212 52.695 408.227 58.7099C414.242 64.7248 417.621 72.8827 417.621 81.389C417.621 89.8954 414.242 98.0533 408.227 104.068C402.212 110.083 394.054 113.462 385.548 113.462C377.041 113.462 368.883 110.083 362.869 104.068C356.854 98.0533 353.475 89.8954 353.475 81.389ZM394.831 63.7989C395.558 64.3878 395.784 65.4151 395.358 66.2545L388.793 79.3845H397.575C398.427 79.3845 399.191 79.9232 399.467 80.725C399.743 81.5269 399.492 82.4164 398.828 82.9551L378.782 98.9917C378.043 99.5805 377.003 99.5805 376.264 98.9791C375.525 98.3778 375.312 97.363 375.725 96.5235L382.303 83.3936H373.52C372.668 83.3936 371.917 82.8549 371.628 82.0531C371.34 81.2512 371.603 80.3617 372.267 79.823L392.313 63.7864C393.052 63.1976 394.092 63.1976 394.831 63.7989Z" fill="black"/>
<path d="M302.859 102.724V92.552L328.364 52.3716H337.134V66.4511H331.943L315.865 91.8957V92.373H352.108V102.724H302.859ZM332.182 113.462V99.6216L332.42 95.1173V52.3716H344.531V113.462H332.182Z" fill="black"/>
<path d="M273.089 114.357C268.456 114.357 264.449 113.373 261.068 111.404C257.707 109.415 255.112 106.651 253.282 103.111C251.453 99.5516 250.538 95.4252 250.538 90.732C250.538 85.9991 251.453 81.8627 253.282 78.3229C255.112 74.7633 257.707 71.9991 261.068 70.0303C264.449 68.0417 268.456 67.0474 273.089 67.0474C277.723 67.0474 281.72 68.0417 285.081 70.0303C288.461 71.9991 291.066 74.7633 292.896 78.3229C294.726 81.8627 295.64 85.9991 295.64 90.732C295.64 95.4252 294.726 99.5516 292.896 103.111C291.066 106.651 288.461 109.415 285.081 111.404C281.72 113.373 277.723 114.357 273.089 114.357ZM273.149 104.513C275.257 104.513 277.017 103.917 278.429 102.723C279.841 101.51 280.905 99.8599 281.62 97.7718C282.356 95.6837 282.724 93.3073 282.724 90.6425C282.724 87.9778 282.356 85.6013 281.62 83.5133C280.905 81.4252 279.841 79.7746 278.429 78.5616C277.017 77.3485 275.257 76.742 273.149 76.742C271.021 76.742 269.231 77.3485 267.78 78.5616C266.348 79.7746 265.264 81.4252 264.528 83.5133C263.812 85.6013 263.454 87.9778 263.454 90.6425C263.454 93.3073 263.812 95.6837 264.528 97.7718C265.264 99.8599 266.348 101.51 267.78 102.723C269.231 103.917 271.021 104.513 273.149 104.513Z" fill="black"/>
<path d="M229.501 113.462V67.6441H242.208V113.462H229.501ZM235.884 61.7379C233.995 61.7379 232.374 61.1115 231.022 59.8586C229.69 58.5859 229.023 57.0646 229.023 55.2947C229.023 53.5447 229.69 52.0433 231.022 50.7904C232.374 49.5177 233.995 48.8813 235.884 48.8813C237.773 48.8813 239.384 49.5177 240.717 50.7904C242.069 52.0433 242.745 53.5447 242.745 55.2947C242.745 57.0646 242.069 58.5859 240.717 59.8586C239.384 61.1115 237.773 61.7379 235.884 61.7379Z" fill="black"/>
<path d="M192.982 114.208C189.502 114.208 186.35 113.313 183.526 111.524C180.722 109.714 178.495 107.059 176.844 103.559C175.214 100.039 174.398 95.7239 174.398 90.6131C174.398 85.3631 175.244 80.998 176.934 77.5179C178.624 74.0179 180.871 71.4028 183.675 69.6727C186.499 67.9227 189.592 67.0477 192.952 67.0477C195.518 67.0477 197.656 67.4852 199.366 68.3602C201.096 69.2153 202.488 70.2892 203.542 71.5818C204.616 72.8545 205.431 74.1074 205.988 75.3403H206.376V52.3716H219.053V113.462H206.525V106.124H205.988C205.391 107.397 204.546 108.66 203.452 109.913C202.379 111.146 200.977 112.17 199.246 112.985C197.536 113.801 195.448 114.208 192.982 114.208ZM197.009 104.096C199.058 104.096 200.788 103.539 202.2 102.426C203.631 101.292 204.725 99.7111 205.481 97.6827C206.256 95.6543 206.644 93.2778 206.644 90.5534C206.644 87.829 206.266 85.4625 205.511 83.454C204.755 81.4454 203.661 79.8943 202.229 78.8006C200.798 77.7068 199.058 77.1599 197.009 77.1599C194.921 77.1599 193.161 77.7267 191.729 78.8602C190.298 79.9937 189.214 81.5648 188.478 83.5733C187.742 85.5818 187.374 87.9085 187.374 90.5534C187.374 93.2182 187.742 95.5747 188.478 97.623C189.234 99.6514 190.317 101.242 191.729 102.396C193.161 103.529 194.921 104.096 197.009 104.096Z" fill="black"/>
<path d="M153.227 93.9537V67.644H165.934V113.462H153.734V105.14H153.257C152.223 107.824 150.502 109.982 148.096 111.613C145.71 113.243 142.796 114.059 139.356 114.059C136.294 114.059 133.599 113.363 131.272 111.971C128.946 110.579 127.126 108.6 125.813 106.035C124.521 103.469 123.865 100.397 123.845 96.8173V67.644H136.552V94.5503C136.572 97.2548 137.298 99.3926 138.73 100.964C140.161 102.535 142.081 103.32 144.487 103.32C146.018 103.32 147.45 102.972 148.782 102.276C150.115 101.56 151.188 100.506 152.004 99.1142C152.839 97.7222 153.247 96.002 153.227 93.9537Z" fill="black"/>
<path d="M115.567 67.6443V77.1897H87.9746V67.6443H115.567ZM94.2388 56.667H106.946V99.3829C106.946 100.556 107.125 101.471 107.483 102.127C107.841 102.764 108.338 103.211 108.975 103.47C109.631 103.728 110.387 103.857 111.242 103.857C111.838 103.857 112.435 103.808 113.031 103.708C113.628 103.589 114.085 103.499 114.404 103.44L116.402 112.896C115.766 113.095 114.871 113.323 113.718 113.582C112.564 113.86 111.162 114.029 109.512 114.089C106.449 114.208 103.764 113.801 101.458 112.866C99.1706 111.931 97.3908 110.479 96.1181 108.511C94.8453 106.542 94.2189 104.056 94.2388 101.053V56.667Z" fill="black"/>
<path d="M82.1506 80.7093L70.517 81.4252C70.3182 80.4309 69.8906 79.536 69.2344 78.7405C68.5781 77.9252 67.7131 77.2789 66.6392 76.8016C65.5852 76.3045 64.3224 76.0559 62.8509 76.0559C60.8821 76.0559 59.2216 76.4735 57.8693 77.3087C56.517 78.1241 55.8409 79.2178 55.8409 80.59C55.8409 81.6837 56.2784 82.6084 57.1534 83.3641C58.0284 84.1198 59.5298 84.7263 61.6577 85.1837L69.9503 86.8542C74.4048 87.769 77.7259 89.2405 79.9134 91.269C82.1009 93.2974 83.1946 95.9621 83.1946 99.2633C83.1946 102.266 82.3097 104.901 80.5398 107.168C78.7898 109.435 76.3835 111.205 73.321 112.478C70.2784 113.731 66.7685 114.357 62.7912 114.357C56.7259 114.357 51.8935 113.094 48.294 110.569C44.7145 108.023 42.6165 104.563 42 100.188L54.4986 99.5317C54.8764 101.381 55.7912 102.793 57.2429 103.768C58.6946 104.722 60.554 105.199 62.821 105.199C65.0483 105.199 66.8381 104.772 68.1903 103.917C69.5625 103.042 70.2585 101.918 70.2784 100.546C70.2585 99.3925 69.7713 98.4479 68.8168 97.7121C67.8622 96.9565 66.3906 96.3798 64.402 95.982L56.4673 94.4011C51.9929 93.5062 48.6619 91.955 46.4744 89.7476C44.3068 87.5403 43.223 84.7263 43.223 81.3059C43.223 78.3627 44.0185 75.8272 45.6094 73.6993C47.2202 71.5715 49.4773 69.9309 52.3807 68.7775C55.304 67.6241 58.7244 67.0474 62.642 67.0474C68.429 67.0474 72.983 68.2704 76.304 70.7164C79.6449 73.1624 81.5938 76.4934 82.1506 80.7093Z" fill="black"/>
<path d="M548.682 113.462V105.885L571.113 78.1137V77.7856H549.457V67.6436H586.416V75.9063L565.356 102.992V103.32H587.192V113.462H548.682Z" fill="black"/>
<path d="M520.322 114.357C515.628 114.357 511.592 113.363 508.211 111.374C504.85 109.366 502.265 106.581 500.455 103.022C498.665 99.4621 497.771 95.3655 497.771 90.732C497.771 86.0388 498.675 81.9224 500.485 78.3826C502.315 74.8229 504.91 72.0488 508.271 70.0601C511.631 68.0516 515.628 67.0474 520.262 67.0474C524.259 67.0474 527.759 67.7732 530.762 69.2249C533.765 70.6766 536.141 72.715 537.891 75.34C539.641 77.965 540.606 81.0474 540.785 84.5871H528.793C528.455 82.3002 527.56 80.4607 526.109 79.0687C524.677 77.6567 522.798 76.9508 520.471 76.9508C518.502 76.9508 516.782 77.4877 515.31 78.5616C513.859 79.6155 512.725 81.1567 511.91 83.1851C511.094 85.2136 510.687 87.6695 510.687 90.553C510.687 93.4763 511.084 95.9621 511.88 98.0104C512.695 100.059 513.839 101.62 515.31 102.694C516.782 103.768 518.502 104.304 520.471 104.304C521.923 104.304 523.225 104.006 524.378 103.41C525.552 102.813 526.516 101.948 527.272 100.814C528.048 99.661 528.555 98.2789 528.793 96.6681H540.785C540.586 100.168 539.631 103.25 537.921 105.915C536.231 108.56 533.894 110.628 530.911 112.12C527.928 113.611 524.398 114.357 520.322 114.357Z" fill="black"/>
<path d="M482.028 114.238C480.059 114.238 478.369 113.542 476.957 112.149C475.565 110.738 474.869 109.047 474.869 107.078C474.869 105.13 475.565 103.459 476.957 102.067C478.369 100.675 480.059 99.979 482.028 99.979C483.937 99.979 485.608 100.675 487.04 102.067C488.471 103.459 489.187 105.13 489.187 107.078C489.187 108.391 488.849 109.594 488.173 110.688C487.517 111.762 486.652 112.627 485.578 113.283C484.504 113.919 483.321 114.238 482.028 114.238Z" fill="black"/>
<line x1="613.692" y1="53.6191" x2="613.692" y2="109.619" stroke="black" stroke-width="3"/>
<path d="M641.528 74.6191L639.42 59.3464H641.886L643.238 71.0396H643.397L648.607 59.3464H651.113L652.386 70.9998H652.545L657.795 59.3464H660.261L653.062 74.6191H650.755L649.363 62.8862H649.124L643.834 74.6191H641.528ZM666.661 74.9373C665.197 74.9373 663.987 74.6125 663.032 73.9629C662.078 73.3066 661.411 72.3919 661.034 71.2186C660.656 70.0386 660.596 68.6665 660.855 67.1021C661.113 65.5377 661.627 64.1589 662.396 62.9657C663.165 61.7659 664.123 60.8313 665.269 60.1618C666.416 59.4856 667.676 59.1475 669.048 59.1475C669.843 59.1475 670.609 59.2801 671.345 59.5453C672.081 59.8104 672.717 60.2413 673.254 60.8379C673.791 61.4279 674.165 62.21 674.377 63.1845C674.59 64.1589 674.576 65.3587 674.338 66.7839L674.179 67.7782H662.406L662.724 65.7498H672.11C672.263 64.8881 672.223 64.1191 671.991 63.443C671.766 62.7669 671.371 62.2332 670.808 61.8422C670.251 61.4511 669.545 61.2555 668.69 61.2555C667.808 61.2555 666.986 61.4941 666.224 61.9714C665.462 62.4421 664.825 63.0386 664.315 63.7612C663.804 64.4771 663.486 65.2063 663.36 65.9487L663.082 67.6987C662.883 68.9648 662.913 69.9724 663.171 70.7214C663.437 71.4705 663.897 72.0107 664.554 72.3422C665.21 72.667 666.032 72.8294 667.019 72.8294C667.649 72.8294 668.229 72.7432 668.759 72.5708C669.29 72.3919 669.764 72.1267 670.181 71.7754C670.599 71.4174 670.95 70.9733 671.235 70.443L673.383 71.0794C673.018 71.8483 672.505 72.5244 671.842 73.1078C671.186 73.6845 670.417 74.1352 669.535 74.46C668.66 74.7782 667.702 74.9373 666.661 74.9373ZM676.968 74.6191L680.348 54.2555H682.695L681.462 61.7725H681.661C681.873 61.5074 682.168 61.1693 682.546 60.7583C682.924 60.3407 683.431 59.9695 684.067 59.6447C684.703 59.3133 685.519 59.1475 686.513 59.1475C687.799 59.1475 688.876 59.469 689.745 60.112C690.62 60.755 691.233 61.6665 691.584 62.8464C691.942 64.0263 691.988 65.4184 691.723 67.0225C691.458 68.64 690.951 70.042 690.202 71.2285C689.46 72.4084 688.545 73.3232 687.458 73.9728C686.377 74.6158 685.201 74.9373 683.928 74.9373C682.947 74.9373 682.188 74.7749 681.651 74.4501C681.121 74.1187 680.729 73.7441 680.478 73.3265C680.232 72.9023 680.043 72.551 679.911 72.2725H679.632L679.235 74.6191H676.968ZM680.547 66.9828C680.362 68.1362 680.365 69.1537 680.557 70.0353C680.749 70.9103 681.13 71.5964 681.701 72.0936C682.271 72.5841 683.026 72.8294 683.968 72.8294C684.949 72.8294 685.81 72.5708 686.553 72.0538C687.295 71.5301 687.905 70.8275 688.382 69.9458C688.86 69.0576 689.191 68.0699 689.377 66.9828C689.549 65.9089 689.542 64.9411 689.357 64.0794C689.178 63.211 688.8 62.5249 688.223 62.0211C687.653 61.5107 686.871 61.2555 685.877 61.2555C684.922 61.2555 684.077 61.4975 683.341 61.9814C682.612 62.4586 682.009 63.1281 681.532 63.9899C681.061 64.845 680.733 65.8426 680.547 66.9828ZM699.787 74.9373C698.508 74.9373 697.434 74.6158 696.566 73.9728C695.697 73.3232 695.084 72.4084 694.726 71.2285C694.375 70.042 694.332 68.64 694.597 67.0225C694.869 65.4184 695.376 64.0263 696.118 62.8464C696.867 61.6665 697.785 60.755 698.872 60.112C699.96 59.469 701.146 59.1475 702.432 59.1475C703.426 59.1475 704.185 59.3133 704.709 59.6447C705.239 59.9695 705.624 60.3407 705.862 60.7583C706.101 61.1693 706.283 61.5074 706.409 61.7725H706.608L707.861 54.2555H710.208L706.827 74.6191H704.56L704.958 72.2725H704.679C704.46 72.551 704.156 72.9023 703.764 73.3265C703.373 73.7441 702.856 74.1187 702.213 74.4501C701.577 74.7749 700.768 74.9373 699.787 74.9373ZM700.364 72.8294C701.305 72.8294 702.147 72.5841 702.889 72.0936C703.639 71.5964 704.262 70.9103 704.759 70.0353C705.256 69.1537 705.601 68.1362 705.793 66.9828C705.985 65.8426 705.978 64.845 705.773 63.9899C705.568 63.1281 705.173 62.4586 704.59 61.9814C704.006 61.4975 703.234 61.2555 702.273 61.2555C701.285 61.2555 700.427 61.5107 699.698 62.0211C698.969 62.5249 698.375 63.211 697.918 64.0794C697.46 64.9411 697.142 65.9089 696.963 66.9828C696.784 68.0699 696.781 69.0576 696.953 69.9458C697.126 70.8275 697.49 71.5301 698.047 72.0538C698.611 72.5708 699.383 72.8294 700.364 72.8294ZM717.794 74.9373C716.329 74.9373 715.12 74.6125 714.165 73.9629C713.21 73.3066 712.544 72.3919 712.166 71.2186C711.789 70.0386 711.729 68.6665 711.987 67.1021C712.246 65.5377 712.76 64.1589 713.529 62.9657C714.298 61.7659 715.255 60.8313 716.402 60.1618C717.549 59.4856 718.809 59.1475 720.181 59.1475C720.976 59.1475 721.742 59.2801 722.478 59.5453C723.213 59.8104 723.85 60.2413 724.387 60.8379C724.924 61.4279 725.298 62.21 725.51 63.1845C725.722 64.1589 725.709 65.3587 725.47 66.7839L725.311 67.7782H713.539L713.857 65.7498H723.243C723.396 64.8881 723.356 64.1191 723.124 63.443C722.898 62.7669 722.504 62.2332 721.941 61.8422C721.384 61.4511 720.678 61.2555 719.823 61.2555C718.941 61.2555 718.119 61.4941 717.357 61.9714C716.594 62.4421 715.958 63.0386 715.448 63.7612C714.937 64.4771 714.619 65.2063 714.493 65.9487L714.215 67.6987C714.016 68.9648 714.046 69.9724 714.304 70.7214C714.569 71.4705 715.03 72.0107 715.686 72.3422C716.343 72.667 717.165 72.8294 718.152 72.8294C718.782 72.8294 719.362 72.7432 719.892 72.5708C720.423 72.3919 720.897 72.1267 721.314 71.7754C721.732 71.4174 722.083 70.9733 722.368 70.443L724.516 71.0794C724.151 71.8483 723.638 72.5244 722.975 73.1078C722.318 73.6845 721.55 74.1352 720.668 74.46C719.793 74.7782 718.835 74.9373 717.794 74.9373ZM740.589 62.7669L738.362 63.3635C738.282 63.0055 738.143 62.6608 737.944 62.3294C737.752 61.9913 737.454 61.7162 737.049 61.5041C736.652 61.2853 736.108 61.176 735.419 61.176C734.484 61.176 733.672 61.3914 732.983 61.8223C732.293 62.2465 731.899 62.7868 731.799 63.443C731.7 64.0197 731.832 64.4804 732.197 64.8251C732.562 65.1698 733.171 65.4515 734.027 65.6703L736.214 66.2271C737.527 66.5652 738.461 67.0723 739.018 67.7484C739.581 68.4179 739.774 69.2896 739.595 70.3635C739.449 71.2385 739.068 72.0207 738.451 72.71C737.835 73.3994 737.046 73.943 736.085 74.3407C735.124 74.7385 734.053 74.9373 732.873 74.9373C731.302 74.9373 730.063 74.5993 729.154 73.9231C728.246 73.2404 727.762 72.2527 727.703 70.96L730.049 70.4032C730.109 71.2186 730.401 71.835 730.924 72.2527C731.455 72.6636 732.197 72.8691 733.152 72.8691C734.245 72.8691 735.157 72.6371 735.886 72.1731C736.615 71.7025 737.029 71.139 737.129 70.4828C737.228 69.9458 737.122 69.4984 736.811 69.1404C736.506 68.7825 735.975 68.514 735.22 68.335L732.794 67.7385C731.441 67.4004 730.493 66.8833 729.95 66.1873C729.413 65.4913 729.234 64.6163 729.413 63.5623C729.559 62.7006 729.93 61.9383 730.527 61.2754C731.13 60.6125 731.885 60.0922 732.794 59.7143C733.708 59.3365 734.703 59.1475 735.777 59.1475C737.288 59.1475 738.418 59.479 739.167 60.1419C739.916 60.7981 740.39 61.6731 740.589 62.7669ZM742.411 74.6191L744.957 59.3464H747.303L744.758 74.6191H742.411ZM746.846 56.7612C746.388 56.7612 745.994 56.6054 745.663 56.2939C745.338 55.9823 745.175 55.6078 745.175 55.1703C745.175 54.7328 745.338 54.3582 745.663 54.0467C745.994 53.7351 746.388 53.5794 746.846 53.5794C747.303 53.5794 747.694 53.7351 748.019 54.0467C748.351 54.3582 748.516 54.7328 748.516 55.1703C748.516 55.6078 748.351 55.9823 748.019 56.2939C747.694 56.6054 747.303 56.7612 746.846 56.7612ZM754.266 80.6646C753.126 80.6646 752.171 80.5188 751.402 80.2271C750.633 79.9421 750.017 79.5642 749.553 79.0936C749.089 78.6296 748.737 78.1324 748.499 77.6021L750.607 76.2896C750.766 76.568 750.971 76.8862 751.223 77.2441C751.475 77.6087 751.856 77.9236 752.367 78.1887C752.884 78.4605 753.61 78.5964 754.544 78.5964C755.771 78.5964 756.844 78.2981 757.766 77.7015C758.687 77.1049 759.257 76.1703 759.476 74.8975L759.953 71.7953H759.755C759.542 72.0737 759.247 72.4184 758.87 72.8294C758.492 73.2337 757.985 73.595 757.348 73.9132C756.712 74.2247 755.897 74.3805 754.902 74.3805C753.663 74.3805 752.602 74.0888 751.72 73.5055C750.839 72.9222 750.206 72.0737 749.821 70.96C749.443 69.8464 749.387 68.4941 749.652 66.9032C749.911 65.3388 750.408 63.9766 751.144 62.8166C751.886 61.6499 752.801 60.7484 753.888 60.112C754.975 59.469 756.162 59.1475 757.448 59.1475C758.442 59.1475 759.204 59.3133 759.735 59.6447C760.272 59.9695 760.663 60.3407 760.908 60.7583C761.153 61.1693 761.339 61.5074 761.465 61.7725H761.703L762.101 59.3464H764.368L761.783 75.0566C761.564 76.3691 761.09 77.4364 760.361 78.2583C759.632 79.0869 758.737 79.6935 757.676 80.0779C756.616 80.469 755.479 80.6646 754.266 80.6646ZM755.499 72.2725C756.434 72.2725 757.265 72.0571 757.995 71.6262C758.73 71.1954 759.34 70.5756 759.824 69.7669C760.308 68.9582 760.643 67.9904 760.828 66.8635C761.014 65.7631 761.001 64.792 760.789 63.9501C760.576 63.1083 760.175 62.4487 759.585 61.9714C759.002 61.4941 758.237 61.2555 757.289 61.2555C756.288 61.2555 755.423 61.5074 754.693 62.0112C753.971 62.515 753.384 63.1911 752.934 64.0396C752.483 64.8881 752.171 65.8294 751.999 66.8635C751.826 67.9241 751.833 68.862 752.019 69.6774C752.204 70.4861 752.582 71.1225 753.152 71.5865C753.729 72.0439 754.511 72.2725 755.499 72.2725ZM769.976 65.4316L768.465 74.6191H766.118L768.664 59.3464H770.931L770.533 61.7328H770.732C771.209 60.9572 771.855 60.3341 772.671 59.8635C773.486 59.3862 774.47 59.1475 775.624 59.1475C776.645 59.1475 777.506 59.3597 778.209 59.7839C778.918 60.2015 779.419 60.8379 779.71 61.693C780.009 62.5415 780.052 63.6154 779.84 64.9146L778.209 74.6191H775.862L777.453 65.0737C777.652 63.8805 777.496 62.9458 776.986 62.2697C776.482 61.5936 775.684 61.2555 774.59 61.2555C773.834 61.2555 773.135 61.4179 772.492 61.7427C771.855 62.0675 771.315 62.5415 770.871 63.1646C770.434 63.7877 770.135 64.5434 769.976 65.4316ZM644.232 108.937C642.794 108.937 641.614 108.599 640.692 107.923C639.778 107.247 639.141 106.316 638.783 105.129C638.425 103.943 638.372 102.587 638.624 101.062C638.876 99.5112 639.387 98.1423 640.155 96.9558C640.924 95.7626 641.882 94.8313 643.029 94.1618C644.176 93.4856 645.439 93.1475 646.817 93.1475C647.891 93.1475 648.826 93.3464 649.621 93.7441C650.417 94.1419 651.03 94.6987 651.461 95.4146C651.892 96.1305 652.094 96.9657 652.067 97.9203H649.721C649.655 97.2243 649.356 96.6078 648.826 96.0708C648.302 95.5273 647.527 95.2555 646.499 95.2555C645.584 95.2555 644.743 95.4941 643.974 95.9714C643.205 96.4421 642.558 97.1082 642.035 97.97C641.511 98.8251 641.156 99.8294 640.971 100.983C640.772 102.163 640.789 103.19 641.021 104.065C641.253 104.94 641.673 105.62 642.283 106.104C642.893 106.587 643.662 106.829 644.59 106.829C645.2 106.829 645.77 106.723 646.3 106.511C646.831 106.299 647.301 105.994 647.712 105.596C648.123 105.199 648.448 104.721 648.687 104.165H651.033C650.742 105.066 650.274 105.878 649.631 106.601C648.988 107.317 648.209 107.887 647.295 108.311C646.38 108.729 645.359 108.937 644.232 108.937ZM653.708 108.619L656.253 93.3464H658.521L658.123 95.7328H658.322C658.779 94.9174 659.399 94.2844 660.181 93.8336C660.97 93.3762 661.861 93.1475 662.856 93.1475C663.85 93.1475 664.649 93.3762 665.252 93.8336C665.855 94.2844 666.276 94.9174 666.515 95.7328H666.674C667.191 94.9373 667.88 94.3076 668.742 93.8436C669.61 93.3796 670.592 93.1475 671.685 93.1475C673.038 93.1475 674.078 93.5751 674.807 94.4302C675.543 95.2853 675.762 96.6078 675.464 98.3975L673.753 108.619H671.407L673.117 98.3975C673.296 97.264 673.117 96.4586 672.58 95.9814C672.05 95.4975 671.367 95.2555 670.532 95.2555C669.458 95.2555 668.573 95.577 667.877 96.22C667.181 96.863 666.753 97.6816 666.594 98.676L664.924 108.619H662.538L664.288 98.1589C664.427 97.2839 664.261 96.5813 663.79 96.051C663.32 95.5207 662.637 95.2555 661.742 95.2555C661.132 95.2555 660.536 95.4212 659.952 95.7527C659.369 96.0775 658.869 96.5282 658.451 97.1049C658.033 97.675 657.765 98.3313 657.646 99.0737L656.055 108.619H653.708ZM690.851 96.7669L688.623 97.3635C688.544 97.0055 688.405 96.6608 688.206 96.3294C688.014 95.9913 687.715 95.7162 687.311 95.5041C686.913 95.2853 686.37 95.176 685.68 95.176C684.746 95.176 683.934 95.3914 683.244 95.8223C682.555 96.2465 682.16 96.7868 682.061 97.443C681.962 98.0197 682.094 98.4804 682.459 98.8251C682.823 99.1698 683.433 99.4515 684.288 99.6703L686.476 100.227C687.788 100.565 688.723 101.072 689.28 101.748C689.843 102.418 690.035 103.29 689.856 104.363C689.711 105.238 689.329 106.021 688.713 106.71C688.097 107.399 687.308 107.943 686.347 108.341C685.385 108.738 684.315 108.937 683.135 108.937C681.564 108.937 680.324 108.599 679.416 107.923C678.508 107.24 678.024 106.253 677.964 104.96L680.311 104.403C680.371 105.219 680.662 105.835 681.186 106.253C681.716 106.664 682.459 106.869 683.413 106.869C684.507 106.869 685.418 106.637 686.148 106.173C686.877 105.702 687.291 105.139 687.391 104.483C687.49 103.946 687.384 103.498 687.072 103.14C686.767 102.782 686.237 102.514 685.481 102.335L683.055 101.738C681.703 101.4 680.755 100.883 680.212 100.187C679.675 99.4913 679.496 98.6163 679.675 97.5623C679.82 96.7006 680.192 95.9383 680.788 95.2754C681.391 94.6125 682.147 94.0922 683.055 93.7143C683.97 93.3365 684.964 93.1475 686.038 93.1475C687.55 93.1475 688.68 93.479 689.429 94.1419C690.178 94.7981 690.652 95.6731 690.851 96.7669ZM696.65 105.835L696.292 106.909C696.054 107.665 695.749 108.473 695.377 109.335C695.006 110.197 694.638 111.009 694.274 111.771C693.909 112.533 693.614 113.14 693.389 113.591H691.599C691.745 113.166 691.944 112.606 692.196 111.91C692.447 111.214 692.716 110.439 693.001 109.584C693.286 108.729 693.548 107.85 693.786 106.949L694.105 105.835H696.65ZM712.85 108.977C711.882 108.977 711.034 108.795 710.305 108.43C709.575 108.059 709.035 107.525 708.684 106.829C708.333 106.127 708.236 105.278 708.396 104.284C708.548 103.409 708.843 102.7 709.28 102.156C709.718 101.606 710.248 101.175 710.871 100.863C711.501 100.545 712.177 100.31 712.9 100.157C713.629 99.9984 714.355 99.8758 715.077 99.7896C716.019 99.6703 716.784 99.5775 717.374 99.5112C717.964 99.4449 718.408 99.3355 718.707 99.1831C719.005 99.0306 719.187 98.7688 719.253 98.3975V98.318C719.413 97.3436 719.283 96.5846 718.866 96.041C718.448 95.4908 717.702 95.2157 716.628 95.2157C715.515 95.2157 714.583 95.461 713.834 95.9515C713.085 96.4421 712.532 96.9657 712.174 97.5225L710.106 96.7271C710.649 95.7991 711.299 95.0765 712.055 94.5595C712.81 94.0358 713.602 93.6712 714.431 93.4657C715.26 93.2536 716.058 93.1475 716.827 93.1475C717.318 93.1475 717.871 93.2072 718.488 93.3265C719.104 93.4392 719.681 93.6745 720.218 94.0325C720.762 94.3904 721.169 94.9307 721.441 95.6532C721.719 96.3758 721.759 97.3436 721.56 98.5566L719.89 108.619H717.543L717.901 106.551H717.782C717.57 106.882 717.245 107.237 716.807 107.615C716.377 107.993 715.83 108.314 715.167 108.579C714.511 108.845 713.738 108.977 712.85 108.977ZM713.526 106.869C714.454 106.869 715.266 106.687 715.962 106.322C716.665 105.958 717.228 105.487 717.653 104.91C718.083 104.334 718.352 103.727 718.458 103.091L718.816 100.943C718.697 101.062 718.461 101.172 718.11 101.271C717.759 101.364 717.361 101.447 716.917 101.52C716.479 101.586 716.052 101.646 715.634 101.699C715.223 101.745 714.892 101.785 714.64 101.818C714.017 101.898 713.423 102.027 712.86 102.206C712.303 102.378 711.833 102.64 711.448 102.991C711.07 103.336 710.835 103.807 710.742 104.403C710.603 105.219 710.798 105.835 711.329 106.253C711.859 106.664 712.592 106.869 713.526 106.869ZM723.218 114.346L726.738 93.3464H729.005L728.608 95.7725H728.886C729.098 95.5074 729.39 95.1693 729.761 94.7583C730.139 94.3407 730.646 93.9695 731.282 93.6447C731.925 93.3133 732.744 93.1475 733.738 93.1475C735.024 93.1475 736.101 93.469 736.97 94.112C737.838 94.755 738.451 95.6665 738.809 96.8464C739.167 98.0263 739.214 99.4184 738.948 101.023C738.683 102.64 738.176 104.042 737.427 105.229C736.678 106.408 735.763 107.323 734.683 107.973C733.602 108.616 732.426 108.937 731.153 108.937C730.172 108.937 729.413 108.775 728.876 108.45C728.339 108.119 727.948 107.744 727.703 107.327C727.457 106.902 727.268 106.551 727.136 106.273H726.937L725.585 114.346H723.218ZM727.772 100.983C727.587 102.136 727.587 103.154 727.772 104.035C727.965 104.91 728.346 105.596 728.916 106.094C729.492 106.584 730.251 106.829 731.193 106.829C732.174 106.829 733.032 106.571 733.768 106.054C734.51 105.53 735.12 104.827 735.598 103.946C736.081 103.058 736.416 102.07 736.602 100.983C736.774 99.9089 736.768 98.9411 736.582 98.0794C736.396 97.211 736.018 96.5249 735.448 96.0211C734.878 95.5107 734.096 95.2555 733.102 95.2555C732.147 95.2555 731.302 95.4975 730.566 95.9814C729.837 96.4586 729.234 97.1281 728.757 97.9899C728.286 98.845 727.958 99.8426 727.772 100.983ZM746.99 88.2555L743.609 108.619H741.263L744.643 88.2555H746.99ZM747.907 108.619L750.453 93.3464H752.799L750.254 108.619H747.907ZM752.342 90.7612C751.884 90.7612 751.49 90.6054 751.159 90.2939C750.834 89.9823 750.671 89.6078 750.671 89.1703C750.671 88.7328 750.834 88.3582 751.159 88.0467C751.49 87.7351 751.884 87.5794 752.342 87.5794C752.799 87.5794 753.19 87.7351 753.515 88.0467C753.847 88.3582 754.012 88.7328 754.012 89.1703C754.012 89.6078 753.847 89.9823 753.515 90.2939C753.19 90.6054 752.799 90.7612 752.342 90.7612ZM757.654 103.051L758.092 100.148H758.569L766.404 93.3464H769.307L760.995 100.545H760.796L757.654 103.051ZM754.552 108.619L757.932 88.2555H760.279L756.898 108.619H754.552ZM764.256 108.619L759.563 101.062L761.472 99.4316L767.239 108.619H764.256ZM774.237 108.977C773.269 108.977 772.42 108.795 771.691 108.43C770.962 108.059 770.422 107.525 770.071 106.829C769.719 106.127 769.623 105.278 769.782 104.284C769.935 103.409 770.23 102.7 770.667 102.156C771.105 101.606 771.635 101.175 772.258 100.863C772.888 100.545 773.564 100.31 774.286 100.157C775.016 99.9984 775.742 99.8758 776.464 99.7896C777.405 99.6703 778.171 99.5775 778.761 99.5112C779.351 99.4449 779.795 99.3355 780.093 99.1831C780.392 99.0306 780.574 98.7688 780.64 98.3975V98.318C780.799 97.3436 780.67 96.5846 780.252 96.041C779.835 95.4908 779.089 95.2157 778.015 95.2157C776.902 95.2157 775.97 95.461 775.221 95.9515C774.472 96.4421 773.919 96.9657 773.561 97.5225L771.492 96.7271C772.036 95.7991 772.686 95.0765 773.441 94.5595C774.197 94.0358 774.989 93.6712 775.818 93.4657C776.646 93.2536 777.445 93.1475 778.214 93.1475C778.705 93.1475 779.258 93.2072 779.875 93.3265C780.491 93.4392 781.068 93.6745 781.605 94.0325C782.148 94.3904 782.556 94.9307 782.828 95.6532C783.106 96.3758 783.146 97.3436 782.947 98.5566L781.277 108.619H778.93L779.288 106.551H779.169C778.956 106.882 778.632 107.237 778.194 107.615C777.763 107.993 777.216 108.314 776.554 108.579C775.897 108.845 775.125 108.977 774.237 108.977ZM774.913 106.869C775.841 106.869 776.653 106.687 777.349 106.322C778.052 105.958 778.615 105.487 779.039 104.91C779.47 104.334 779.739 103.727 779.845 103.091L780.203 100.943C780.083 101.062 779.848 101.172 779.497 101.271C779.145 101.364 778.748 101.447 778.304 101.52C777.866 101.586 777.438 101.646 777.021 101.699C776.61 101.745 776.278 101.785 776.027 101.818C775.403 101.898 774.81 102.027 774.247 102.206C773.69 102.378 773.219 102.64 772.835 102.991C772.457 103.336 772.222 103.807 772.129 104.403C771.99 105.219 772.185 105.835 772.715 106.253C773.246 106.664 773.978 106.869 774.913 106.869ZM791.724 108.937C790.286 108.937 789.106 108.599 788.185 107.923C787.27 107.247 786.633 106.316 786.275 105.129C785.918 103.943 785.864 102.587 786.116 101.062C786.368 99.5112 786.879 98.1423 787.648 96.9558C788.417 95.7626 789.374 94.8313 790.521 94.1618C791.668 93.4856 792.931 93.1475 794.31 93.1475C795.383 93.1475 796.318 93.3464 797.114 93.7441C797.909 94.1419 798.522 94.6987 798.953 95.4146C799.384 96.1305 799.586 96.9657 799.56 97.9203H797.213C797.147 97.2243 796.848 96.6078 796.318 96.0708C795.794 95.5273 795.019 95.2555 793.991 95.2555C793.077 95.2555 792.235 95.4941 791.466 95.9714C790.697 96.4421 790.051 97.1082 789.527 97.97C789.003 98.8251 788.649 99.8294 788.463 100.983C788.264 102.163 788.281 103.19 788.513 104.065C788.745 104.94 789.166 105.62 789.775 106.104C790.385 106.587 791.154 106.829 792.082 106.829C792.692 106.829 793.262 106.723 793.793 106.511C794.323 106.299 794.793 105.994 795.204 105.596C795.615 105.199 795.94 104.721 796.179 104.165H798.525C798.234 105.066 797.766 105.878 797.123 106.601C796.48 107.317 795.702 107.887 794.787 108.311C793.872 108.729 792.851 108.937 791.724 108.937ZM807.564 108.937C806.099 108.937 804.889 108.613 803.935 107.963C802.98 107.307 802.314 106.392 801.936 105.219C801.558 104.039 801.498 102.666 801.757 101.102C802.016 99.5377 802.529 98.1589 803.298 96.9657C804.067 95.7659 805.025 94.8313 806.172 94.1618C807.319 93.4856 808.578 93.1475 809.95 93.1475C810.746 93.1475 811.511 93.2801 812.247 93.5453C812.983 93.8104 813.619 94.2413 814.156 94.8379C814.693 95.4279 815.068 96.21 815.28 97.1845C815.492 98.1589 815.479 99.3587 815.24 100.784L815.081 101.778H803.308L803.626 99.7498H813.013C813.165 98.8881 813.125 98.1191 812.893 97.443C812.668 96.7669 812.274 96.2332 811.71 95.8422C811.153 95.4511 810.447 95.2555 809.592 95.2555C808.711 95.2555 807.889 95.4941 807.126 95.9714C806.364 96.4421 805.728 97.0386 805.217 97.7612C804.707 98.4771 804.389 99.2063 804.263 99.9487L803.984 101.699C803.785 102.965 803.815 103.972 804.074 104.721C804.339 105.47 804.8 106.011 805.456 106.342C806.112 106.667 806.934 106.829 807.922 106.829C808.552 106.829 809.132 106.743 809.662 106.571C810.192 106.392 810.666 106.127 811.084 105.775C811.501 105.417 811.853 104.973 812.138 104.443L814.285 105.079C813.921 105.848 813.407 106.524 812.744 107.108C812.088 107.684 811.319 108.135 810.437 108.46C809.562 108.778 808.605 108.937 807.564 108.937Z" fill="black"/>
</svg>
