<svg width="627" height="225" viewBox="0 0 627 225" fill="none" xmlns="http://www.w3.org/2000/svg">
<path d="M416.44 103.907V93.7351L441.945 53.5547H450.715V67.6342H445.524L429.446 93.0788V93.5561H465.689V103.907H416.44ZM445.763 114.646V100.805L446.002 96.3004V53.5547H458.112V114.646H445.763Z" fill="black"/>
<path d="M410.426 82.5721C410.426 75.6608 407.681 69.0324 402.794 64.1454C397.907 59.2583 391.278 56.5127 384.367 56.5127C377.456 56.5127 370.827 59.2583 365.94 64.1454C361.053 69.0324 358.308 75.6608 358.308 82.5721C358.308 89.4835 361.053 96.1118 365.94 100.999C370.827 105.886 377.456 108.632 384.367 108.632C391.278 108.632 397.907 105.886 402.794 100.999C407.681 96.1118 410.426 89.4835 410.426 82.5721ZM352.294 82.5721C352.294 74.0658 355.673 65.9079 361.688 59.893C367.703 53.8781 375.861 50.499 384.367 50.499C392.873 50.499 401.031 53.8781 407.046 59.893C413.061 65.9079 416.44 74.0658 416.44 82.5721C416.44 91.0785 413.061 99.2364 407.046 105.251C401.031 111.266 392.873 114.645 384.367 114.645C375.861 114.645 367.703 111.266 361.688 105.251C355.673 99.2364 352.294 91.0785 352.294 82.5721ZM393.651 64.982C394.377 65.5709 394.603 66.5982 394.177 67.4376L387.612 80.5676H396.394C397.246 80.5676 398.011 81.1063 398.286 81.9081C398.562 82.71 398.311 83.5995 397.647 84.1382L377.602 100.175C376.862 100.764 375.823 100.764 375.083 100.162C374.344 99.5609 374.131 98.5461 374.545 97.7066L381.122 84.5767H372.34C371.488 84.5767 370.736 84.038 370.448 83.2362C370.16 82.4343 370.423 81.5448 371.087 81.0061L391.132 64.9695C391.872 64.3807 392.912 64.3807 393.651 64.982Z" fill="black"/>
<path d="M301.679 103.907V93.7351L327.183 53.5547H335.953V67.6342H330.763L314.684 93.0788V93.5561H350.927V103.907H301.679ZM331.001 114.646V100.805L331.24 96.3004V53.5547H343.351V114.646H331.001Z" fill="black"/>
<path d="M271.909 115.54C267.275 115.54 263.268 114.556 259.887 112.587C256.526 110.598 253.931 107.834 252.102 104.294C250.272 100.735 249.357 96.6083 249.357 91.9151C249.357 87.1822 250.272 83.0458 252.102 79.506C253.931 75.9464 256.526 73.1822 259.887 71.2134C263.268 69.2248 267.275 68.2305 271.909 68.2305C276.542 68.2305 280.539 69.2248 283.9 71.2134C287.281 73.1822 289.886 75.9464 291.715 79.506C293.545 83.0458 294.46 87.1822 294.46 91.9151C294.46 96.6083 293.545 100.735 291.715 104.294C289.886 107.834 287.281 110.598 283.9 112.587C280.539 114.556 276.542 115.54 271.909 115.54ZM271.968 105.696C274.076 105.696 275.836 105.1 277.248 103.907C278.66 102.694 279.724 101.043 280.44 98.9549C281.176 96.8668 281.544 94.4904 281.544 91.8256C281.544 89.1609 281.176 86.7844 280.44 84.6964C279.724 82.6083 278.66 80.9577 277.248 79.7447C275.836 78.5316 274.076 77.9251 271.968 77.9251C269.84 77.9251 268.051 78.5316 266.599 79.7447C265.167 80.9577 264.083 82.6083 263.347 84.6964C262.632 86.7844 262.274 89.1609 262.274 91.8256C262.274 94.4904 262.632 96.8668 263.347 98.9549C264.083 101.043 265.167 102.694 266.599 103.907C268.051 105.1 269.84 105.696 271.968 105.696Z" fill="black"/>
<path d="M228.32 114.645V68.8272H241.027V114.645H228.32ZM234.704 62.921C232.814 62.921 231.194 62.2946 229.841 61.0417C228.509 59.769 227.843 58.2477 227.843 56.4778C227.843 54.7278 228.509 53.2264 229.841 51.9735C231.194 50.7008 232.814 50.0645 234.704 50.0645C236.593 50.0645 238.204 50.7008 239.536 51.9735C240.888 53.2264 241.564 54.7278 241.564 56.4778C241.564 58.2477 240.888 59.769 239.536 61.0417C238.204 62.2946 236.593 62.921 234.704 62.921Z" fill="black"/>
<path d="M191.802 115.391C188.321 115.391 185.169 114.496 182.346 112.707C179.542 110.897 177.314 108.242 175.664 104.742C174.033 101.222 173.218 96.907 173.218 91.7962C173.218 86.5462 174.063 82.1811 175.753 78.701C177.444 75.201 179.691 72.5859 182.495 70.8558C185.319 69.1058 188.411 68.2308 191.772 68.2308C194.337 68.2308 196.475 68.6683 198.185 69.5433C199.915 70.3984 201.307 71.4723 202.361 72.7649C203.435 74.0376 204.25 75.2905 204.807 76.5234H205.195V53.5547H217.873V114.646H205.344V107.308H204.807C204.211 108.58 203.365 109.843 202.272 111.096C201.198 112.329 199.796 113.353 198.066 114.168C196.356 114.984 194.267 115.391 191.802 115.391ZM195.829 105.279C197.877 105.279 199.607 104.722 201.019 103.609C202.451 102.475 203.544 100.894 204.3 98.8658C205.076 96.8374 205.464 94.4609 205.464 91.7365C205.464 89.0121 205.086 86.6456 204.33 84.6371C203.574 82.6286 202.481 81.0774 201.049 79.9837C199.617 78.8899 197.877 78.343 195.829 78.343C193.74 78.343 191.981 78.9098 190.549 80.0433C189.117 81.1768 188.033 82.7479 187.297 84.7564C186.562 86.7649 186.194 89.0916 186.194 91.7365C186.194 94.4013 186.562 96.7578 187.297 98.8061C188.053 100.835 189.137 102.425 190.549 103.579C191.981 104.712 193.74 105.279 195.829 105.279Z" fill="black"/>
<path d="M152.046 95.1368V68.8271H164.754V114.645H152.553V106.323H152.076C151.042 109.008 149.322 111.165 146.915 112.796C144.529 114.427 141.616 115.242 138.175 115.242C135.113 115.242 132.418 114.546 130.092 113.154C127.765 111.762 125.945 109.783 124.633 107.218C123.34 104.652 122.684 101.58 122.664 98.0004V68.8271H135.371V95.7334C135.391 98.4379 136.117 100.576 137.549 102.147C138.981 103.718 140.9 104.503 143.306 104.503C144.837 104.503 146.269 104.155 147.602 103.459C148.934 102.743 150.008 101.689 150.823 100.297C151.658 98.9053 152.066 97.1851 152.046 95.1368Z" fill="black"/>
<path d="M114.386 68.8274V78.3728H86.7939V68.8274H114.386ZM93.0582 57.8501H105.766V100.566C105.766 101.739 105.945 102.654 106.302 103.31C106.66 103.947 107.158 104.394 107.794 104.653C108.45 104.911 109.206 105.04 110.061 105.04C110.658 105.04 111.254 104.991 111.851 104.891C112.447 104.772 112.905 104.682 113.223 104.623L115.222 114.079C114.585 114.278 113.69 114.506 112.537 114.765C111.383 115.043 109.981 115.212 108.331 115.272C105.268 115.391 102.584 114.984 100.277 114.049C97.99 113.114 96.2101 111.663 94.9374 109.694C93.6647 107.725 93.0383 105.239 93.0582 102.236V57.8501Z" fill="black"/>
<path d="M80.9699 81.8924L69.3364 82.6083C69.1375 81.614 68.71 80.7191 68.0537 79.9236C67.3975 79.1083 66.5324 78.462 65.4585 77.9847C64.4046 77.4876 63.1418 77.239 61.6702 77.239C59.7014 77.239 58.0409 77.6566 56.6887 78.4918C55.3364 79.3072 54.6602 80.4009 54.6602 81.7731C54.6602 82.8668 55.0977 83.7915 55.9727 84.5472C56.8477 85.3029 58.3492 85.9094 60.477 86.3668L68.7696 88.0373C73.2242 88.9521 76.5452 90.4236 78.7327 92.4521C80.9202 94.4805 82.0139 97.1452 82.0139 100.446C82.0139 103.449 81.129 106.084 79.3591 108.351C77.6091 110.618 75.2029 112.388 72.1404 113.661C69.0977 114.914 65.5878 115.54 61.6105 115.54C55.5452 115.54 50.7128 114.277 47.1134 111.752C43.5338 109.206 41.4358 105.746 40.8193 101.371L53.3179 100.715C53.6958 102.564 54.6105 103.976 56.0622 104.951C57.5139 105.905 59.3733 106.382 61.6404 106.382C63.8676 106.382 65.6574 105.955 67.0097 105.1C68.3818 104.225 69.0779 103.101 69.0977 101.729C69.0779 100.576 68.5906 99.631 67.6361 98.8952C66.6816 98.1396 65.21 97.5629 63.2213 97.1651L55.2867 95.5842C50.8122 94.6893 47.4813 93.1381 45.2938 90.9308C43.1262 88.7234 42.0423 85.9094 42.0423 82.489C42.0423 79.5458 42.8378 77.0103 44.4287 74.8825C46.0395 72.7546 48.2966 71.114 51.2 69.9606C54.1233 68.8072 57.5438 68.2305 61.4614 68.2305C67.2483 68.2305 71.8023 69.4535 75.1233 71.8995C78.4642 74.3455 80.4131 77.6765 80.9699 81.8924Z" fill="black"/>
<path d="M547.502 114.645V107.068L569.934 79.2968V78.9687H548.277V68.8267H585.236V77.0894L564.177 104.175V104.503H586.012V114.645H547.502Z" fill="black"/>
<path d="M519.142 115.54C514.449 115.54 510.412 114.546 507.031 112.557C503.67 110.549 501.085 107.765 499.275 104.205C497.486 100.645 496.591 96.5486 496.591 91.9151C496.591 87.2219 497.496 83.1055 499.305 79.5657C501.135 76.006 503.73 73.2319 507.091 71.2432C510.452 69.2347 514.449 68.2305 519.082 68.2305C523.079 68.2305 526.579 68.9563 529.582 70.408C532.585 71.8597 534.962 73.8981 536.712 76.5231C538.462 79.1481 539.426 82.2305 539.605 85.7702H527.614C527.275 83.4833 526.381 81.6438 524.929 80.2518C523.497 78.8398 521.618 78.1339 519.291 78.1339C517.322 78.1339 515.602 78.6708 514.131 79.7447C512.679 80.7986 511.545 82.3398 510.73 84.3683C509.915 86.3967 509.507 88.8526 509.507 91.7361C509.507 94.6594 509.905 97.1452 510.7 99.1935C511.516 101.242 512.659 102.803 514.131 103.877C515.602 104.951 517.322 105.488 519.291 105.488C520.743 105.488 522.045 105.189 523.199 104.593C524.372 103.996 525.337 103.131 526.092 101.998C526.868 100.844 527.375 99.462 527.614 97.8512H539.605C539.406 101.351 538.452 104.434 536.741 107.098C535.051 109.743 532.714 111.811 529.731 113.303C526.748 114.794 523.219 115.54 519.142 115.54Z" fill="black"/>
<path d="M480.849 115.421C478.88 115.421 477.189 114.725 475.778 113.333C474.385 111.921 473.689 110.23 473.689 108.262C473.689 106.313 474.385 104.642 475.778 103.25C477.189 101.858 478.88 101.162 480.849 101.162C482.758 101.162 484.428 101.858 485.86 103.25C487.292 104.642 488.008 106.313 488.008 108.262C488.008 109.574 487.67 110.777 486.993 111.871C486.337 112.945 485.472 113.81 484.398 114.466C483.324 115.102 482.141 115.421 480.849 115.421Z" fill="black"/>
<path d="M47.1673 164.54L44.0807 142.176H47.6915L49.6716 159.299H49.9046L57.5338 142.176H61.2029L63.0665 159.24H63.2995L70.987 142.176H74.5977L64.0566 164.54H60.6787L58.6404 147.36H58.2909L50.5452 164.54H47.1673ZM83.9705 165.006C81.8254 165.006 80.054 164.53 78.6562 163.579C77.2585 162.618 76.283 161.279 75.7298 159.561C75.1765 157.833 75.0891 155.824 75.4677 153.533C75.8462 151.242 76.5985 149.223 77.7244 147.476C78.8504 145.719 80.253 144.351 81.9322 143.37C83.6114 142.38 85.4556 141.885 87.4648 141.885C88.6296 141.885 89.7507 142.079 90.8281 142.468C91.9055 142.856 92.8374 143.487 93.6236 144.36C94.4098 145.224 94.9582 146.37 95.2688 147.796C95.5794 149.223 95.56 150.98 95.2106 153.067L94.9776 154.523H77.739L78.2049 151.553H91.9492C92.1725 150.291 92.1142 149.165 91.7745 148.175C91.4445 147.185 90.867 146.404 90.0419 145.831C89.2266 145.258 88.1928 144.972 86.9407 144.972C85.6497 144.972 84.4461 145.321 83.3299 146.02C82.2137 146.709 81.2818 147.583 80.5344 148.641C79.7871 149.689 79.3211 150.757 79.1367 151.844L78.729 154.407C78.4379 156.26 78.4815 157.736 78.8601 158.833C79.2483 159.929 79.9229 160.721 80.8839 161.206C81.8448 161.681 83.0484 161.919 84.4947 161.919C85.4168 161.919 86.2661 161.793 87.0426 161.541C87.8191 161.279 88.5131 160.89 89.1246 160.376C89.7362 159.852 90.2506 159.201 90.668 158.425L93.8129 159.357C93.279 160.483 92.5268 161.473 91.5561 162.327C90.5952 163.171 89.4692 163.831 88.1783 164.307C86.897 164.773 85.4944 165.006 83.9705 165.006ZM99.0616 164.54L104.012 134.722H107.448L105.643 145.729H105.934C106.244 145.341 106.676 144.846 107.23 144.244C107.783 143.632 108.525 143.089 109.457 142.613C110.389 142.128 111.583 141.885 113.039 141.885C114.922 141.885 116.499 142.356 117.771 143.297C119.052 144.239 119.95 145.574 120.464 147.301C120.988 149.029 121.056 151.068 120.668 153.416C120.28 155.785 119.537 157.838 118.441 159.575C117.353 161.303 116.014 162.642 114.422 163.594C112.84 164.535 111.117 165.006 109.253 165.006C107.817 165.006 106.705 164.768 105.919 164.293C105.143 163.807 104.57 163.259 104.201 162.647C103.842 162.026 103.565 161.512 103.371 161.104H102.964L102.381 164.54H99.0616ZM104.303 153.358C104.031 155.047 104.036 156.537 104.318 157.828C104.599 159.109 105.157 160.114 105.992 160.842C106.827 161.56 107.933 161.919 109.312 161.919C110.748 161.919 112.01 161.541 113.097 160.784C114.184 160.017 115.077 158.988 115.776 157.697C116.475 156.396 116.96 154.95 117.232 153.358C117.484 151.786 117.475 150.369 117.203 149.107C116.941 147.835 116.388 146.831 115.543 146.093C114.708 145.346 113.563 144.972 112.107 144.972C110.709 144.972 109.472 145.326 108.394 146.035C107.327 146.734 106.443 147.714 105.744 148.976C105.055 150.228 104.575 151.689 104.303 153.358ZM132.476 165.006C130.603 165.006 129.03 164.535 127.759 163.594C126.487 162.642 125.589 161.303 125.065 159.575C124.551 157.838 124.488 155.785 124.876 153.416C125.274 151.068 126.016 149.029 127.104 147.301C128.2 145.574 129.545 144.239 131.137 143.297C132.728 142.356 134.466 141.885 136.349 141.885C137.805 141.885 138.916 142.128 139.683 142.613C140.46 143.089 141.023 143.632 141.372 144.244C141.721 144.846 141.988 145.341 142.173 145.729H142.464L144.298 134.722H147.735L142.784 164.54H139.465L140.047 161.104H139.639C139.319 161.512 138.873 162.026 138.3 162.647C137.727 163.259 136.97 163.807 136.029 164.293C135.097 164.768 133.913 165.006 132.476 165.006ZM133.32 161.919C134.699 161.919 135.932 161.56 137.019 160.842C138.115 160.114 139.028 159.109 139.756 157.828C140.484 156.537 140.989 155.047 141.27 153.358C141.552 151.689 141.542 150.228 141.241 148.976C140.94 147.714 140.363 146.734 139.508 146.035C138.654 145.326 137.523 144.972 136.116 144.972C134.67 144.972 133.413 145.346 132.345 146.093C131.277 146.831 130.409 147.835 129.739 149.107C129.069 150.369 128.603 151.786 128.341 153.358C128.079 154.95 128.074 156.396 128.327 157.697C128.579 158.988 129.113 160.017 129.928 160.784C130.753 161.541 131.884 161.919 133.32 161.919ZM158.844 165.006C156.698 165.006 154.927 164.53 153.529 163.579C152.132 162.618 151.156 161.279 150.603 159.561C150.05 157.833 149.962 155.824 150.341 153.533C150.719 151.242 151.472 149.223 152.597 147.476C153.723 145.719 155.126 144.351 156.805 143.37C158.484 142.38 160.329 141.885 162.338 141.885C163.503 141.885 164.624 142.079 165.701 142.468C166.779 142.856 167.71 143.487 168.497 144.36C169.283 145.224 169.831 146.37 170.142 147.796C170.452 149.223 170.433 150.98 170.084 153.067L169.851 154.523H152.612L153.078 151.553H166.822C167.046 150.291 166.987 149.165 166.648 148.175C166.318 147.185 165.74 146.404 164.915 145.831C164.1 145.258 163.066 144.972 161.814 144.972C160.523 144.972 159.319 145.321 158.203 146.02C157.087 146.709 156.155 147.583 155.407 148.641C154.66 149.689 154.194 150.757 154.01 151.844L153.602 154.407C153.311 156.26 153.355 157.736 153.733 158.833C154.121 159.929 154.796 160.721 155.757 161.206C156.718 161.681 157.921 161.919 159.368 161.919C160.29 161.919 161.139 161.793 161.916 161.541C162.692 161.279 163.386 160.89 163.998 160.376C164.609 159.852 165.124 159.201 165.541 158.425L168.686 159.357C168.152 160.483 167.4 161.473 166.429 162.327C165.468 163.171 164.342 163.831 163.051 164.307C161.77 164.773 160.367 165.006 158.844 165.006ZM192.222 147.185L188.96 148.059C188.844 147.534 188.64 147.03 188.349 146.544C188.067 146.049 187.63 145.646 187.038 145.336C186.456 145.016 185.66 144.855 184.651 144.855C183.282 144.855 182.093 145.171 181.083 145.802C180.074 146.423 179.496 147.214 179.351 148.175C179.205 149.019 179.399 149.694 179.933 150.199C180.467 150.704 181.36 151.116 182.612 151.436L185.815 152.252C187.737 152.747 189.106 153.489 189.921 154.479C190.746 155.46 191.028 156.736 190.766 158.309C190.552 159.59 189.994 160.735 189.091 161.745C188.189 162.754 187.033 163.55 185.626 164.132C184.219 164.715 182.651 165.006 180.923 165.006C178.623 165.006 176.808 164.511 175.478 163.521C174.148 162.521 173.44 161.075 173.352 159.182L176.788 158.367C176.876 159.561 177.303 160.463 178.07 161.075C178.846 161.677 179.933 161.978 181.331 161.978C182.933 161.978 184.267 161.638 185.335 160.958C186.403 160.269 187.009 159.444 187.155 158.483C187.3 157.697 187.145 157.042 186.689 156.518C186.242 155.994 185.466 155.6 184.359 155.338L180.807 154.465C178.827 153.97 177.439 153.213 176.643 152.193C175.857 151.174 175.594 149.893 175.857 148.35C176.07 147.088 176.614 145.972 177.487 145.001C178.371 144.03 179.477 143.268 180.807 142.715C182.146 142.162 183.602 141.885 185.175 141.885C187.388 141.885 189.043 142.371 190.14 143.341C191.236 144.302 191.93 145.583 192.222 147.185ZM194.89 164.54L198.617 142.176H202.053L198.326 164.54H194.89ZM201.383 138.391C200.714 138.391 200.136 138.163 199.651 137.707C199.175 137.25 198.937 136.702 198.937 136.061C198.937 135.421 199.175 134.872 199.651 134.416C200.136 133.96 200.714 133.732 201.383 133.732C202.053 133.732 202.626 133.96 203.101 134.416C203.587 134.872 203.829 135.421 203.829 136.061C203.829 136.702 203.587 137.25 203.101 137.707C202.626 138.163 202.053 138.391 201.383 138.391ZM212.248 173.392C210.579 173.392 209.181 173.179 208.055 172.752C206.929 172.334 206.027 171.781 205.347 171.092C204.668 170.412 204.153 169.684 203.804 168.908L206.89 166.986C207.123 167.394 207.424 167.86 207.793 168.384C208.162 168.918 208.72 169.379 209.468 169.767C210.225 170.165 211.287 170.364 212.656 170.364C214.452 170.364 216.024 169.927 217.373 169.054C218.723 168.18 219.557 166.811 219.878 164.948L220.577 160.405H220.285C219.975 160.813 219.543 161.318 218.99 161.919C218.436 162.511 217.694 163.04 216.762 163.506C215.83 163.963 214.636 164.191 213.18 164.191C211.365 164.191 209.812 163.764 208.521 162.909C207.23 162.055 206.303 160.813 205.74 159.182C205.187 157.551 205.104 155.571 205.493 153.242C205.871 150.951 206.599 148.956 207.677 147.258C208.764 145.549 210.103 144.229 211.695 143.297C213.287 142.356 215.024 141.885 216.907 141.885C218.363 141.885 219.48 142.128 220.256 142.613C221.042 143.089 221.615 143.632 221.974 144.244C222.333 144.846 222.605 145.341 222.79 145.729H223.139L223.721 142.176H227.041L223.256 165.181C222.935 167.103 222.241 168.665 221.173 169.869C220.106 171.082 218.795 171.97 217.242 172.533C215.689 173.106 214.025 173.392 212.248 173.392ZM214.054 161.104C215.422 161.104 216.641 160.789 217.708 160.158C218.786 159.527 219.679 158.619 220.387 157.435C221.096 156.251 221.586 154.834 221.858 153.184C222.13 151.572 222.11 150.15 221.8 148.918C221.489 147.685 220.902 146.719 220.038 146.02C219.184 145.321 218.063 144.972 216.675 144.972C215.209 144.972 213.942 145.341 212.874 146.078C211.816 146.816 210.957 147.806 210.297 149.049C209.637 150.291 209.181 151.669 208.929 153.184C208.676 154.737 208.686 156.11 208.958 157.304C209.23 158.488 209.783 159.42 210.618 160.099C211.462 160.769 212.608 161.104 214.054 161.104ZM235.253 151.087L233.04 164.54H229.604L233.331 142.176H236.65L236.068 145.671H236.359C237.058 144.535 238.004 143.623 239.198 142.934C240.392 142.235 241.834 141.885 243.523 141.885C245.017 141.885 246.279 142.196 247.308 142.817C248.347 143.429 249.079 144.36 249.507 145.612C249.943 146.855 250.006 148.427 249.696 150.33L247.308 164.54H243.872L246.202 150.563C246.493 148.816 246.265 147.447 245.517 146.457C244.78 145.467 243.61 144.972 242.008 144.972C240.902 144.972 239.878 145.21 238.936 145.685C238.004 146.161 237.213 146.855 236.563 147.767C235.922 148.68 235.486 149.786 235.253 151.087ZM308.739 165.006C306.633 165.006 304.905 164.511 303.556 163.521C302.216 162.531 301.284 161.167 300.76 159.43C300.236 157.692 300.158 155.707 300.527 153.475C300.896 151.203 301.643 149.199 302.769 147.462C303.895 145.714 305.298 144.351 306.977 143.37C308.656 142.38 310.505 141.885 312.524 141.885C314.097 141.885 315.465 142.176 316.63 142.759C317.795 143.341 318.693 144.157 319.324 145.205C319.955 146.253 320.251 147.476 320.212 148.874H316.776C316.679 147.855 316.242 146.952 315.465 146.166C314.699 145.37 313.563 144.972 312.059 144.972C310.719 144.972 309.486 145.321 308.36 146.02C307.234 146.709 306.288 147.685 305.521 148.947C304.754 150.199 304.235 151.669 303.963 153.358C303.672 155.086 303.696 156.59 304.036 157.872C304.376 159.153 304.992 160.148 305.885 160.856C306.778 161.565 307.904 161.919 309.263 161.919C310.156 161.919 310.991 161.764 311.767 161.453C312.544 161.143 313.233 160.696 313.835 160.114C314.437 159.532 314.912 158.833 315.262 158.017H318.698C318.271 159.337 317.586 160.526 316.645 161.584C315.703 162.633 314.563 163.467 313.223 164.089C311.884 164.7 310.389 165.006 308.739 165.006ZM322.614 164.54L326.342 142.176H329.661L329.079 145.671H329.37C330.04 144.477 330.947 143.55 332.093 142.89C333.248 142.22 334.553 141.885 336.009 141.885C337.465 141.885 338.635 142.22 339.518 142.89C340.401 143.55 341.018 144.477 341.367 145.671H341.6C342.357 144.506 343.367 143.584 344.628 142.904C345.9 142.225 347.337 141.885 348.938 141.885C350.918 141.885 352.442 142.511 353.51 143.763C354.587 145.016 354.908 146.952 354.471 149.573L351.967 164.54H348.53L351.035 149.573C351.297 147.913 351.035 146.734 350.248 146.035C349.472 145.326 348.472 144.972 347.249 144.972C345.677 144.972 344.381 145.443 343.362 146.384C342.343 147.326 341.717 148.524 341.484 149.98L339.038 164.54H335.543L338.106 149.223C338.31 147.942 338.067 146.913 337.378 146.137C336.689 145.36 335.689 144.972 334.378 144.972C333.485 144.972 332.612 145.215 331.758 145.7C330.904 146.175 330.171 146.835 329.559 147.68C328.948 148.515 328.555 149.476 328.38 150.563L326.05 164.54H322.614ZM377.002 147.185L373.741 148.059C373.624 147.534 373.42 147.03 373.129 146.544C372.848 146.049 372.411 145.646 371.819 145.336C371.236 145.016 370.44 144.855 369.431 144.855C368.062 144.855 366.873 145.171 365.864 145.802C364.854 146.423 364.277 147.214 364.131 148.175C363.986 149.019 364.18 149.694 364.714 150.199C365.247 150.704 366.14 151.116 367.392 151.436L370.596 152.252C372.517 152.747 373.886 153.489 374.701 154.479C375.526 155.46 375.808 156.736 375.546 158.309C375.332 159.59 374.774 160.735 373.872 161.745C372.969 162.754 371.814 163.55 370.406 164.132C368.999 164.715 367.431 165.006 365.704 165.006C363.403 165.006 361.588 164.511 360.258 163.521C358.928 162.521 358.22 161.075 358.133 159.182L361.569 158.367C361.656 159.561 362.083 160.463 362.85 161.075C363.626 161.677 364.714 161.978 366.111 161.978C367.713 161.978 369.047 161.638 370.115 160.958C371.183 160.269 371.79 159.444 371.935 158.483C372.081 157.697 371.925 157.042 371.469 156.518C371.023 155.994 370.246 155.6 369.14 155.338L365.587 154.465C363.607 153.97 362.219 153.213 361.423 152.193C360.637 151.174 360.375 149.893 360.637 148.35C360.85 147.088 361.394 145.972 362.267 145.001C363.151 144.03 364.257 143.268 365.587 142.715C366.927 142.162 368.383 141.885 369.955 141.885C372.168 141.885 373.823 142.371 374.92 143.341C376.017 144.302 376.711 145.583 377.002 147.185ZM432.318 165.064C430.901 165.064 429.658 164.797 428.59 164.263C427.523 163.72 426.732 162.938 426.217 161.919C425.703 160.89 425.562 159.648 425.795 158.192C426.018 156.911 426.45 155.872 427.091 155.076C427.731 154.271 428.508 153.64 429.42 153.184C430.342 152.718 431.332 152.373 432.39 152.15C433.458 151.917 434.521 151.737 435.579 151.611C436.957 151.436 438.078 151.3 438.942 151.203C439.806 151.106 440.456 150.946 440.893 150.723C441.33 150.5 441.597 150.116 441.694 149.573V149.456C441.927 148.029 441.738 146.918 441.126 146.122C440.515 145.316 439.423 144.914 437.85 144.914C436.22 144.914 434.856 145.273 433.759 145.991C432.662 146.709 431.852 147.476 431.328 148.291L428.299 147.127C429.095 145.768 430.046 144.71 431.153 143.953C432.259 143.186 433.419 142.652 434.633 142.351C435.846 142.041 437.016 141.885 438.142 141.885C438.86 141.885 439.67 141.973 440.573 142.147C441.476 142.312 442.32 142.657 443.106 143.181C443.902 143.705 444.499 144.496 444.897 145.554C445.305 146.612 445.363 148.029 445.072 149.806L442.626 164.54H439.19L439.714 161.512H439.539C439.229 161.997 438.753 162.516 438.112 163.07C437.481 163.623 436.681 164.094 435.71 164.482C434.749 164.87 433.618 165.064 432.318 165.064ZM433.308 161.978C434.667 161.978 435.856 161.711 436.875 161.177C437.904 160.643 438.729 159.954 439.35 159.109C439.981 158.265 440.374 157.377 440.529 156.445L441.053 153.3C440.879 153.475 440.534 153.635 440.02 153.78C439.505 153.916 438.923 154.038 438.273 154.144C437.632 154.242 437.006 154.329 436.394 154.407C435.793 154.474 435.307 154.533 434.938 154.581C434.026 154.698 433.157 154.887 432.332 155.149C431.517 155.401 430.828 155.785 430.265 156.299C429.711 156.804 429.367 157.493 429.231 158.367C429.027 159.561 429.314 160.463 430.09 161.075C430.867 161.677 431.939 161.978 433.308 161.978ZM447.5 172.926L452.654 142.176H455.973L455.391 145.729H455.799C456.109 145.341 456.536 144.846 457.08 144.244C457.633 143.632 458.376 143.089 459.308 142.613C460.249 142.128 461.448 141.885 462.904 141.885C464.787 141.885 466.364 142.356 467.636 143.297C468.907 144.239 469.805 145.574 470.329 147.301C470.853 149.029 470.921 151.068 470.533 153.416C470.145 155.785 469.402 157.838 468.305 159.575C467.209 161.303 465.869 162.642 464.287 163.594C462.705 164.535 460.982 165.006 459.118 165.006C457.682 165.006 456.57 164.768 455.784 164.293C454.998 163.807 454.425 163.259 454.066 162.647C453.707 162.026 453.43 161.512 453.236 161.104H452.945L450.965 172.926H447.5ZM454.168 153.358C453.896 155.047 453.896 156.537 454.168 157.828C454.45 159.109 455.008 160.114 455.842 160.842C456.687 161.56 457.798 161.919 459.177 161.919C460.613 161.919 461.87 161.541 462.948 160.784C464.035 160.017 464.928 158.988 465.627 157.697C466.335 156.396 466.825 154.95 467.097 153.358C467.349 151.786 467.34 150.369 467.068 149.107C466.796 147.835 466.243 146.831 465.408 146.093C464.573 145.346 463.428 144.972 461.972 144.972C460.574 144.972 459.337 145.326 458.259 146.035C457.192 146.734 456.308 147.714 455.609 148.976C454.92 150.228 454.44 151.689 454.168 153.358ZM482.308 134.722L477.358 164.54H473.922L478.872 134.722H482.308ZM483.651 164.54L487.379 142.176H490.815L487.087 164.54H483.651ZM490.145 138.391C489.475 138.391 488.898 138.163 488.412 137.707C487.937 137.25 487.699 136.702 487.699 136.061C487.699 135.421 487.937 134.872 488.412 134.416C488.898 133.96 489.475 133.732 490.145 133.732C490.815 133.732 491.387 133.96 491.863 134.416C492.348 134.872 492.591 135.421 492.591 136.061C492.591 136.702 492.348 137.25 491.863 137.707C491.387 138.163 490.815 138.391 490.145 138.391ZM497.923 156.387L498.564 152.135H499.263L510.736 142.176H514.987L502.816 152.718H502.524L497.923 156.387ZM493.381 164.54L498.331 134.722H501.767L496.817 164.54H493.381ZM507.591 164.54L500.719 153.475L503.514 151.087L511.959 164.54H507.591ZM522.205 165.064C520.788 165.064 519.546 164.797 518.478 164.263C517.41 163.72 516.619 162.938 516.105 161.919C515.59 160.89 515.45 159.648 515.683 158.192C515.906 156.911 516.338 155.872 516.978 155.076C517.619 154.271 518.396 153.64 519.308 153.184C520.23 152.718 521.22 152.373 522.278 152.15C523.346 151.917 524.409 151.737 525.467 151.611C526.845 151.436 527.966 151.3 528.83 151.203C529.694 151.106 530.344 150.946 530.781 150.723C531.218 150.5 531.485 150.116 531.582 149.573V149.456C531.815 148.029 531.625 146.918 531.014 146.122C530.402 145.316 529.31 144.914 527.738 144.914C526.107 144.914 524.744 145.273 523.647 145.991C522.55 146.709 521.739 147.476 521.215 148.291L518.187 147.127C518.983 145.768 519.934 144.71 521.041 143.953C522.147 143.186 523.307 142.652 524.52 142.351C525.734 142.041 526.903 141.885 528.029 141.885C528.747 141.885 529.558 141.973 530.461 142.147C531.363 142.312 532.208 142.657 532.994 143.181C533.79 143.705 534.387 144.496 534.785 145.554C535.193 146.612 535.251 148.029 534.96 149.806L532.514 164.54H529.078L529.602 161.512H529.427C529.116 161.997 528.641 162.516 528 163.07C527.369 163.623 526.568 164.094 525.598 164.482C524.637 164.87 523.506 165.064 522.205 165.064ZM523.195 161.978C524.554 161.978 525.743 161.711 526.763 161.177C527.791 160.643 528.616 159.954 529.238 159.109C529.869 158.265 530.262 157.377 530.417 156.445L530.941 153.3C530.766 153.475 530.422 153.635 529.907 153.78C529.393 153.916 528.811 154.038 528.16 154.144C527.52 154.242 526.894 154.329 526.282 154.407C525.68 154.474 525.195 154.533 524.826 154.581C523.914 154.698 523.045 154.887 522.22 155.149C521.405 155.401 520.715 155.785 520.152 156.299C519.599 156.804 519.255 157.493 519.119 158.367C518.915 159.561 519.201 160.463 519.978 161.075C520.754 161.677 521.827 161.978 523.195 161.978ZM547.812 165.006C545.706 165.006 543.978 164.511 542.629 163.521C541.289 162.531 540.358 161.167 539.833 159.43C539.309 157.692 539.232 155.707 539.6 153.475C539.969 151.203 540.717 149.199 541.843 147.462C542.969 145.714 544.371 144.351 546.05 143.37C547.73 142.38 549.579 141.885 551.598 141.885C553.17 141.885 554.539 142.176 555.703 142.759C556.868 143.341 557.766 144.157 558.397 145.205C559.028 146.253 559.324 147.476 559.285 148.874H555.849C555.752 147.855 555.315 146.952 554.539 146.166C553.772 145.37 552.636 144.972 551.132 144.972C549.792 144.972 548.56 145.321 547.434 146.02C546.308 146.709 545.361 147.685 544.594 148.947C543.828 150.199 543.308 151.669 543.037 153.358C542.745 155.086 542.77 156.59 543.109 157.872C543.449 159.153 544.065 160.148 544.958 160.856C545.851 161.565 546.977 161.919 548.336 161.919C549.229 161.919 550.064 161.764 550.841 161.453C551.617 161.143 552.306 160.696 552.908 160.114C553.51 159.532 553.985 158.833 554.335 158.017H557.771C557.344 159.337 556.66 160.526 555.718 161.584C554.777 162.633 553.636 163.467 552.297 164.089C550.957 164.7 549.462 165.006 547.812 165.006ZM571.006 165.006C568.861 165.006 567.089 164.53 565.691 163.579C564.294 162.618 563.318 161.279 562.765 159.561C562.212 157.833 562.124 155.824 562.503 153.533C562.881 151.242 563.634 149.223 564.76 147.476C565.886 145.719 567.288 144.351 568.967 143.37C570.647 142.38 572.491 141.885 574.5 141.885C575.665 141.885 576.786 142.079 577.863 142.468C578.941 142.856 579.873 143.487 580.659 144.36C581.445 145.224 581.993 146.37 582.304 147.796C582.615 149.223 582.595 150.98 582.246 153.067L582.013 154.523H564.774L565.24 151.553H578.984C579.208 150.291 579.149 149.165 578.81 148.175C578.48 147.185 577.902 146.404 577.077 145.831C576.262 145.258 575.228 144.972 573.976 144.972C572.685 144.972 571.481 145.321 570.365 146.02C569.249 146.709 568.317 147.583 567.57 148.641C566.822 149.689 566.356 150.757 566.172 151.844L565.764 154.407C565.473 156.26 565.517 157.736 565.895 158.833C566.283 159.929 566.958 160.721 567.919 161.206C568.88 161.681 570.084 161.919 571.53 161.919C572.452 161.919 573.301 161.793 574.078 161.541C574.854 161.279 575.548 160.89 576.16 160.376C576.771 159.852 577.286 159.201 577.703 158.425L580.848 159.357C580.314 160.483 579.562 161.473 578.591 162.327C577.63 163.171 576.504 163.831 575.213 164.307C573.932 164.773 572.53 165.006 571.006 165.006Z" fill="black"/>
</svg>
