<svg width="627" height="225" viewBox="0 0 627 225" fill="none" xmlns="http://www.w3.org/2000/svg">
<path d="M416.44 99.407V89.2351L441.945 49.0547H450.715V63.1342H445.524L429.446 88.5788V89.0561H465.689V99.407H416.44ZM445.763 110.146V96.3047L446.002 91.8004V49.0547H458.112V110.146H445.763Z" fill="black"/>
<path d="M410.426 78.0721C410.426 71.1608 407.681 64.5324 402.794 59.6454C397.907 54.7583 391.278 52.0127 384.367 52.0127C377.456 52.0127 370.827 54.7583 365.94 59.6454C361.053 64.5324 358.308 71.1608 358.308 78.0721C358.308 84.9835 361.053 91.6118 365.94 96.4989C370.827 101.386 377.456 104.132 384.367 104.132C391.278 104.132 397.907 101.386 402.794 96.4989C407.681 91.6118 410.426 84.9835 410.426 78.0721ZM352.294 78.0721C352.294 69.5658 355.673 61.4079 361.688 55.393C367.703 49.3781 375.861 45.999 384.367 45.999C392.873 45.999 401.031 49.3781 407.046 55.393C413.061 61.4079 416.44 69.5658 416.44 78.0721C416.44 86.5785 413.061 94.7364 407.046 100.751C401.031 106.766 392.873 110.145 384.367 110.145C375.861 110.145 367.703 106.766 361.688 100.751C355.673 94.7364 352.294 86.5785 352.294 78.0721ZM393.651 60.482C394.377 61.0709 394.603 62.0982 394.177 62.9376L387.612 76.0676H396.394C397.246 76.0676 398.011 76.6063 398.286 77.4081C398.562 78.21 398.311 79.0995 397.647 79.6382L377.602 95.6748C376.862 96.2636 375.823 96.2636 375.083 95.6622C374.344 95.0609 374.131 94.0461 374.545 93.2066L381.122 80.0767H372.34C371.488 80.0767 370.736 79.538 370.448 78.7362C370.16 77.9343 370.423 77.0448 371.087 76.5061L391.132 60.4695C391.872 59.8807 392.912 59.8807 393.651 60.482Z" fill="black"/>
<path d="M301.679 99.407V89.2351L327.183 49.0547H335.953V63.1342H330.763L314.684 88.5788V89.0561H350.927V99.407H301.679ZM331.001 110.146V96.3047L331.24 91.8004V49.0547H343.351V110.146H331.001Z" fill="black"/>
<path d="M271.909 111.04C267.275 111.04 263.268 110.056 259.887 108.087C256.526 106.098 253.931 103.334 252.102 99.7944C250.272 96.2347 249.357 92.1083 249.357 87.4151C249.357 82.6822 250.272 78.5458 252.102 75.006C253.931 71.4464 256.526 68.6822 259.887 66.7134C263.268 64.7248 267.275 63.7305 271.909 63.7305C276.542 63.7305 280.539 64.7248 283.9 66.7134C287.281 68.6822 289.886 71.4464 291.715 75.006C293.545 78.5458 294.46 82.6822 294.46 87.4151C294.46 92.1083 293.545 96.2347 291.715 99.7944C289.886 103.334 287.281 106.098 283.9 108.087C280.539 110.056 276.542 111.04 271.909 111.04ZM271.968 101.196C274.076 101.196 275.836 100.6 277.248 99.4066C278.66 98.1935 279.724 96.543 280.44 94.4549C281.176 92.3668 281.544 89.9904 281.544 87.3256C281.544 84.6609 281.176 82.2844 280.44 80.1964C279.724 78.1083 278.66 76.4577 277.248 75.2447C275.836 74.0316 274.076 73.4251 271.968 73.4251C269.84 73.4251 268.051 74.0316 266.599 75.2447C265.167 76.4577 264.083 78.1083 263.347 80.1964C262.632 82.2844 262.274 84.6609 262.274 87.3256C262.274 89.9904 262.632 92.3668 263.347 94.4549C264.083 96.543 265.167 98.1935 266.599 99.4066C268.051 100.6 269.84 101.196 271.968 101.196Z" fill="black"/>
<path d="M228.32 110.145V64.3272H241.027V110.145H228.32ZM234.704 58.421C232.814 58.421 231.194 57.7946 229.841 56.5417C228.509 55.269 227.843 53.7477 227.843 51.9778C227.843 50.2278 228.509 48.7264 229.841 47.4735C231.194 46.2008 232.814 45.5645 234.704 45.5645C236.593 45.5645 238.204 46.2008 239.536 47.4735C240.888 48.7264 241.564 50.2278 241.564 51.9778C241.564 53.7477 240.888 55.269 239.536 56.5417C238.204 57.7946 236.593 58.421 234.704 58.421Z" fill="black"/>
<path d="M191.802 110.891C188.321 110.891 185.169 109.996 182.346 108.207C179.542 106.397 177.314 103.742 175.664 100.242C174.033 96.7223 173.218 92.407 173.218 87.2962C173.218 82.0462 174.063 77.6811 175.753 74.201C177.444 70.701 179.691 68.0859 182.495 66.3558C185.319 64.6058 188.411 63.7308 191.772 63.7308C194.337 63.7308 196.475 64.1683 198.185 65.0433C199.915 65.8984 201.307 66.9723 202.361 68.2649C203.435 69.5376 204.25 70.7905 204.807 72.0234H205.195V49.0547H217.873V110.146H205.344V102.808H204.807C204.211 104.08 203.365 105.343 202.272 106.596C201.198 107.829 199.796 108.853 198.066 109.668C196.356 110.484 194.267 110.891 191.802 110.891ZM195.829 100.779C197.877 100.779 199.607 100.222 201.019 99.1087C202.451 97.9751 203.544 96.3942 204.3 94.3658C205.076 92.3374 205.464 89.9609 205.464 87.2365C205.464 84.5121 205.086 82.1456 204.33 80.1371C203.574 78.1286 202.481 76.5774 201.049 75.4837C199.617 74.3899 197.877 73.843 195.829 73.843C193.74 73.843 191.981 74.4098 190.549 75.5433C189.117 76.6768 188.033 78.2479 187.297 80.2564C186.562 82.2649 186.194 84.5916 186.194 87.2365C186.194 89.9013 186.562 92.2578 187.297 94.3061C188.053 96.3345 189.137 97.9254 190.549 99.0788C191.981 100.212 193.74 100.779 195.829 100.779Z" fill="black"/>
<path d="M152.046 90.6368V64.3271H164.754V110.145H152.553V101.823H152.076C151.042 104.508 149.322 106.665 146.915 108.296C144.529 109.927 141.616 110.742 138.175 110.742C135.113 110.742 132.418 110.046 130.092 108.654C127.765 107.262 125.945 105.283 124.633 102.718C123.34 100.152 122.684 97.08 122.664 93.5004V64.3271H135.371V91.2334C135.391 93.9379 136.117 96.0757 137.549 97.6468C138.981 99.2178 140.9 100.003 143.306 100.003C144.837 100.003 146.269 99.6553 147.602 98.9593C148.934 98.2433 150.008 97.1894 150.823 95.7973C151.658 94.4053 152.066 92.6851 152.046 90.6368Z" fill="black"/>
<path d="M114.386 64.3274V73.8728H86.7939V64.3274H114.386ZM93.0582 53.3501H105.766V96.066C105.766 97.2393 105.945 98.1541 106.302 98.8103C106.66 99.4467 107.158 99.8941 107.794 100.153C108.45 100.411 109.206 100.54 110.061 100.54C110.658 100.54 111.254 100.491 111.851 100.391C112.447 100.272 112.905 100.182 113.223 100.123L115.222 109.579C114.585 109.778 113.69 110.006 112.537 110.265C111.383 110.543 109.981 110.712 108.331 110.772C105.268 110.891 102.584 110.484 100.277 109.549C97.99 108.614 96.2101 107.163 94.9374 105.194C93.6647 103.225 93.0383 100.739 93.0582 97.7365V53.3501Z" fill="black"/>
<path d="M80.9699 77.3924L69.3364 78.1083C69.1375 77.114 68.71 76.2191 68.0537 75.4236C67.3975 74.6083 66.5324 73.962 65.4585 73.4847C64.4046 72.9876 63.1418 72.739 61.6702 72.739C59.7014 72.739 58.0409 73.1566 56.6887 73.9918C55.3364 74.8072 54.6602 75.9009 54.6602 77.2731C54.6602 78.3668 55.0977 79.2915 55.9727 80.0472C56.8477 80.8029 58.3492 81.4094 60.477 81.8668L68.7696 83.5373C73.2242 84.4521 76.5452 85.9236 78.7327 87.9521C80.9202 89.9805 82.0139 92.6452 82.0139 95.9464C82.0139 98.9492 81.129 101.584 79.3591 103.851C77.6091 106.118 75.2029 107.888 72.1404 109.161C69.0977 110.414 65.5878 111.04 61.6105 111.04C55.5452 111.04 50.7128 109.777 47.1134 107.252C43.5338 104.706 41.4358 101.246 40.8193 96.8711L53.3179 96.2148C53.6958 98.0643 54.6105 99.4762 56.0622 100.451C57.5139 101.405 59.3733 101.882 61.6404 101.882C63.8676 101.882 65.6574 101.455 67.0097 100.6C68.3818 99.7248 69.0779 98.6012 69.0977 97.229C69.0779 96.0756 68.5906 95.131 67.6361 94.3952C66.6816 93.6396 65.21 93.0629 63.2213 92.6651L55.2867 91.0842C50.8122 90.1893 47.4813 88.6381 45.2938 86.4308C43.1262 84.2234 42.0423 81.4094 42.0423 77.989C42.0423 75.0458 42.8378 72.5103 44.4287 70.3825C46.0395 68.2546 48.2966 66.614 51.2 65.4606C54.1233 64.3072 57.5438 63.7305 61.4614 63.7305C67.2483 63.7305 71.8023 64.9535 75.1233 67.3995C78.4642 69.8455 80.4131 73.1765 80.9699 77.3924Z" fill="black"/>
<path d="M547.502 110.145V102.568L569.934 74.7968V74.4687H548.277V64.3267H585.236V72.5894L564.177 99.6747V100.003H586.012V110.145H547.502Z" fill="black"/>
<path d="M519.142 111.04C514.449 111.04 510.412 110.046 507.031 108.057C503.67 106.049 501.085 103.265 499.275 99.7049C497.486 96.1452 496.591 92.0486 496.591 87.4151C496.591 82.7219 497.496 78.6055 499.305 75.0657C501.135 71.506 503.73 68.7319 507.091 66.7432C510.452 64.7347 514.449 63.7305 519.082 63.7305C523.079 63.7305 526.579 64.4563 529.582 65.908C532.585 67.3597 534.962 69.3981 536.712 72.0231C538.462 74.6481 539.426 77.7305 539.605 81.2702H527.614C527.275 78.9833 526.381 77.1438 524.929 75.7518C523.497 74.3398 521.618 73.6339 519.291 73.6339C517.322 73.6339 515.602 74.1708 514.131 75.2447C512.679 76.2986 511.545 77.8398 510.73 79.8683C509.915 81.8967 509.507 84.3526 509.507 87.2361C509.507 90.1594 509.905 92.6452 510.7 94.6935C511.516 96.7418 512.659 98.3029 514.131 99.3768C515.602 100.451 517.322 100.988 519.291 100.988C520.743 100.988 522.045 100.689 523.199 100.093C524.372 99.4961 525.337 98.631 526.092 97.4975C526.868 96.3441 527.375 94.962 527.614 93.3512H539.605C539.406 96.8512 538.452 99.9336 536.741 102.598C535.051 105.243 532.714 107.311 529.731 108.803C526.748 110.294 523.219 111.04 519.142 111.04Z" fill="black"/>
<path d="M480.849 110.921C478.88 110.921 477.189 110.225 475.778 108.833C474.385 107.421 473.689 105.73 473.689 103.762C473.689 101.813 474.385 100.142 475.778 98.7502C477.189 97.3581 478.88 96.6621 480.849 96.6621C482.758 96.6621 484.428 97.3581 485.86 98.7502C487.292 100.142 488.008 101.813 488.008 103.762C488.008 105.074 487.67 106.277 486.993 107.371C486.337 108.445 485.472 109.31 484.398 109.966C483.324 110.602 482.141 110.921 480.849 110.921Z" fill="black"/>
<line x1="40.8193" y1="118.54" x2="586.011" y2="118.54" stroke="black" stroke-width="3"/>
<path d="M47.1673 169.04L44.0807 146.676H47.6915L49.6716 163.799H49.9046L57.5338 146.676H61.2029L63.0665 163.74H63.2995L70.987 146.676H74.5977L64.0566 169.04H60.6787L58.6404 151.86H58.2909L50.5452 169.04H47.1673ZM83.9705 169.506C81.8254 169.506 80.054 169.03 78.6562 168.079C77.2585 167.118 76.283 165.779 75.7298 164.061C75.1765 162.333 75.0891 160.324 75.4677 158.033C75.8462 155.742 76.5985 153.723 77.7244 151.976C78.8504 150.219 80.253 148.851 81.9322 147.87C83.6114 146.88 85.4556 146.385 87.4648 146.385C88.6296 146.385 89.7507 146.579 90.8281 146.968C91.9055 147.356 92.8374 147.987 93.6236 148.86C94.4098 149.724 94.9582 150.87 95.2688 152.296C95.5794 153.723 95.56 155.48 95.2106 157.567L94.9776 159.023H77.739L78.2049 156.053H91.9492C92.1725 154.791 92.1142 153.665 91.7745 152.675C91.4445 151.685 90.867 150.904 90.0419 150.331C89.2266 149.758 88.1928 149.472 86.9407 149.472C85.6497 149.472 84.4461 149.821 83.3299 150.52C82.2137 151.209 81.2818 152.083 80.5344 153.141C79.7871 154.189 79.3211 155.257 79.1367 156.344L78.729 158.907C78.4379 160.76 78.4815 162.236 78.8601 163.333C79.2483 164.429 79.9229 165.221 80.8839 165.706C81.8448 166.181 83.0484 166.419 84.4947 166.419C85.4168 166.419 86.2661 166.293 87.0426 166.041C87.8191 165.779 88.5131 165.39 89.1246 164.876C89.7362 164.352 90.2506 163.701 90.668 162.925L93.8129 163.857C93.279 164.983 92.5268 165.973 91.5561 166.827C90.5952 167.671 89.4692 168.331 88.1783 168.807C86.897 169.273 85.4944 169.506 83.9705 169.506ZM99.0616 169.04L104.012 139.222H107.448L105.643 150.229H105.934C106.244 149.841 106.676 149.346 107.23 148.744C107.783 148.132 108.525 147.589 109.457 147.113C110.389 146.628 111.583 146.385 113.039 146.385C114.922 146.385 116.499 146.856 117.771 147.797C119.052 148.739 119.95 150.074 120.464 151.801C120.988 153.529 121.056 155.568 120.668 157.916C120.28 160.285 119.537 162.338 118.441 164.075C117.353 165.803 116.014 167.142 114.422 168.094C112.84 169.035 111.117 169.506 109.253 169.506C107.817 169.506 106.705 169.268 105.919 168.793C105.143 168.307 104.57 167.759 104.201 167.147C103.842 166.526 103.565 166.012 103.371 165.604H102.964L102.381 169.04H99.0616ZM104.303 157.858C104.031 159.547 104.036 161.037 104.318 162.328C104.599 163.609 105.157 164.614 105.992 165.342C106.827 166.06 107.933 166.419 109.312 166.419C110.748 166.419 112.01 166.041 113.097 165.284C114.184 164.517 115.077 163.488 115.776 162.197C116.475 160.896 116.96 159.45 117.232 157.858C117.484 156.286 117.475 154.869 117.203 153.607C116.941 152.335 116.388 151.331 115.543 150.593C114.708 149.846 113.563 149.472 112.107 149.472C110.709 149.472 109.472 149.826 108.394 150.535C107.327 151.234 106.443 152.214 105.744 153.476C105.055 154.728 104.575 156.189 104.303 157.858ZM132.476 169.506C130.603 169.506 129.03 169.035 127.759 168.094C126.487 167.142 125.589 165.803 125.065 164.075C124.551 162.338 124.488 160.285 124.876 157.916C125.274 155.568 126.016 153.529 127.104 151.801C128.2 150.074 129.545 148.739 131.137 147.797C132.728 146.856 134.466 146.385 136.349 146.385C137.805 146.385 138.916 146.628 139.683 147.113C140.46 147.589 141.023 148.132 141.372 148.744C141.721 149.346 141.988 149.841 142.173 150.229H142.464L144.298 139.222H147.735L142.784 169.04H139.465L140.047 165.604H139.639C139.319 166.012 138.873 166.526 138.3 167.147C137.727 167.759 136.97 168.307 136.029 168.793C135.097 169.268 133.913 169.506 132.476 169.506ZM133.32 166.419C134.699 166.419 135.932 166.06 137.019 165.342C138.115 164.614 139.028 163.609 139.756 162.328C140.484 161.037 140.989 159.547 141.27 157.858C141.552 156.189 141.542 154.728 141.241 153.476C140.94 152.214 140.363 151.234 139.508 150.535C138.654 149.826 137.523 149.472 136.116 149.472C134.67 149.472 133.413 149.846 132.345 150.593C131.277 151.331 130.409 152.335 129.739 153.607C129.069 154.869 128.603 156.286 128.341 157.858C128.079 159.45 128.074 160.896 128.327 162.197C128.579 163.488 129.113 164.517 129.928 165.284C130.753 166.041 131.884 166.419 133.32 166.419ZM158.844 169.506C156.698 169.506 154.927 169.03 153.529 168.079C152.132 167.118 151.156 165.779 150.603 164.061C150.05 162.333 149.962 160.324 150.341 158.033C150.719 155.742 151.472 153.723 152.597 151.976C153.723 150.219 155.126 148.851 156.805 147.87C158.484 146.88 160.329 146.385 162.338 146.385C163.503 146.385 164.624 146.579 165.701 146.968C166.779 147.356 167.71 147.987 168.497 148.86C169.283 149.724 169.831 150.87 170.142 152.296C170.452 153.723 170.433 155.48 170.084 157.567L169.851 159.023H152.612L153.078 156.053H166.822C167.046 154.791 166.987 153.665 166.648 152.675C166.318 151.685 165.74 150.904 164.915 150.331C164.1 149.758 163.066 149.472 161.814 149.472C160.523 149.472 159.319 149.821 158.203 150.52C157.087 151.209 156.155 152.083 155.407 153.141C154.66 154.189 154.194 155.257 154.01 156.344L153.602 158.907C153.311 160.76 153.355 162.236 153.733 163.333C154.121 164.429 154.796 165.221 155.757 165.706C156.718 166.181 157.921 166.419 159.368 166.419C160.29 166.419 161.139 166.293 161.916 166.041C162.692 165.779 163.386 165.39 163.998 164.876C164.609 164.352 165.124 163.701 165.541 162.925L168.686 163.857C168.152 164.983 167.4 165.973 166.429 166.827C165.468 167.671 164.342 168.331 163.051 168.807C161.77 169.273 160.367 169.506 158.844 169.506ZM192.222 151.685L188.96 152.559C188.844 152.034 188.64 151.53 188.349 151.044C188.067 150.549 187.63 150.146 187.038 149.836C186.456 149.516 185.66 149.355 184.651 149.355C183.282 149.355 182.093 149.671 181.083 150.302C180.074 150.923 179.496 151.714 179.351 152.675C179.205 153.519 179.399 154.194 179.933 154.699C180.467 155.204 181.36 155.616 182.612 155.936L185.815 156.752C187.737 157.247 189.106 157.989 189.921 158.979C190.746 159.96 191.028 161.236 190.766 162.809C190.552 164.09 189.994 165.235 189.091 166.245C188.189 167.254 187.033 168.05 185.626 168.632C184.219 169.215 182.651 169.506 180.923 169.506C178.623 169.506 176.808 169.011 175.478 168.021C174.148 167.021 173.44 165.575 173.352 163.682L176.788 162.867C176.876 164.061 177.303 164.963 178.07 165.575C178.846 166.177 179.933 166.478 181.331 166.478C182.933 166.478 184.267 166.138 185.335 165.458C186.403 164.769 187.009 163.944 187.155 162.983C187.3 162.197 187.145 161.542 186.689 161.018C186.242 160.494 185.466 160.1 184.359 159.838L180.807 158.965C178.827 158.47 177.439 157.713 176.643 156.693C175.857 155.674 175.594 154.393 175.857 152.85C176.07 151.588 176.614 150.472 177.487 149.501C178.371 148.53 179.477 147.768 180.807 147.215C182.146 146.662 183.602 146.385 185.175 146.385C187.388 146.385 189.043 146.871 190.14 147.841C191.236 148.802 191.93 150.083 192.222 151.685ZM194.89 169.04L198.617 146.676H202.053L198.326 169.04H194.89ZM201.383 142.891C200.714 142.891 200.136 142.663 199.651 142.207C199.175 141.75 198.937 141.202 198.937 140.561C198.937 139.921 199.175 139.372 199.651 138.916C200.136 138.46 200.714 138.232 201.383 138.232C202.053 138.232 202.626 138.46 203.101 138.916C203.587 139.372 203.829 139.921 203.829 140.561C203.829 141.202 203.587 141.75 203.101 142.207C202.626 142.663 202.053 142.891 201.383 142.891ZM212.248 177.892C210.579 177.892 209.181 177.679 208.055 177.252C206.929 176.834 206.027 176.281 205.347 175.592C204.668 174.912 204.153 174.184 203.804 173.408L206.89 171.486C207.123 171.894 207.424 172.36 207.793 172.884C208.162 173.418 208.72 173.879 209.468 174.267C210.225 174.665 211.287 174.864 212.656 174.864C214.452 174.864 216.024 174.427 217.373 173.554C218.723 172.68 219.557 171.311 219.878 169.448L220.577 164.905H220.285C219.975 165.313 219.543 165.818 218.99 166.419C218.436 167.011 217.694 167.54 216.762 168.006C215.83 168.463 214.636 168.691 213.18 168.691C211.365 168.691 209.812 168.264 208.521 167.409C207.23 166.555 206.303 165.313 205.74 163.682C205.187 162.051 205.104 160.071 205.493 157.742C205.871 155.451 206.599 153.456 207.677 151.758C208.764 150.049 210.103 148.729 211.695 147.797C213.287 146.856 215.024 146.385 216.907 146.385C218.363 146.385 219.48 146.628 220.256 147.113C221.042 147.589 221.615 148.132 221.974 148.744C222.333 149.346 222.605 149.841 222.79 150.229H223.139L223.721 146.676H227.041L223.256 169.681C222.935 171.603 222.241 173.165 221.173 174.369C220.106 175.582 218.795 176.47 217.242 177.033C215.689 177.606 214.025 177.892 212.248 177.892ZM214.054 165.604C215.422 165.604 216.641 165.289 217.708 164.658C218.786 164.027 219.679 163.119 220.387 161.935C221.096 160.751 221.586 159.334 221.858 157.684C222.13 156.072 222.11 154.65 221.8 153.418C221.489 152.185 220.902 151.219 220.038 150.52C219.184 149.821 218.063 149.472 216.675 149.472C215.209 149.472 213.942 149.841 212.874 150.578C211.816 151.316 210.957 152.306 210.297 153.549C209.637 154.791 209.181 156.169 208.929 157.684C208.676 159.237 208.686 160.61 208.958 161.804C209.23 162.988 209.783 163.92 210.618 164.599C211.462 165.269 212.608 165.604 214.054 165.604ZM235.253 155.587L233.04 169.04H229.604L233.331 146.676H236.65L236.068 150.171H236.359C237.058 149.035 238.004 148.123 239.198 147.434C240.392 146.735 241.834 146.385 243.523 146.385C245.017 146.385 246.279 146.696 247.308 147.317C248.347 147.929 249.079 148.86 249.507 150.112C249.943 151.355 250.006 152.927 249.696 154.83L247.308 169.04H243.872L246.202 155.063C246.493 153.316 246.265 151.947 245.517 150.957C244.78 149.967 243.61 149.472 242.008 149.472C240.902 149.472 239.878 149.71 238.936 150.185C238.004 150.661 237.213 151.355 236.563 152.267C235.922 153.18 235.486 154.286 235.253 155.587ZM308.739 169.506C306.633 169.506 304.905 169.011 303.556 168.021C302.216 167.031 301.284 165.667 300.76 163.93C300.236 162.192 300.158 160.207 300.527 157.975C300.896 155.703 301.643 153.699 302.769 151.962C303.895 150.214 305.298 148.851 306.977 147.87C308.656 146.88 310.505 146.385 312.524 146.385C314.097 146.385 315.465 146.676 316.63 147.259C317.795 147.841 318.693 148.657 319.324 149.705C319.955 150.753 320.251 151.976 320.212 153.374H316.776C316.679 152.355 316.242 151.452 315.465 150.666C314.699 149.87 313.563 149.472 312.059 149.472C310.719 149.472 309.486 149.821 308.36 150.52C307.234 151.209 306.288 152.185 305.521 153.447C304.754 154.699 304.235 156.169 303.963 157.858C303.672 159.586 303.696 161.09 304.036 162.372C304.376 163.653 304.992 164.648 305.885 165.356C306.778 166.065 307.904 166.419 309.263 166.419C310.156 166.419 310.991 166.264 311.767 165.953C312.544 165.643 313.233 165.196 313.835 164.614C314.437 164.032 314.912 163.333 315.262 162.517H318.698C318.271 163.837 317.586 165.026 316.645 166.084C315.703 167.133 314.563 167.967 313.223 168.589C311.884 169.2 310.389 169.506 308.739 169.506ZM322.614 169.04L326.342 146.676H329.661L329.079 150.171H329.37C330.04 148.977 330.947 148.05 332.093 147.39C333.248 146.72 334.553 146.385 336.009 146.385C337.465 146.385 338.635 146.72 339.518 147.39C340.401 148.05 341.018 148.977 341.367 150.171H341.6C342.357 149.006 343.367 148.084 344.628 147.404C345.9 146.725 347.337 146.385 348.938 146.385C350.918 146.385 352.442 147.011 353.51 148.263C354.587 149.516 354.908 151.452 354.471 154.073L351.967 169.04H348.53L351.035 154.073C351.297 152.413 351.035 151.234 350.248 150.535C349.472 149.826 348.472 149.472 347.249 149.472C345.677 149.472 344.381 149.943 343.362 150.884C342.343 151.826 341.717 153.024 341.484 154.48L339.038 169.04H335.543L338.106 153.723C338.31 152.442 338.067 151.413 337.378 150.637C336.689 149.86 335.689 149.472 334.378 149.472C333.485 149.472 332.612 149.715 331.758 150.2C330.904 150.675 330.171 151.335 329.559 152.18C328.948 153.015 328.555 153.976 328.38 155.063L326.05 169.04H322.614ZM377.002 151.685L373.741 152.559C373.624 152.034 373.42 151.53 373.129 151.044C372.848 150.549 372.411 150.146 371.819 149.836C371.236 149.516 370.44 149.355 369.431 149.355C368.062 149.355 366.873 149.671 365.864 150.302C364.854 150.923 364.277 151.714 364.131 152.675C363.986 153.519 364.18 154.194 364.714 154.699C365.247 155.204 366.14 155.616 367.392 155.936L370.596 156.752C372.517 157.247 373.886 157.989 374.701 158.979C375.526 159.96 375.808 161.236 375.546 162.809C375.332 164.09 374.774 165.235 373.872 166.245C372.969 167.254 371.814 168.05 370.406 168.632C368.999 169.215 367.431 169.506 365.704 169.506C363.403 169.506 361.588 169.011 360.258 168.021C358.928 167.021 358.22 165.575 358.133 163.682L361.569 162.867C361.656 164.061 362.083 164.963 362.85 165.575C363.626 166.177 364.714 166.478 366.111 166.478C367.713 166.478 369.047 166.138 370.115 165.458C371.183 164.769 371.79 163.944 371.935 162.983C372.081 162.197 371.925 161.542 371.469 161.018C371.023 160.494 370.246 160.1 369.14 159.838L365.587 158.965C363.607 158.47 362.219 157.713 361.423 156.693C360.637 155.674 360.375 154.393 360.637 152.85C360.85 151.588 361.394 150.472 362.267 149.501C363.151 148.53 364.257 147.768 365.587 147.215C366.927 146.662 368.383 146.385 369.955 146.385C372.168 146.385 373.823 146.871 374.92 147.841C376.017 148.802 376.711 150.083 377.002 151.685ZM432.318 169.564C430.901 169.564 429.658 169.297 428.59 168.763C427.523 168.22 426.732 167.438 426.217 166.419C425.703 165.39 425.562 164.148 425.795 162.692C426.018 161.411 426.45 160.372 427.091 159.576C427.731 158.771 428.508 158.14 429.42 157.684C430.342 157.218 431.332 156.873 432.39 156.65C433.458 156.417 434.521 156.237 435.579 156.111C436.957 155.936 438.078 155.8 438.942 155.703C439.806 155.606 440.456 155.446 440.893 155.223C441.33 155 441.597 154.616 441.694 154.073V153.956C441.927 152.529 441.738 151.418 441.126 150.622C440.515 149.816 439.423 149.414 437.85 149.414C436.22 149.414 434.856 149.773 433.759 150.491C432.662 151.209 431.852 151.976 431.328 152.791L428.299 151.627C429.095 150.268 430.046 149.21 431.153 148.453C432.259 147.686 433.419 147.152 434.633 146.851C435.846 146.541 437.016 146.385 438.142 146.385C438.86 146.385 439.67 146.473 440.573 146.647C441.476 146.812 442.32 147.157 443.106 147.681C443.902 148.205 444.499 148.996 444.897 150.054C445.305 151.112 445.363 152.529 445.072 154.306L442.626 169.04H439.19L439.714 166.012H439.539C439.229 166.497 438.753 167.016 438.112 167.57C437.481 168.123 436.681 168.594 435.71 168.982C434.749 169.37 433.618 169.564 432.318 169.564ZM433.308 166.478C434.667 166.478 435.856 166.211 436.875 165.677C437.904 165.143 438.729 164.454 439.35 163.609C439.981 162.765 440.374 161.877 440.529 160.945L441.053 157.8C440.879 157.975 440.534 158.135 440.02 158.28C439.505 158.416 438.923 158.538 438.273 158.644C437.632 158.742 437.006 158.829 436.394 158.907C435.793 158.974 435.307 159.033 434.938 159.081C434.026 159.198 433.157 159.387 432.332 159.649C431.517 159.901 430.828 160.285 430.265 160.799C429.711 161.304 429.367 161.993 429.231 162.867C429.027 164.061 429.314 164.963 430.09 165.575C430.867 166.177 431.939 166.478 433.308 166.478ZM447.5 177.426L452.654 146.676H455.973L455.391 150.229H455.799C456.109 149.841 456.536 149.346 457.08 148.744C457.633 148.132 458.376 147.589 459.308 147.113C460.249 146.628 461.448 146.385 462.904 146.385C464.787 146.385 466.364 146.856 467.636 147.797C468.907 148.739 469.805 150.074 470.329 151.801C470.853 153.529 470.921 155.568 470.533 157.916C470.145 160.285 469.402 162.338 468.305 164.075C467.209 165.803 465.869 167.142 464.287 168.094C462.705 169.035 460.982 169.506 459.118 169.506C457.682 169.506 456.57 169.268 455.784 168.793C454.998 168.307 454.425 167.759 454.066 167.147C453.707 166.526 453.43 166.012 453.236 165.604H452.945L450.965 177.426H447.5ZM454.168 157.858C453.896 159.547 453.896 161.037 454.168 162.328C454.45 163.609 455.008 164.614 455.842 165.342C456.687 166.06 457.798 166.419 459.177 166.419C460.613 166.419 461.87 166.041 462.948 165.284C464.035 164.517 464.928 163.488 465.627 162.197C466.335 160.896 466.825 159.45 467.097 157.858C467.349 156.286 467.34 154.869 467.068 153.607C466.796 152.335 466.243 151.331 465.408 150.593C464.573 149.846 463.428 149.472 461.972 149.472C460.574 149.472 459.337 149.826 458.259 150.535C457.192 151.234 456.308 152.214 455.609 153.476C454.92 154.728 454.44 156.189 454.168 157.858ZM482.308 139.222L477.358 169.04H473.922L478.872 139.222H482.308ZM483.651 169.04L487.379 146.676H490.815L487.087 169.04H483.651ZM490.145 142.891C489.475 142.891 488.898 142.663 488.412 142.207C487.937 141.75 487.699 141.202 487.699 140.561C487.699 139.921 487.937 139.372 488.412 138.916C488.898 138.46 489.475 138.232 490.145 138.232C490.815 138.232 491.387 138.46 491.863 138.916C492.348 139.372 492.591 139.921 492.591 140.561C492.591 141.202 492.348 141.75 491.863 142.207C491.387 142.663 490.815 142.891 490.145 142.891ZM497.923 160.887L498.564 156.635H499.263L510.736 146.676H514.987L502.816 157.218H502.524L497.923 160.887ZM493.381 169.04L498.331 139.222H501.767L496.817 169.04H493.381ZM507.591 169.04L500.719 157.975L503.514 155.587L511.959 169.04H507.591ZM522.205 169.564C520.788 169.564 519.546 169.297 518.478 168.763C517.41 168.22 516.619 167.438 516.105 166.419C515.59 165.39 515.45 164.148 515.683 162.692C515.906 161.411 516.338 160.372 516.978 159.576C517.619 158.771 518.396 158.14 519.308 157.684C520.23 157.218 521.22 156.873 522.278 156.65C523.346 156.417 524.409 156.237 525.467 156.111C526.845 155.936 527.966 155.8 528.83 155.703C529.694 155.606 530.344 155.446 530.781 155.223C531.218 155 531.485 154.616 531.582 154.073V153.956C531.815 152.529 531.625 151.418 531.014 150.622C530.402 149.816 529.31 149.414 527.738 149.414C526.107 149.414 524.744 149.773 523.647 150.491C522.55 151.209 521.739 151.976 521.215 152.791L518.187 151.627C518.983 150.268 519.934 149.21 521.041 148.453C522.147 147.686 523.307 147.152 524.52 146.851C525.734 146.541 526.903 146.385 528.029 146.385C528.747 146.385 529.558 146.473 530.461 146.647C531.363 146.812 532.208 147.157 532.994 147.681C533.79 148.205 534.387 148.996 534.785 150.054C535.193 151.112 535.251 152.529 534.96 154.306L532.514 169.04H529.078L529.602 166.012H529.427C529.116 166.497 528.641 167.016 528 167.57C527.369 168.123 526.568 168.594 525.598 168.982C524.637 169.37 523.506 169.564 522.205 169.564ZM523.195 166.478C524.554 166.478 525.743 166.211 526.763 165.677C527.791 165.143 528.616 164.454 529.238 163.609C529.869 162.765 530.262 161.877 530.417 160.945L530.941 157.8C530.766 157.975 530.422 158.135 529.907 158.28C529.393 158.416 528.811 158.538 528.16 158.644C527.52 158.742 526.894 158.829 526.282 158.907C525.68 158.974 525.195 159.033 524.826 159.081C523.914 159.198 523.045 159.387 522.22 159.649C521.405 159.901 520.715 160.285 520.152 160.799C519.599 161.304 519.255 161.993 519.119 162.867C518.915 164.061 519.201 164.963 519.978 165.575C520.754 166.177 521.827 166.478 523.195 166.478ZM547.812 169.506C545.706 169.506 543.978 169.011 542.629 168.021C541.289 167.031 540.358 165.667 539.833 163.93C539.309 162.192 539.232 160.207 539.6 157.975C539.969 155.703 540.717 153.699 541.843 151.962C542.969 150.214 544.371 148.851 546.05 147.87C547.73 146.88 549.579 146.385 551.598 146.385C553.17 146.385 554.539 146.676 555.703 147.259C556.868 147.841 557.766 148.657 558.397 149.705C559.028 150.753 559.324 151.976 559.285 153.374H555.849C555.752 152.355 555.315 151.452 554.539 150.666C553.772 149.87 552.636 149.472 551.132 149.472C549.792 149.472 548.56 149.821 547.434 150.52C546.308 151.209 545.361 152.185 544.594 153.447C543.828 154.699 543.308 156.169 543.037 157.858C542.745 159.586 542.77 161.09 543.109 162.372C543.449 163.653 544.065 164.648 544.958 165.356C545.851 166.065 546.977 166.419 548.336 166.419C549.229 166.419 550.064 166.264 550.841 165.953C551.617 165.643 552.306 165.196 552.908 164.614C553.51 164.032 553.985 163.333 554.335 162.517H557.771C557.344 163.837 556.66 165.026 555.718 166.084C554.777 167.133 553.636 167.967 552.297 168.589C550.957 169.2 549.462 169.506 547.812 169.506ZM571.006 169.506C568.861 169.506 567.089 169.03 565.691 168.079C564.294 167.118 563.318 165.779 562.765 164.061C562.212 162.333 562.124 160.324 562.503 158.033C562.881 155.742 563.634 153.723 564.76 151.976C565.886 150.219 567.288 148.851 568.967 147.87C570.647 146.88 572.491 146.385 574.5 146.385C575.665 146.385 576.786 146.579 577.863 146.968C578.941 147.356 579.873 147.987 580.659 148.86C581.445 149.724 581.993 150.87 582.304 152.296C582.615 153.723 582.595 155.48 582.246 157.567L582.013 159.023H564.774L565.24 156.053H578.984C579.208 154.791 579.149 153.665 578.81 152.675C578.48 151.685 577.902 150.904 577.077 150.331C576.262 149.758 575.228 149.472 573.976 149.472C572.685 149.472 571.481 149.821 570.365 150.52C569.249 151.209 568.317 152.083 567.57 153.141C566.822 154.189 566.356 155.257 566.172 156.344L565.764 158.907C565.473 160.76 565.517 162.236 565.895 163.333C566.283 164.429 566.958 165.221 567.919 165.706C568.88 166.181 570.084 166.419 571.53 166.419C572.452 166.419 573.301 166.293 574.078 166.041C574.854 165.779 575.548 165.39 576.16 164.876C576.771 164.352 577.286 163.701 577.703 162.925L580.848 163.857C580.314 164.983 579.562 165.973 578.591 166.827C577.63 167.671 576.504 168.331 575.213 168.807C573.932 169.273 572.53 169.506 571.006 169.506Z" fill="black"/>
</svg>
