<svg width="509" height="192" viewBox="0 0 509 192" fill="none" xmlns="http://www.w3.org/2000/svg">
<path d="M416.313 97.407V87.2351L441.818 47.0547H450.588V61.1342H445.397L429.319 86.5788V87.0561H465.562V97.407H416.313ZM445.636 108.146V94.3047L445.875 89.8004V47.0547H457.985V108.146H445.636Z" fill="black"/>
<path d="M410.3 76.0721C410.3 69.1608 407.554 62.5324 402.667 57.6454C397.78 52.7583 391.151 50.0127 384.24 50.0127C377.329 50.0127 370.7 52.7583 365.813 57.6454C360.926 62.5324 358.181 69.1608 358.181 76.0721C358.181 82.9835 360.926 89.6118 365.813 94.4989C370.7 99.386 377.329 102.132 384.24 102.132C391.151 102.132 397.78 99.386 402.667 94.4989C407.554 89.6118 410.3 82.9835 410.3 76.0721ZM352.167 76.0721C352.167 67.5658 355.546 59.4079 361.561 53.393C367.576 47.3781 375.734 43.999 384.24 43.999C392.746 43.999 400.904 47.3781 406.919 53.393C412.934 59.4079 416.313 67.5658 416.313 76.0721C416.313 84.5785 412.934 92.7364 406.919 98.7513C400.904 104.766 392.746 108.145 384.24 108.145C375.734 108.145 367.576 104.766 361.561 98.7513C355.546 92.7364 352.167 84.5785 352.167 76.0721ZM393.524 58.482C394.25 59.0709 394.476 60.0982 394.05 60.9376L387.485 74.0676H396.268C397.119 74.0676 397.884 74.6063 398.159 75.4081C398.435 76.21 398.184 77.0995 397.52 77.6382L377.475 93.6748C376.736 94.2636 375.696 94.2636 374.956 93.6622C374.217 93.0609 374.004 92.0461 374.418 91.2066L380.995 78.0767H372.213C371.361 78.0767 370.609 77.538 370.321 76.7362C370.033 75.9343 370.296 75.0448 370.96 74.5061L391.006 58.4695C391.745 57.8807 392.785 57.8807 393.524 58.482Z" fill="black"/>
<path d="M301.552 97.407V87.2351L327.056 47.0547H335.826V61.1342H330.636L314.557 86.5788V87.0561H350.8V97.407H301.552ZM330.874 108.146V94.3047L331.113 89.8004V47.0547H343.224V108.146H330.874Z" fill="black"/>
<path d="M271.782 109.04C267.148 109.04 263.141 108.056 259.76 106.087C256.4 104.098 253.804 101.334 251.975 97.7944C250.145 94.2347 249.23 90.1083 249.23 85.4151C249.23 80.6822 250.145 76.5458 251.975 73.006C253.804 69.4464 256.4 66.6822 259.76 64.7134C263.141 62.7248 267.148 61.7305 271.782 61.7305C276.415 61.7305 280.412 62.7248 283.773 64.7134C287.154 66.6822 289.759 69.4464 291.588 73.006C293.418 76.5458 294.333 80.6822 294.333 85.4151C294.333 90.1083 293.418 94.2347 291.588 97.7944C289.759 101.334 287.154 104.098 283.773 106.087C280.412 108.056 276.415 109.04 271.782 109.04ZM271.841 99.1964C273.949 99.1964 275.709 98.5998 277.121 97.4066C278.533 96.1935 279.597 94.543 280.313 92.4549C281.049 90.3668 281.417 87.9904 281.417 85.3256C281.417 82.6609 281.049 80.2844 280.313 78.1964C279.597 76.1083 278.533 74.4577 277.121 73.2447C275.709 72.0316 273.949 71.4251 271.841 71.4251C269.713 71.4251 267.924 72.0316 266.472 73.2447C265.04 74.4577 263.956 76.1083 263.221 78.1964C262.505 80.2844 262.147 82.6609 262.147 85.3256C262.147 87.9904 262.505 90.3668 263.221 92.4549C263.956 94.543 265.04 96.1935 266.472 97.4066C267.924 98.5998 269.713 99.1964 271.841 99.1964Z" fill="black"/>
<path d="M228.193 108.145V62.3272H240.9V108.145H228.193ZM234.577 56.421C232.687 56.421 231.067 55.7946 229.714 54.5417C228.382 53.269 227.716 51.7477 227.716 49.9778C227.716 48.2278 228.382 46.7264 229.714 45.4735C231.067 44.2008 232.687 43.5645 234.577 43.5645C236.466 43.5645 238.077 44.2008 239.409 45.4735C240.761 46.7264 241.437 48.2278 241.437 49.9778C241.437 51.7477 240.761 53.269 239.409 54.5417C238.077 55.7946 236.466 56.421 234.577 56.421Z" fill="black"/>
<path d="M191.675 108.891C188.195 108.891 185.043 107.996 182.219 106.207C179.415 104.397 177.187 101.742 175.537 98.2422C173.906 94.7223 173.091 90.407 173.091 85.2962C173.091 80.0462 173.936 75.6811 175.626 72.201C177.317 68.701 179.564 66.0859 182.368 64.3558C185.192 62.6058 188.284 61.7308 191.645 61.7308C194.21 61.7308 196.348 62.1683 198.058 63.0433C199.788 63.8984 201.18 64.9723 202.234 66.2649C203.308 67.5376 204.123 68.7905 204.68 70.0234H205.068V47.0547H217.746V108.146H205.217V100.808H204.68C204.084 102.08 203.239 103.343 202.145 104.596C201.071 105.829 199.669 106.853 197.939 107.668C196.229 108.484 194.141 108.891 191.675 108.891ZM195.702 98.7791C197.75 98.7791 199.48 98.2223 200.892 97.1087C202.324 95.9751 203.418 94.3942 204.173 92.3658C204.949 90.3374 205.337 87.9609 205.337 85.2365C205.337 82.5121 204.959 80.1456 204.203 78.1371C203.447 76.1286 202.354 74.5774 200.922 73.4837C199.49 72.3899 197.75 71.843 195.702 71.843C193.614 71.843 191.854 72.4098 190.422 73.5433C188.99 74.6768 187.906 76.2479 187.17 78.2564C186.435 80.2649 186.067 82.5916 186.067 85.2365C186.067 87.9013 186.435 90.2578 187.17 92.3061C187.926 94.3345 189.01 95.9254 190.422 97.0788C191.854 98.2124 193.614 98.7791 195.702 98.7791Z" fill="black"/>
<path d="M151.919 88.6368V62.3271H164.627V108.145H152.426V99.8229H151.949C150.915 102.508 149.195 104.665 146.789 106.296C144.402 107.927 141.489 108.742 138.048 108.742C134.986 108.742 132.291 108.046 129.965 106.654C127.638 105.262 125.818 103.283 124.506 100.718C123.213 98.1524 122.557 95.08 122.537 91.5004V62.3271H135.244V89.2334C135.264 91.9379 135.99 94.0757 137.422 95.6468C138.854 97.2178 140.773 98.0033 143.179 98.0033C144.71 98.0033 146.142 97.6553 147.475 96.9593C148.807 96.2433 149.881 95.1894 150.696 93.7973C151.531 92.4053 151.939 90.6851 151.919 88.6368Z" fill="black"/>
<path d="M114.259 62.3274V71.8728H86.667V62.3274H114.259ZM92.9312 51.3501H105.639V94.066C105.639 95.2393 105.818 96.1541 106.176 96.8103C106.533 97.4467 107.031 97.8941 107.667 98.1527C108.323 98.4112 109.079 98.5404 109.934 98.5404C110.531 98.5404 111.127 98.4907 111.724 98.3913C112.32 98.272 112.778 98.1825 113.096 98.1228L115.095 107.579C114.458 107.778 113.563 108.006 112.41 108.265C111.256 108.543 109.854 108.712 108.204 108.772C105.141 108.891 102.457 108.484 100.15 107.549C97.863 106.614 96.0832 105.163 94.8105 103.194C93.5377 101.225 92.9113 98.7393 92.9312 95.7365V51.3501Z" fill="black"/>
<path d="M80.843 75.3924L69.2094 76.1083C69.0106 75.114 68.583 74.2191 67.9268 73.4236C67.2705 72.6083 66.4055 71.962 65.3316 71.4847C64.2776 70.9876 63.0148 70.739 61.5432 70.739C59.5745 70.739 57.914 71.1566 56.5617 71.9918C55.2094 72.8072 54.5333 73.9009 54.5333 75.2731C54.5333 76.3668 54.9708 77.2915 55.8458 78.0472C56.7208 78.8029 58.2222 79.4094 60.3501 79.8668L68.6427 81.5373C73.0972 82.4521 76.4182 83.9236 78.6057 85.9521C80.7932 87.9805 81.887 90.6452 81.887 93.9464C81.887 96.9492 81.002 99.5842 79.2322 101.851C77.4822 104.118 75.0759 105.888 72.0134 107.161C68.9708 108.414 65.4609 109.04 61.4836 109.04C55.4182 109.04 50.5858 107.777 46.9864 105.252C43.4069 102.706 41.3089 99.2461 40.6924 94.8711L53.191 94.2148C53.5688 96.0643 54.4836 97.4762 55.9353 98.4506C57.387 99.4052 59.2464 99.8825 61.5134 99.8825C63.7407 99.8825 65.5305 99.4549 66.8827 98.5998C68.2549 97.7248 68.9509 96.6012 68.9708 95.229C68.9509 94.0756 68.4637 93.131 67.5091 92.3952C66.5546 91.6396 65.083 91.0629 63.0944 90.6651L55.1597 89.0842C50.6853 88.1893 47.3543 86.6381 45.1668 84.4308C42.9992 82.2234 41.9154 79.4094 41.9154 75.989C41.9154 73.0458 42.7108 70.5103 44.3018 68.3825C45.9126 66.2546 48.1697 64.614 51.0731 63.4606C53.9964 62.3072 57.4168 61.7305 61.3344 61.7305C67.1214 61.7305 71.6753 62.9535 74.9964 65.3995C78.3373 67.8455 80.2861 71.1765 80.843 75.3924Z" fill="black"/>
<path d="M44.3851 141.04L42.5895 128.031H44.69L45.8418 137.991H45.9773L50.4153 128.031H52.5496L53.6337 137.957H53.7692L58.2411 128.031H60.3415L54.2096 141.04H52.2447L51.059 131.046H50.8557L46.35 141.04H44.3851ZM65.7937 141.311C64.5459 141.311 63.5155 141.034 62.7024 140.481C61.8893 139.922 61.3219 139.143 61 138.143C60.6782 137.138 60.6274 135.97 60.8476 134.637C61.0678 133.305 61.5054 132.13 62.1603 131.114C62.8153 130.092 63.6312 129.296 64.608 128.725C65.5848 128.15 66.6576 127.862 67.8264 127.862C68.504 127.862 69.1561 127.974 69.7829 128.2C70.4096 128.426 70.9516 128.793 71.409 129.301C71.8664 129.804 72.1854 130.47 72.366 131.3C72.5467 132.13 72.5354 133.152 72.3322 134.366L72.1967 135.213H62.1688L62.4398 133.485H70.435C70.5649 132.751 70.531 132.096 70.3334 131.52C70.1414 130.944 69.8054 130.49 69.3255 130.157C68.8512 129.824 68.2499 129.657 67.5215 129.657C66.7706 129.657 66.0704 129.86 65.4211 130.267C64.7718 130.668 64.2297 131.176 63.795 131.791C63.3602 132.401 63.0892 133.022 62.9819 133.655L62.7447 135.145C62.5754 136.224 62.6008 137.082 62.821 137.72C63.0468 138.358 63.4392 138.818 63.9982 139.101C64.5572 139.377 65.2573 139.516 66.0986 139.516C66.635 139.516 67.1291 139.442 67.5808 139.295C68.0325 139.143 68.4362 138.917 68.7919 138.618C69.1477 138.313 69.4469 137.935 69.6897 137.483L71.5191 138.025C71.2086 138.68 70.771 139.256 70.2063 139.753C69.6474 140.244 68.9924 140.628 68.2414 140.905C67.4961 141.176 66.6802 141.311 65.7937 141.311ZM74.5723 141.04L77.452 123.695H79.4508L78.4005 130.097H78.5699C78.7506 129.872 79.0019 129.584 79.3237 129.234C79.6455 128.878 80.0775 128.562 80.6195 128.285C81.1616 128.003 81.8561 127.862 82.703 127.862C83.7984 127.862 84.7159 128.135 85.4556 128.683C86.2009 129.231 86.7232 130.007 87.0224 131.012C87.3273 132.017 87.3669 133.203 87.141 134.569C86.9152 135.947 86.4832 137.141 85.8452 138.152C85.2128 139.157 84.4336 139.936 83.5076 140.49C82.5873 141.037 81.5851 141.311 80.501 141.311C79.6653 141.311 79.0188 141.173 78.5615 140.896C78.1098 140.614 77.7766 140.295 77.5621 139.939C77.3531 139.578 77.1922 139.278 77.0793 139.041H76.8422L76.5034 141.04H74.5723ZM77.6213 134.535C77.4633 135.518 77.4661 136.385 77.6298 137.136C77.7936 137.881 78.1182 138.465 78.6038 138.889C79.0894 139.307 79.7331 139.516 80.5348 139.516C81.3705 139.516 82.1045 139.295 82.7369 138.855C83.3693 138.409 83.8887 137.81 84.2953 137.059C84.7018 136.303 84.9841 135.461 85.1422 134.535C85.289 133.621 85.2834 132.796 85.1253 132.062C84.9728 131.323 84.651 130.738 84.1598 130.309C83.6742 129.874 83.0079 129.657 82.161 129.657C81.3479 129.657 80.628 129.863 80.0013 130.275C79.3802 130.682 78.8664 131.252 78.4598 131.986C78.0589 132.715 77.7794 133.564 77.6213 134.535ZM94.0098 141.311C92.92 141.311 92.0053 141.037 91.2657 140.49C90.526 139.936 90.0037 139.157 89.6988 138.152C89.3995 137.141 89.3628 135.947 89.5887 134.569C89.8202 133.203 90.2521 132.017 90.8845 131.012C91.5226 130.007 92.3046 129.231 93.2306 128.683C94.1566 128.135 95.1672 127.862 96.2626 127.862C97.1096 127.862 97.7561 128.003 98.2021 128.285C98.6538 128.562 98.9813 128.878 99.1846 129.234C99.3879 129.584 99.5431 129.872 99.6504 130.097H99.8198L100.887 123.695H102.886L100.006 141.04H98.0751L98.4139 139.041H98.1767C97.9904 139.278 97.7307 139.578 97.3975 139.939C97.0644 140.295 96.624 140.614 96.0763 140.896C95.5343 141.173 94.8454 141.311 94.0098 141.311ZM94.501 139.516C95.3028 139.516 96.0198 139.307 96.6522 138.889C97.2903 138.465 97.821 137.881 98.2445 137.136C98.668 136.385 98.9616 135.518 99.1253 134.535C99.2891 133.564 99.2834 132.715 99.1084 131.986C98.9333 131.252 98.5974 130.682 98.1005 130.275C97.6036 129.863 96.9458 129.657 96.1271 129.657C95.2858 129.657 94.5546 129.874 93.9335 130.309C93.3124 130.738 92.8071 131.323 92.4175 132.062C92.0279 132.796 91.7569 133.621 91.6044 134.535C91.452 135.461 91.4492 136.303 91.596 137.059C91.7428 137.81 92.0533 138.409 92.5276 138.855C93.0075 139.295 93.6653 139.516 94.501 139.516ZM109.348 141.311C108.1 141.311 107.07 141.034 106.257 140.481C105.444 139.922 104.876 139.143 104.554 138.143C104.232 137.138 104.182 135.97 104.402 134.637C104.622 133.305 105.06 132.13 105.715 131.114C106.37 130.092 107.185 129.296 108.162 128.725C109.139 128.15 110.212 127.862 111.381 127.862C112.058 127.862 112.71 127.974 113.337 128.2C113.964 128.426 114.506 128.793 114.963 129.301C115.421 129.804 115.74 130.47 115.92 131.3C116.101 132.13 116.09 133.152 115.886 134.366L115.751 135.213H105.723L105.994 133.485H113.989C114.119 132.751 114.085 132.096 113.888 131.52C113.696 130.944 113.36 130.49 112.88 130.157C112.405 129.824 111.804 129.657 111.076 129.657C110.325 129.657 109.625 129.86 108.975 130.267C108.326 130.668 107.784 131.176 107.349 131.791C106.914 132.401 106.643 133.022 106.536 133.655L106.299 135.145C106.13 136.224 106.155 137.082 106.375 137.72C106.601 138.358 106.993 138.818 107.552 139.101C108.111 139.377 108.812 139.516 109.653 139.516C110.189 139.516 110.683 139.442 111.135 139.295C111.587 139.143 111.99 138.917 112.346 138.618C112.702 138.313 113.001 137.935 113.244 137.483L115.073 138.025C114.763 138.68 114.325 139.256 113.761 139.753C113.202 140.244 112.547 140.628 111.796 140.905C111.05 141.176 110.234 141.311 109.348 141.311ZM128.764 130.944L126.867 131.453C126.799 131.148 126.681 130.854 126.511 130.572C126.348 130.284 126.093 130.05 125.749 129.869C125.41 129.682 124.947 129.589 124.36 129.589C123.564 129.589 122.872 129.773 122.285 130.14C121.698 130.501 121.362 130.961 121.277 131.52C121.192 132.012 121.305 132.404 121.616 132.698C121.927 132.991 122.446 133.231 123.174 133.418L125.038 133.892C126.156 134.18 126.952 134.612 127.426 135.188C127.906 135.758 128.07 136.5 127.917 137.415C127.793 138.16 127.468 138.827 126.943 139.414C126.418 140.001 125.746 140.464 124.928 140.803C124.109 141.142 123.197 141.311 122.192 141.311C120.854 141.311 119.798 141.023 119.024 140.447C118.251 139.866 117.839 139.024 117.788 137.923L119.787 137.449C119.837 138.143 120.086 138.669 120.532 139.024C120.984 139.374 121.616 139.549 122.429 139.549C123.361 139.549 124.137 139.352 124.758 138.957C125.379 138.556 125.732 138.076 125.817 137.517C125.902 137.059 125.811 136.678 125.546 136.373C125.286 136.068 124.834 135.84 124.191 135.687L122.124 135.179C120.972 134.891 120.165 134.451 119.702 133.858C119.245 133.265 119.092 132.52 119.245 131.622C119.369 130.888 119.685 130.239 120.193 129.674C120.707 129.109 121.351 128.666 122.124 128.344C122.903 128.022 123.75 127.862 124.665 127.862C125.952 127.862 126.915 128.144 127.553 128.709C128.191 129.267 128.595 130.013 128.764 130.944ZM130.316 141.04L132.484 128.031H134.483L132.315 141.04H130.316ZM134.094 125.829C133.704 125.829 133.368 125.696 133.086 125.431C132.809 125.165 132.671 124.846 132.671 124.474C132.671 124.101 132.809 123.782 133.086 123.517C133.368 123.251 133.704 123.119 134.094 123.119C134.483 123.119 134.816 123.251 135.093 123.517C135.375 123.782 135.516 124.101 135.516 124.474C135.516 124.846 135.375 125.165 135.093 125.431C134.816 125.696 134.483 125.829 134.094 125.829ZM140.414 146.189C139.443 146.189 138.63 146.065 137.975 145.817C137.32 145.574 136.795 145.252 136.399 144.851C136.004 144.456 135.705 144.033 135.502 143.581L137.297 142.463C137.433 142.7 137.608 142.971 137.822 143.276C138.037 143.587 138.361 143.855 138.796 144.081C139.237 144.312 139.855 144.428 140.651 144.428C141.696 144.428 142.61 144.174 143.395 143.666C144.18 143.157 144.666 142.361 144.852 141.277L145.258 138.635H145.089C144.908 138.872 144.657 139.165 144.335 139.516C144.013 139.86 143.582 140.168 143.039 140.439C142.497 140.704 141.803 140.837 140.956 140.837C139.9 140.837 138.997 140.588 138.246 140.091C137.495 139.595 136.956 138.872 136.628 137.923C136.306 136.975 136.258 135.823 136.484 134.468C136.704 133.135 137.128 131.975 137.755 130.987C138.387 129.993 139.166 129.225 140.092 128.683C141.018 128.135 142.029 127.862 143.124 127.862C143.971 127.862 144.62 128.003 145.072 128.285C145.529 128.562 145.863 128.878 146.072 129.234C146.28 129.584 146.439 129.872 146.546 130.097H146.749L147.088 128.031H149.019L146.817 141.413C146.631 142.531 146.227 143.44 145.606 144.14C144.985 144.846 144.222 145.362 143.319 145.69C142.416 146.023 141.447 146.189 140.414 146.189ZM141.464 139.041C142.26 139.041 142.969 138.858 143.59 138.491C144.217 138.124 144.736 137.596 145.148 136.907C145.561 136.218 145.846 135.394 146.004 134.434C146.162 133.497 146.151 132.669 145.97 131.952C145.789 131.235 145.448 130.673 144.945 130.267C144.448 129.86 143.796 129.657 142.989 129.657C142.136 129.657 141.399 129.872 140.778 130.301C140.163 130.73 139.663 131.306 139.279 132.029C138.895 132.751 138.63 133.553 138.483 134.434C138.336 135.337 138.342 136.136 138.5 136.831C138.658 137.52 138.98 138.062 139.465 138.457C139.957 138.846 140.623 139.041 141.464 139.041ZM153.796 133.214L152.508 141.04H150.51L152.678 128.031H154.609L154.27 130.064H154.439C154.846 129.403 155.396 128.872 156.091 128.471C156.785 128.065 157.624 127.862 158.606 127.862C159.476 127.862 160.21 128.042 160.808 128.404C161.413 128.759 161.839 129.301 162.087 130.03C162.341 130.752 162.378 131.667 162.197 132.774L160.808 141.04H158.81L160.165 132.909C160.334 131.893 160.201 131.097 159.767 130.521C159.338 129.945 158.657 129.657 157.726 129.657C157.082 129.657 156.486 129.795 155.938 130.072C155.396 130.349 154.936 130.752 154.558 131.283C154.185 131.814 153.931 132.458 153.796 133.214ZM174.963 141.345C174.139 141.345 173.416 141.19 172.795 140.879C172.174 140.563 171.714 140.108 171.414 139.516C171.115 138.917 171.033 138.194 171.169 137.347C171.299 136.602 171.55 135.998 171.922 135.535C172.295 135.066 172.747 134.699 173.278 134.434C173.814 134.163 174.39 133.962 175.005 133.833C175.626 133.697 176.245 133.593 176.86 133.519C177.662 133.418 178.314 133.338 178.817 133.282C179.319 133.226 179.697 133.132 179.951 133.003C180.206 132.873 180.361 132.65 180.417 132.333V132.266C180.553 131.436 180.443 130.789 180.087 130.326C179.731 129.858 179.096 129.623 178.181 129.623C177.233 129.623 176.439 129.832 175.801 130.25C175.163 130.668 174.692 131.114 174.387 131.588L172.625 130.911C173.088 130.12 173.642 129.505 174.285 129.064C174.929 128.618 175.604 128.308 176.31 128.133C177.015 127.952 177.696 127.862 178.351 127.862C178.769 127.862 179.24 127.912 179.765 128.014C180.29 128.11 180.781 128.31 181.239 128.615C181.702 128.92 182.049 129.38 182.281 129.996C182.518 130.611 182.552 131.436 182.382 132.469L180.959 141.04H178.961L179.265 139.278H179.164C178.983 139.561 178.706 139.863 178.334 140.185C177.967 140.506 177.501 140.78 176.936 141.006C176.377 141.232 175.72 141.345 174.963 141.345ZM175.539 139.549C176.329 139.549 177.021 139.394 177.614 139.084C178.212 138.773 178.692 138.372 179.054 137.881C179.421 137.39 179.649 136.873 179.74 136.331L180.045 134.502C179.943 134.603 179.743 134.696 179.443 134.781C179.144 134.86 178.805 134.931 178.427 134.993C178.054 135.049 177.69 135.1 177.334 135.145C176.984 135.185 176.702 135.219 176.487 135.247C175.957 135.315 175.451 135.425 174.971 135.577C174.497 135.724 174.096 135.947 173.769 136.246C173.447 136.54 173.246 136.941 173.167 137.449C173.049 138.143 173.215 138.669 173.667 139.024C174.119 139.374 174.743 139.549 175.539 139.549ZM191.315 141.04L193.484 128.031H195.415L195.076 129.996H195.211C195.55 129.352 196.067 128.83 196.761 128.429C197.456 128.028 198.193 127.828 198.972 127.828C199.124 127.828 199.308 127.831 199.522 127.836C199.737 127.836 199.903 127.845 200.022 127.862L199.683 129.894C199.615 129.877 199.463 129.852 199.226 129.818C198.989 129.778 198.735 129.759 198.464 129.759C197.831 129.759 197.247 129.891 196.71 130.157C196.174 130.417 195.725 130.778 195.364 131.241C195.002 131.698 194.771 132.221 194.669 132.808L193.314 141.04H191.315ZM205.26 141.311C204.013 141.311 202.982 141.034 202.169 140.481C201.356 139.922 200.788 139.143 200.467 138.143C200.145 137.138 200.094 135.97 200.314 134.637C200.534 133.305 200.972 132.13 201.627 131.114C202.282 130.092 203.098 129.296 204.075 128.725C205.051 128.15 206.124 127.862 207.293 127.862C207.971 127.862 208.623 127.974 209.249 128.2C209.876 128.426 210.418 128.793 210.876 129.301C211.333 129.804 211.652 130.47 211.833 131.3C212.013 132.13 212.002 133.152 211.799 134.366L211.663 135.213H201.635L201.906 133.485H209.902C210.031 132.751 209.998 132.096 209.8 131.52C209.608 130.944 209.272 130.49 208.792 130.157C208.318 129.824 207.717 129.657 206.988 129.657C206.237 129.657 205.537 129.86 204.888 130.267C204.238 130.668 203.696 131.176 203.262 131.791C202.827 132.401 202.556 133.022 202.448 133.655L202.211 135.145C202.042 136.224 202.067 137.082 202.288 137.72C202.513 138.358 202.906 138.818 203.465 139.101C204.024 139.377 204.724 139.516 205.565 139.516C206.102 139.516 206.596 139.442 207.047 139.295C207.499 139.143 207.903 138.917 208.259 138.618C208.614 138.313 208.914 137.935 209.156 137.483L210.986 138.025C210.675 138.68 210.238 139.256 209.673 139.753C209.114 140.244 208.459 140.628 207.708 140.905C206.963 141.176 206.147 141.311 205.26 141.311ZM218.663 141.311C217.574 141.311 216.659 141.037 215.919 140.49C215.18 139.936 214.657 139.157 214.352 138.152C214.053 137.141 214.016 135.947 214.242 134.569C214.474 133.203 214.906 132.017 215.538 131.012C216.176 130.007 216.958 129.231 217.884 128.683C218.81 128.135 219.821 127.862 220.916 127.862C221.763 127.862 222.41 128.003 222.856 128.285C223.307 128.562 223.635 128.878 223.838 129.234C224.041 129.584 224.197 129.872 224.304 130.097H224.473L225.54 123.695H227.539L224.66 141.04H222.729L223.067 139.041H222.83C222.644 139.278 222.384 139.578 222.051 139.939C221.718 140.295 221.278 140.614 220.73 140.896C220.188 141.173 219.499 141.311 218.663 141.311ZM219.155 139.516C219.956 139.516 220.673 139.307 221.306 138.889C221.944 138.465 222.475 137.881 222.898 137.136C223.321 136.385 223.615 135.518 223.779 134.535C223.943 133.564 223.937 132.715 223.762 131.986C223.587 131.252 223.251 130.682 222.754 130.275C222.257 129.863 221.599 129.657 220.781 129.657C219.939 129.657 219.208 129.874 218.587 130.309C217.966 130.738 217.461 131.323 217.071 132.062C216.681 132.796 216.41 133.621 216.258 134.535C216.105 135.461 216.103 136.303 216.249 137.059C216.396 137.81 216.707 138.409 217.181 138.855C217.661 139.295 218.319 139.516 219.155 139.516ZM232.375 141.345C231.551 141.345 230.828 141.19 230.207 140.879C229.586 140.563 229.126 140.108 228.827 139.516C228.527 138.917 228.445 138.194 228.581 137.347C228.711 136.602 228.962 135.998 229.335 135.535C229.707 135.066 230.159 134.699 230.69 134.434C231.226 134.163 231.802 133.962 232.418 133.833C233.039 133.697 233.657 133.593 234.272 133.519C235.074 133.418 235.726 133.338 236.229 133.282C236.731 133.226 237.11 133.132 237.364 133.003C237.618 132.873 237.773 132.65 237.83 132.333V132.266C237.965 131.436 237.855 130.789 237.499 130.326C237.144 129.858 236.508 129.623 235.594 129.623C234.645 129.623 233.852 129.832 233.214 130.25C232.576 130.668 232.104 131.114 231.799 131.588L230.038 130.911C230.501 130.12 231.054 129.505 231.698 129.064C232.341 128.618 233.016 128.308 233.722 128.133C234.428 127.952 235.108 127.862 235.763 127.862C236.181 127.862 236.652 127.912 237.178 128.014C237.703 128.11 238.194 128.31 238.651 128.615C239.114 128.92 239.461 129.38 239.693 129.996C239.93 130.611 239.964 131.436 239.795 132.469L238.372 141.04H236.373L236.678 139.278H236.576C236.395 139.561 236.119 139.863 235.746 140.185C235.379 140.506 234.913 140.78 234.349 141.006C233.79 141.232 233.132 141.345 232.375 141.345ZM232.951 139.549C233.742 139.549 234.433 139.394 235.026 139.084C235.625 138.773 236.105 138.372 236.466 137.881C236.833 137.39 237.062 136.873 237.152 136.331L237.457 134.502C237.355 134.603 237.155 134.696 236.856 134.781C236.556 134.86 236.218 134.931 235.839 134.993C235.467 135.049 235.102 135.1 234.747 135.145C234.397 135.185 234.114 135.219 233.9 135.247C233.369 135.315 232.864 135.425 232.384 135.577C231.91 135.724 231.509 135.947 231.181 136.246C230.859 136.54 230.659 136.941 230.58 137.449C230.461 138.143 230.628 138.669 231.079 139.024C231.531 139.374 232.155 139.549 232.951 139.549ZM244.662 136.297L245.035 133.824H245.442L252.116 128.031H254.589L247.508 134.163H247.339L244.662 136.297ZM242.02 141.04L244.9 123.695H246.898L244.019 141.04H242.02ZM250.286 141.04L246.289 134.603L247.915 133.214L252.827 141.04H250.286ZM259.708 141.311C258.483 141.311 257.478 141.023 256.693 140.447C255.914 139.871 255.372 139.078 255.067 138.067C254.762 137.057 254.717 135.902 254.932 134.603C255.146 133.282 255.581 132.116 256.236 131.105C256.891 130.089 257.707 129.296 258.684 128.725C259.66 128.15 260.736 127.862 261.91 127.862C262.825 127.862 263.621 128.031 264.299 128.37C264.976 128.709 265.499 129.183 265.866 129.793C266.233 130.402 266.405 131.114 266.382 131.927H264.384C264.327 131.334 264.073 130.809 263.621 130.352C263.175 129.889 262.515 129.657 261.639 129.657C260.86 129.657 260.143 129.86 259.488 130.267C258.833 130.668 258.283 131.235 257.837 131.969C257.391 132.698 257.089 133.553 256.93 134.535C256.761 135.541 256.775 136.416 256.973 137.161C257.17 137.906 257.529 138.485 258.048 138.897C258.568 139.309 259.223 139.516 260.013 139.516C260.533 139.516 261.018 139.425 261.47 139.245C261.922 139.064 262.323 138.804 262.673 138.465C263.023 138.127 263.299 137.72 263.503 137.246H265.502C265.253 138.014 264.855 138.705 264.307 139.321C263.76 139.931 263.096 140.416 262.317 140.777C261.538 141.133 260.668 141.311 259.708 141.311ZM260.911 122.814L262.283 125.185L264.434 122.814H266.332L266.315 122.949L262.995 126.473H261.165L258.997 122.949L259.014 122.814H260.911ZM271.066 133.214L269.779 141.04H267.78L269.948 128.031H271.879L271.54 130.064H271.71C272.116 129.403 272.667 128.872 273.361 128.471C274.056 128.065 274.894 127.862 275.877 127.862C276.746 127.862 277.48 128.042 278.079 128.404C278.683 128.759 279.109 129.301 279.358 130.03C279.612 130.752 279.648 131.667 279.468 132.774L278.079 141.04H276.08L277.435 132.909C277.604 131.893 277.472 131.097 277.037 130.521C276.608 129.945 275.927 129.657 274.996 129.657C274.352 129.657 273.756 129.795 273.209 130.072C272.667 130.349 272.207 130.752 271.828 131.283C271.456 131.814 271.201 132.458 271.066 133.214ZM281.731 141.04L283.899 128.031H285.898L283.73 141.04H281.731ZM284.306 126.235L287.016 122.306H289.354L286.067 126.235H284.306ZM305.007 130.944L303.11 131.453C303.042 131.148 302.924 130.854 302.754 130.572C302.591 130.284 302.337 130.05 301.992 129.869C301.653 129.682 301.19 129.589 300.603 129.589C299.807 129.589 299.115 129.773 298.528 130.14C297.941 130.501 297.605 130.961 297.52 131.52C297.436 132.012 297.549 132.404 297.859 132.698C298.17 132.991 298.689 133.231 299.417 133.418L301.281 133.892C302.399 134.18 303.195 134.612 303.669 135.188C304.149 135.758 304.313 136.5 304.16 137.415C304.036 138.16 303.711 138.827 303.186 139.414C302.661 140.001 301.989 140.464 301.171 140.803C300.352 141.142 299.44 141.311 298.435 141.311C297.097 141.311 296.041 141.023 295.267 140.447C294.494 139.866 294.082 139.024 294.031 137.923L296.03 137.449C296.08 138.143 296.329 138.669 296.775 139.024C297.227 139.374 297.859 139.549 298.672 139.549C299.604 139.549 300.38 139.352 301.001 138.957C301.622 138.556 301.975 138.076 302.06 137.517C302.145 137.059 302.054 136.678 301.789 136.373C301.529 136.068 301.077 135.84 300.434 135.687L298.367 135.179C297.215 134.891 296.408 134.451 295.945 133.858C295.488 133.265 295.335 132.52 295.488 131.622C295.612 130.888 295.928 130.239 296.436 129.674C296.95 129.109 297.594 128.666 298.367 128.344C299.146 128.022 299.993 127.862 300.908 127.862C302.195 127.862 303.158 128.144 303.796 128.709C304.434 129.267 304.838 130.013 305.007 130.944ZM307.051 145.918C306.712 145.918 306.413 145.89 306.153 145.834C305.899 145.783 305.724 145.732 305.628 145.681L306.441 143.92C306.904 144.044 307.316 144.081 307.677 144.03C308.044 143.985 308.392 143.807 308.719 143.496C309.052 143.191 309.399 142.711 309.761 142.056L310.32 141.04L307.711 128.031H309.795L311.658 138.431H311.793L317.112 128.031H319.365L311.387 142.92C311.014 143.615 310.605 144.182 310.159 144.623C309.713 145.063 309.23 145.388 308.711 145.597C308.191 145.811 307.638 145.918 307.051 145.918ZM330.744 130.944L328.847 131.453C328.779 131.148 328.66 130.854 328.491 130.572C328.327 130.284 328.073 130.05 327.729 129.869C327.39 129.682 326.927 129.589 326.34 129.589C325.544 129.589 324.852 129.773 324.265 130.14C323.678 130.501 323.342 130.961 323.257 131.52C323.172 132.012 323.285 132.404 323.596 132.698C323.906 132.991 324.426 133.231 325.154 133.418L327.017 133.892C328.135 134.18 328.931 134.612 329.406 135.188C329.886 135.758 330.049 136.5 329.897 137.415C329.773 138.16 329.448 138.827 328.923 139.414C328.398 140.001 327.726 140.464 326.907 140.803C326.089 141.142 325.177 141.311 324.172 141.311C322.833 141.311 321.778 141.023 321.004 140.447C320.23 139.866 319.818 139.024 319.767 137.923L321.766 137.449C321.817 138.143 322.066 138.669 322.512 139.024C322.963 139.374 323.596 139.549 324.409 139.549C325.34 139.549 326.117 139.352 326.738 138.957C327.359 138.556 327.712 138.076 327.797 137.517C327.881 137.059 327.791 136.678 327.525 136.373C327.266 136.068 326.814 135.84 326.17 135.687L324.104 135.179C322.952 134.891 322.145 134.451 321.682 133.858C321.224 133.265 321.072 132.52 321.224 131.622C321.348 130.888 321.665 130.239 322.173 129.674C322.687 129.109 323.33 128.666 324.104 128.344C324.883 128.022 325.73 127.862 326.645 127.862C327.932 127.862 328.895 128.144 329.533 128.709C330.171 129.267 330.574 130.013 330.744 130.944ZM340.122 128.031L339.851 129.725H333.109L333.38 128.031H340.122ZM335.853 124.914H337.852L335.785 137.313C335.695 137.878 335.709 138.302 335.828 138.584C335.952 138.861 336.138 139.047 336.387 139.143C336.641 139.233 336.915 139.278 337.208 139.278C337.428 139.278 337.609 139.267 337.75 139.245C337.891 139.216 338.004 139.194 338.089 139.177L338.225 140.972C338.072 141.023 337.866 141.074 337.606 141.125C337.352 141.181 337.039 141.209 336.666 141.209C336.102 141.209 335.571 141.088 335.074 140.845C334.577 140.602 334.196 140.233 333.931 139.736C333.665 139.239 333.595 138.612 333.719 137.856L335.853 124.914ZM346.241 141.311C344.993 141.311 343.963 141.034 343.15 140.481C342.336 139.922 341.769 139.143 341.447 138.143C341.125 137.138 341.075 135.97 341.295 134.637C341.515 133.305 341.953 132.13 342.607 131.114C343.262 130.092 344.078 129.296 345.055 128.725C346.032 128.15 347.105 127.862 348.274 127.862C348.951 127.862 349.603 127.974 350.23 128.2C350.857 128.426 351.399 128.793 351.856 129.301C352.313 129.804 352.632 130.47 352.813 131.3C352.994 132.13 352.983 133.152 352.779 134.366L352.644 135.213H342.616L342.887 133.485H350.882C351.012 132.751 350.978 132.096 350.781 131.52C350.589 130.944 350.253 130.49 349.773 130.157C349.298 129.824 348.697 129.657 347.969 129.657C347.218 129.657 346.518 129.86 345.868 130.267C345.219 130.668 344.677 131.176 344.242 131.791C343.807 132.401 343.536 133.022 343.429 133.655L343.192 135.145C343.022 136.224 343.048 137.082 343.268 137.72C343.494 138.358 343.886 138.818 344.445 139.101C345.004 139.377 345.704 139.516 346.546 139.516C347.082 139.516 347.576 139.442 348.028 139.295C348.48 139.143 348.883 138.917 349.239 138.618C349.595 138.313 349.894 137.935 350.137 137.483L351.966 138.025C351.656 138.68 351.218 139.256 350.653 139.753C350.094 140.244 349.44 140.628 348.689 140.905C347.943 141.176 347.127 141.311 346.241 141.311ZM347.494 126.269L350.205 122.339H352.542L349.256 126.269H347.494ZM354.748 141.04L356.917 128.031H358.848L358.509 130.064H358.678C359.068 129.369 359.596 128.83 360.262 128.446C360.934 128.056 361.693 127.862 362.54 127.862C363.387 127.862 364.068 128.056 364.581 128.446C365.095 128.83 365.454 129.369 365.657 130.064H365.793C366.233 129.386 366.82 128.85 367.554 128.454C368.294 128.059 369.13 127.862 370.061 127.862C371.213 127.862 372.1 128.226 372.721 128.954C373.347 129.682 373.534 130.809 373.28 132.333L371.823 141.04H369.824L371.281 132.333C371.433 131.368 371.281 130.682 370.823 130.275C370.372 129.863 369.79 129.657 369.079 129.657C368.164 129.657 367.41 129.931 366.817 130.479C366.225 131.026 365.86 131.724 365.725 132.571L364.302 141.04H362.269L363.76 132.13C363.879 131.385 363.737 130.786 363.336 130.335C362.936 129.883 362.354 129.657 361.592 129.657C361.072 129.657 360.564 129.798 360.067 130.081C359.57 130.357 359.144 130.741 358.788 131.232C358.433 131.718 358.204 132.277 358.102 132.909L356.747 141.04H354.748ZM375.503 145.918C375.164 145.918 374.865 145.89 374.605 145.834C374.351 145.783 374.176 145.732 374.08 145.681L374.893 143.92C375.356 144.044 375.768 144.081 376.13 144.03C376.497 143.985 376.844 143.807 377.171 143.496C377.504 143.191 377.852 142.711 378.213 142.056L378.772 141.04L376.163 128.031H378.247L380.11 138.431H380.246L385.565 128.031H387.817L379.839 142.92C379.467 143.615 379.057 144.182 378.611 144.623C378.165 145.063 377.682 145.388 377.163 145.597C376.643 145.811 376.09 145.918 375.503 145.918ZM398.281 133.214L396.994 141.04H394.995L397.163 128.031H399.095L398.756 130.064H398.925C399.332 129.403 399.882 128.872 400.577 128.471C401.271 128.065 402.11 127.862 403.092 127.862C403.962 127.862 404.696 128.042 405.294 128.404C405.898 128.759 406.325 129.301 406.573 130.03C406.827 130.752 406.864 131.667 406.683 132.774L405.294 141.04H403.295L404.65 132.909C404.82 131.893 404.687 131.097 404.252 130.521C403.823 129.945 403.143 129.657 402.211 129.657C401.568 129.657 400.972 129.795 400.424 130.072C399.882 130.349 399.422 130.752 399.044 131.283C398.671 131.814 398.417 132.458 398.281 133.214ZM412.741 141.345C411.917 141.345 411.194 141.19 410.573 140.879C409.952 140.563 409.492 140.108 409.192 139.516C408.893 138.917 408.811 138.194 408.947 137.347C409.077 136.602 409.328 135.998 409.7 135.535C410.073 135.066 410.525 134.699 411.056 134.434C411.592 134.163 412.168 133.962 412.783 133.833C413.404 133.697 414.023 133.593 414.638 133.519C415.44 133.418 416.092 133.338 416.595 133.282C417.097 133.226 417.475 133.132 417.729 133.003C417.984 132.873 418.139 132.65 418.195 132.333V132.266C418.331 131.436 418.221 130.789 417.865 130.326C417.509 129.858 416.874 129.623 415.959 129.623C415.011 129.623 414.217 129.832 413.579 130.25C412.941 130.668 412.47 131.114 412.165 131.588L410.403 130.911C410.866 130.12 411.42 129.505 412.063 129.064C412.707 128.618 413.382 128.308 414.088 128.133C414.793 127.952 415.474 127.862 416.129 127.862C416.547 127.862 417.018 127.912 417.543 128.014C418.068 128.11 418.559 128.31 419.017 128.615C419.48 128.92 419.827 129.38 420.059 129.996C420.296 130.611 420.33 131.436 420.16 132.469L418.737 141.04H416.739L417.043 139.278H416.942C416.761 139.561 416.484 139.863 416.112 140.185C415.745 140.506 415.279 140.78 414.714 141.006C414.155 141.232 413.498 141.345 412.741 141.345ZM413.317 139.549C414.107 139.549 414.799 139.394 415.392 139.084C415.99 138.773 416.47 138.372 416.832 137.881C417.199 137.39 417.427 136.873 417.518 136.331L417.823 134.502C417.721 134.603 417.521 134.696 417.221 134.781C416.922 134.86 416.583 134.931 416.205 134.993C415.832 135.049 415.468 135.1 415.112 135.145C414.762 135.185 414.48 135.219 414.265 135.247C413.735 135.315 413.229 135.425 412.749 135.577C412.275 135.724 411.874 135.947 411.547 136.246C411.225 136.54 411.024 136.941 410.945 137.449C410.827 138.143 410.993 138.669 411.445 139.024C411.897 139.374 412.521 139.549 413.317 139.549ZM431.736 136.297L432.108 133.824H432.515L439.189 128.031H441.662L434.582 134.163H434.412L431.736 136.297ZM429.093 141.04L431.973 123.695H433.972L431.092 141.04H429.093ZM437.36 141.04L433.362 134.603L434.988 133.214L439.9 141.04H437.36ZM446.945 123.695L444.065 141.04H442.066L444.946 123.695H446.945ZM447.726 141.04L449.894 128.031H451.893L449.725 141.04H447.726ZM450.301 126.235L453.011 122.306H455.349L452.063 126.235H450.301ZM458.637 141.311C457.412 141.311 456.407 141.023 455.622 140.447C454.843 139.871 454.301 139.078 453.996 138.067C453.691 137.057 453.646 135.902 453.86 134.603C454.075 133.282 454.51 132.116 455.164 131.105C455.819 130.089 456.635 129.296 457.612 128.725C458.589 128.15 459.665 127.862 460.839 127.862C461.754 127.862 462.55 128.031 463.227 128.37C463.905 128.709 464.427 129.183 464.794 129.793C465.161 130.402 465.333 131.114 465.311 131.927H463.312C463.256 131.334 463.002 130.809 462.55 130.352C462.104 129.889 461.443 129.657 460.568 129.657C459.789 129.657 459.072 129.86 458.417 130.267C457.762 130.668 457.211 131.235 456.765 131.969C456.319 132.698 456.017 133.553 455.859 134.535C455.69 135.541 455.704 136.416 455.901 137.161C456.099 137.906 456.457 138.485 456.977 138.897C457.496 139.309 458.151 139.516 458.942 139.516C459.461 139.516 459.947 139.425 460.399 139.245C460.85 139.064 461.251 138.804 461.601 138.465C461.951 138.127 462.228 137.72 462.431 137.246H464.43C464.182 138.014 463.784 138.705 463.236 139.321C462.688 139.931 462.025 140.416 461.246 140.777C460.466 141.133 459.597 141.311 458.637 141.311ZM459.84 122.814L461.212 125.185L463.363 122.814H465.26L465.243 122.949L461.923 126.473H460.094L457.926 122.949L457.942 122.814H459.84Z" fill="black"/>
</svg>
